<svg xmlns="http://www.w3.org/2000/svg" width="32.779" height="41.843" viewBox="0 0 32.779 41.843">
  <g id="Gastric" transform="translate(1.5 1.5)">
    <path id="Gastric-2" data-name="Gastric" d="M81.961,548.131c8.017,0,12.818-6,12.818-13.12,0-4.117-.849-8.588-4.8-11.005s-9.441-2.59-9.441-2.59V513h-7.7v9.984c0,1.431,1.226,2.592,2.444,3.342a6.464,6.464,0,0,1,3.124,4.888c0,2.416-2.136,5.639-6.409,5.639h-.519A6.473,6.473,0,0,0,65,543.326v8.517h7.726v-7.251A15.359,15.359,0,0,0,81.961,548.131Z" transform="translate(-65 -513)" fill="none" stroke="#8a2ce6" stroke-linejoin="round" stroke-width="3"/>
  </g>
</svg>
