<svg xmlns="http://www.w3.org/2000/svg" xmlns:xlink="http://www.w3.org/1999/xlink" width="200" height="170.926" viewBox="0 0 200 170.926">
  <defs>
    <linearGradient id="linear-gradient" x1="0.5" x2="0.5" y2="1" gradientUnits="objectBoundingBox">
      <stop offset="0" stop-color="#8a2ce6"/>
      <stop offset="0.489" stop-color="#4f01c4"/>
      <stop offset="0.725" stop-color="#492aca"/>
      <stop offset="1" stop-color="#4159d0"/>
    </linearGradient>
  </defs>
  <g id="queda_de_cabelo" data-name="queda de cabelo" transform="translate(-19.7 -12.039)">
    <g id="queda_de_cabelo-2" data-name="queda de cabelo" transform="translate(19.699 12.04)">
      <path id="Caminho_45" data-name="Caminho 45" d="M1480.975-108.7c11.1,0,22.2-.065,33.3.043a37.45,37.45,0,0,1,8.526.973,15.113,15.113,0,0,1,9.879,7.343,15.113,15.113,0,0,1,1.141,12.256,65.047,65.047,0,0,1-5.118,10.678c-2.431,4.429-5.025,8.744-6.242,13.736a30.144,30.144,0,0,0,4.863,25.144,30.144,30.144,0,0,0,22.446,12.33,33.741,33.741,0,0,0,23.728-6.973c10.03-7.679,13.429-18.7,9.307-31.392-1.634-5.029-4.345-9.71-6.574-14.546a100.76,100.76,0,0,1-4.282-9.372c-2.7-7.913.8-15.469,8.612-18.539a23.283,23.283,0,0,1,8.195-1.658c22.317-.115,34.961-.048,57.279-.019a3.939,3.939,0,0,1,3,1.078,3.939,3.939,0,0,1,1.219,2.948,3.955,3.955,0,0,1-1.2,3.044,3.955,3.955,0,0,1-3.08,1.1c-21.916.008-34.157,0-56.073,0-1.092,0-2.189-.019-3.273.06-5.306.385-8.824,4.887-7.3,9.983a41.228,41.228,0,0,0,4.39,9.278c2.885,4.786,5.7,9.537,7.106,15.029,2.943,11.546,2.163,22.471-5.267,32.27a38.032,38.032,0,0,1-21.912,14.026,44.6,44.6,0,0,1-29.333-2.381c-17.936-7.9-25.917-27.088-18.683-45.343,2.234-5.637,5.316-10.932,7.9-16.437a42.58,42.58,0,0,0,2.689-7.04,5.816,5.816,0,0,0-3.416-7.285,28.284,28.284,0,0,0-8.1-2.026c-3.588-.348-7.233-.118-10.855-.12-19.212,0-28.752,0-47.962-.006-3.52,0-5.464-2.547-4.339-5.635.634-1.74,1.93-2.541,4.24-2.541C1467.417-108.7,1469.362-108.694,1480.975-108.7Z" transform="translate(-1450.261 189.354)" fill="url(#linear-gradient)"/>
      <path id="Caminho_46" data-name="Caminho 46" d="M1530.233-96.512c.8,9.218,1.2,17.4,1.93,26.639.495,6.242,1.073,12.5,1.159,18.751a19.8,19.8,0,0,1-5.689,14.17,19.8,19.8,0,0,1-14.08,5.908c-7.209-.079-13.664-5.232-16.134-12.886a35.081,35.081,0,0,1-1.255-13.476c1.268-17.383,6.483-33.863,11.688-50.336,1-3.156,4.627-4.124,6.742-2.016a20.832,20.832,0,0,0,3.852,2.89,2.912,2.912,0,0,0,2.107.224,23.676,23.676,0,0,0,3.471-1.5c2.751-1.317,6.657.159,6.215,4.208a57.185,57.185,0,0,0-.039,6.207C1530.2-97.6,1530.233-96.512,1530.233-96.512Zm-16.391-3.761c-2.07,7.225-4.132,13.906-5.891,20.664-2.244,8.63-3.907,17.381-3.6,26.36a24.02,24.02,0,0,0,1.092,6.415c1.621,5.063,5.582,7.631,10.6,7.184a10.1,10.1,0,0,0,8.913-9.139,126.824,126.824,0,0,0-.454-15.639c-.494-6.989-1.3-13.954-1.891-20.937-.354-4.222-.54-8.458-.819-12.987-3.144,2.253-5.444.425-7.95-1.922Z" transform="translate(-1412.951 187.571)" fill="url(#linear-gradient)"/>
      <path id="Caminho_47" data-name="Caminho 47" d="M1522.435-83.789c-3.236-.292-6.043-.511-8.843-.806-2.4-.251-3.547-1.329-4.052-3.72q-.8-3.787-1.539-7.588a4.488,4.488,0,0,1,1.753-4.547q26.906-23.376,55.959-44.012,5.278-3.733,10.63-7.355c2.211-1.5,4.006-1.111,5.62,1.116,1.486,2.05,1.261,3.706-.784,5.382a287.035,287.035,0,0,0-54.025,58.95C1525.867-84.511,1524.417-83.259,1522.435-83.789Zm13.312-27.474-.118-.166a4.333,4.333,0,0,0-.543.329c-5.864,4.905-11.688,9.863-17.615,14.686-1.43,1.162-.948,2.389-.508,3.519.211.539,1.282.847,2.021,1.043a4.936,4.936,0,0,0,2.057,0,1.692,1.692,0,0,0,.987-.728c.935-1.5,1.671-3.131,2.729-4.527,3.6-4.759,7.309-9.441,10.984-14.155Z" transform="translate(-1403.057 152.715)" fill="url(#linear-gradient)"/>
      <path id="Caminho_48" data-name="Caminho 48" d="M1473.561-96.677q14.141,0,28.281,0c2.89,0,4.477,1.607,4.364,4.335a3.761,3.761,0,0,1-3.32,3.79,7.388,7.388,0,0,1-1.2.055c-18.681,0-27.688.007-46.372,0-3.435,0-5.343-2.456-4.339-5.522.578-1.763,1.938-2.654,4.153-2.655C1464.491-96.683,1464.191-96.677,1473.561-96.677Z" transform="translate(-1450.703 199.398)" fill="url(#linear-gradient)"/>
      <path id="Caminho_49" data-name="Caminho 49" d="M1560.875-96.674c8.8,0,7.919-.014,16.715.006a4.077,4.077,0,0,1,3.927,5.915c-.878,1.887-2.525,2.282-4.441,2.28-16.387-.022-23.1-.014-39.483-.015-1.094,0-2.189.048-3.273-.017a3.781,3.781,0,0,1-2.855-1.22,3.781,3.781,0,0,1-.979-2.946,3.75,3.75,0,0,1,1.1-2.906,3.75,3.75,0,0,1,2.91-1.083C1543.277-96.692,1552.076-96.674,1560.875-96.674Z" transform="translate(-1384.247 199.397)" fill="url(#linear-gradient)"/>
      <path id="Caminho_50" data-name="Caminho 50" d="M1502.238-134.352a3.5,3.5,0,0,1,3.086,2.11c1.992,4.38,4,8.752,5.963,13.145a4.031,4.031,0,0,1-.509,4.664,3.715,3.715,0,0,1-4.38,1.07,4.479,4.479,0,0,1-2.2-1.957c-2.07-4.28-4.033-8.615-5.922-12.976C1496.862-131.54,1498.629-134.407,1502.238-134.352Z" transform="translate(-1411.479 168.012)" fill="url(#linear-gradient)"/>
      <path id="Caminho_51" data-name="Caminho 51" d="M1491.2-117.431c4.467.348,8.939.646,13.4,1.061a4.114,4.114,0,0,1,3.3,2.2,4.114,4.114,0,0,1-.085,3.962,3.946,3.946,0,0,1-2.833,1.757c-5.221-.175-10.439-.561-15.644-1.037-2.13-.2-3.512-2.431-3.263-4.757.224-2.113,1.611-3.246,3.918-3.2.4.008.8.039,1.207.06Z" transform="translate(-1421.264 182.097)" fill="url(#linear-gradient)"/>
      <path id="Caminho_52" data-name="Caminho 52" d="M1508.466-115.852a3.618,3.618,0,0,1-2.008,3.333,3.708,3.708,0,0,1-4.082,0c-3.882-2.644-7.749-5.315-11.547-8.078a3.994,3.994,0,0,1-1.745-2.672,3.994,3.994,0,0,1,.768-3.1,4.077,4.077,0,0,1,2.756-1.583,4.077,4.077,0,0,1,3.055.877c3.578,2.479,7.144,4.979,10.717,7.464a4.3,4.3,0,0,1,2.086,3.755Z" transform="translate(-1418.782 173.331)" fill="url(#linear-gradient)"/>
    </g>
  </g>
</svg>
