<svg xmlns="http://www.w3.org/2000/svg" width="161.83" height="194.778" viewBox="0 0 161.83 194.778">
  <g id="cansaço_fadiga" data-name="cansaço fadiga" transform="translate(-21.19 -14.648)">
    <g id="Cansaço_-_Fadiga" data-name="Cansaço - Fadiga" transform="translate(21.19 14.648)">
      <g id="Grupo_21" data-name="Grupo 21" transform="translate(2.468)">
        <path id="Caminho_95" data-name="Caminho 95" d="M641.5-115.241a50.965,50.965,0,0,0-50.906-50.908,50.966,50.966,0,0,0-50.908,50.908,50.883,50.883,0,0,0,22.267,42.054h-2.347a48.75,48.75,0,0,0-48.694,48.7V6.495a22.161,22.161,0,0,0,22.134,22.134h115.1A22.16,22.16,0,0,0,670.275,6.495V-24.492a48.75,48.75,0,0,0-48.693-48.7h-2.347A50.883,50.883,0,0,0,641.5-115.241Zm-19.92,50.908a39.886,39.886,0,0,1,39.841,39.841V6.495a13.294,13.294,0,0,1-13.28,13.28H634.861V-28.919a4.425,4.425,0,0,0-4.425-4.427,4.426,4.426,0,0,0-4.427,4.427v26.7a22.054,22.054,0,0,0-17.707-8.99H555.18V-28.919a4.425,4.425,0,0,0-4.425-4.427,4.426,4.426,0,0,0-4.427,4.427V-6.785a4.424,4.424,0,0,0,4.427,4.425H608.3a13.3,13.3,0,0,1,13.28,13.281v8.853H533.047a13.3,13.3,0,0,1-13.281-13.28V-24.492a39.886,39.886,0,0,1,39.841-39.841Zm-30.987-8.854a42.1,42.1,0,0,1-42.055-42.054A42.1,42.1,0,0,1,590.595-157.3a42.1,42.1,0,0,1,42.054,42.055A42.1,42.1,0,0,1,590.595-73.187Z" transform="translate(-510.913 166.149)" fill="#040505"/>
        <path id="Caminho_96" data-name="Caminho 96" d="M562.138-125.455a7.007,7.007,0,0,0-7.008,7.006h14.014A7.006,7.006,0,0,0,562.138-125.455Z" transform="translate(-480.84 193.826)" fill="#040505"/>
      </g>
      <path id="Caminho_97" data-name="Caminho 97" d="M558.037-136.39a1.845,1.845,0,0,0,2.559-.512,1.833,1.833,0,0,0,.309-1.022,1.839,1.839,0,0,0-.82-1.536l-2.772-1.848a5.171,5.171,0,0,0-7.167,1.442,1.478,1.478,0,0,1-2.048.408l-2.771-1.846a1.846,1.846,0,0,0-2.559.511,1.844,1.844,0,0,0,.512,2.559l2.772,1.846a5.171,5.171,0,0,0,7.167-1.44,1.477,1.477,0,0,1,2.046-.41Z" transform="translate(-486.991 182.456)" fill="#040505"/>
      <path id="Caminho_98" data-name="Caminho 98" d="M580.3-136.39a1.844,1.844,0,0,0,2.557-.512,1.835,1.835,0,0,0,.311-1.022,1.841,1.841,0,0,0-.822-1.536l-2.772-1.848a5.172,5.172,0,0,0-7.167,1.442,1.477,1.477,0,0,1-2.046.408l-2.772-1.846a1.845,1.845,0,0,0-2.557.511,1.843,1.843,0,0,0,.511,2.559l2.772,1.846a5.171,5.171,0,0,0,7.168-1.44,1.477,1.477,0,0,1,2.046-.41Z" transform="translate(-471.849 182.456)" fill="#040505"/>
      <g id="Grupo_22" data-name="Grupo 22" transform="translate(0 19.395)">
        <path id="Caminho_99" data-name="Caminho 99" d="M522.961-140.91H509.444v-3.132l6.744-7.561h-3.426v1.694H509.62v-4.7h13.292v2.777l-7.089,7.915h3.948v-1.872h3.189Z" transform="translate(-509.444 154.605)" fill="#040505"/>
      </g>
      <g id="Grupo_23" data-name="Grupo 23" transform="translate(7.67 36.832)">
        <path id="Caminho_100" data-name="Caminho 100" d="M523.107-135.01h-9.1v-2.107l4.54-5.089h-2.305v1.141H514.13v-3.162h8.943v1.87l-4.77,5.326h2.656v-1.26h2.147Z" transform="translate(-514.009 144.227)" fill="#040505"/>
      </g>
      <g id="Grupo_24" data-name="Grupo 24" transform="translate(16.988 50.133)">
        <path id="Caminho_101" data-name="Caminho 101" d="M525.85-129.931h-6.3v-1.46l3.14-3.522H521.1v.79h-1.463v-2.188h6.191v1.294l-3.3,3.686h1.84v-.87h1.484Z" transform="translate(-519.555 136.31)" fill="#040505"/>
      </g>
    </g>
  </g>
</svg>
