<svg xmlns="http://www.w3.org/2000/svg" xmlns:xlink="http://www.w3.org/1999/xlink" width="181.814" height="200" viewBox="0 0 181.814 200">
  <defs>
    <linearGradient id="linear-gradient" x1="0.5" x2="0.5" y2="1" gradientUnits="objectBoundingBox">
      <stop offset="0" stop-color="#8a2ce6"/>
      <stop offset="0.535" stop-color="#4f01c4"/>
      <stop offset="1" stop-color="#4159d0"/>
    </linearGradient>
    <linearGradient id="linear-gradient-3" x1="0.5" x2="0.5" y2="1" gradientUnits="objectBoundingBox">
      <stop offset="0" stop-color="#8a2ce6"/>
      <stop offset="0.544" stop-color="#4f01c4"/>
      <stop offset="1" stop-color="#4159d0"/>
    </linearGradient>
  </defs>
  <g id="chiado_no_peito" data-name="chiado no peito" transform="translate(-17.466 -15.529)">
    <g id="Chiado_no_peito-2" data-name="Chiado no peito" transform="translate(17.466 15.533)">
      <path id="Caminho_5" data-name="Caminho 5" d="M851.211-129.433l13.636,4.546a4.516,4.516,0,0,0,1.438.236,4.545,4.545,0,0,0,4.31-3.109,4.547,4.547,0,0,0-2.872-5.752l-4.82-1.606,5.907-3.936a4.54,4.54,0,0,0,1.937-2.89,4.54,4.54,0,0,0-.677-3.412,4.539,4.539,0,0,0-2.89-1.937,4.539,4.539,0,0,0-3.412.677l-13.638,9.089a4.55,4.55,0,0,0-1.984,4.385,4.545,4.545,0,0,0,3.065,3.708Z" transform="translate(-739.015 188.289)" fill="url(#linear-gradient)"/>
      <path id="Caminho_6" data-name="Caminho 6" d="M846.953-133.142a4.546,4.546,0,0,0-1.984-4.385l-13.635-9.089a4.539,4.539,0,0,0-3.413-.678,4.539,4.539,0,0,0-2.891,1.938,4.541,4.541,0,0,0-.676,3.413,4.541,4.541,0,0,0,1.938,2.889l5.907,3.936-4.82,1.606a4.549,4.549,0,0,0-2.872,5.752,4.546,4.546,0,0,0,4.31,3.109,4.507,4.507,0,0,0,1.438-.236l13.636-4.546a4.542,4.542,0,0,0,3.062-3.708Z" transform="translate(-756.086 188.289)" fill="url(#linear-gradient)"/>
      <path id="Caminho_7" data-name="Caminho 7" d="M784.536-57.585a45.364,45.364,0,0,0,18.181,36.276V6.049a22.754,22.754,0,0,0,22.727,22.727H943.625A22.754,22.754,0,0,0,966.35,6.049V-25.766a50.054,50.054,0,0,0-50-50h-2.41a52.245,52.245,0,0,0,22.863-43.181,52.329,52.329,0,0,0-52.27-52.272,52.331,52.331,0,0,0-52.272,52.272,52.369,52.369,0,0,0,2.67,16.193,45.718,45.718,0,0,0-4.943-.281,45.507,45.507,0,0,0-45.455,45.454Zm9.091,0A36.4,36.4,0,0,1,829.99-93.948a36.228,36.228,0,0,1,10.126,1.462,4.456,4.456,0,0,0,2.053.68,36.5,36.5,0,0,1,20.736,18.861,4.443,4.443,0,0,0,.293.611,36.1,36.1,0,0,1,3.157,14.749,36.405,36.405,0,0,1-36.363,36.363,36.4,36.4,0,0,1-36.366-36.364ZM811.81,6.049v-22a45.158,45.158,0,0,0,18.182,3.82,45.447,45.447,0,0,0,9.1-.919l-.01,32.734H825.445A13.647,13.647,0,0,1,811.81,6.049ZM916.352-66.677a40.956,40.956,0,0,1,40.909,40.911V6.049a13.647,13.647,0,0,1-13.636,13.638H929.988v-50a4.543,4.543,0,0,0-4.545-4.544,4.543,4.543,0,0,0-4.545,4.544v50H848.172v-35.64a45.5,45.5,0,0,0,27.271-41.632,45.468,45.468,0,0,0-.918-9.1Zm-75-52.274a43.23,43.23,0,0,1,43.181-43.181,43.231,43.231,0,0,1,43.181,43.181A43.231,43.231,0,0,1,884.536-75.77,43.058,43.058,0,0,1,870.47-78.16a45.641,45.641,0,0,0-24.748-22.017,43.2,43.2,0,0,1-4.368-18.775Z" transform="translate(-784.536 171.22)" fill="url(#linear-gradient-3)"/>
      <path id="Caminho_8" data-name="Caminho 8" d="M805.365-79.212,801.8-75.655a4.544,4.544,0,0,0,0,6.428,4.53,4.53,0,0,0,3.214,1.332,4.529,4.529,0,0,0,3.212-1.332l3.558-3.558a22.573,22.573,0,0,0,7.97,3.329v5a4.544,4.544,0,0,0,4.546,4.546,4.544,4.544,0,0,0,4.544-4.546v-5a22.6,22.6,0,0,0,7.968-3.327l3.556,3.558a4.53,4.53,0,0,0,3.214,1.332,4.528,4.528,0,0,0,3.212-1.332,4.544,4.544,0,0,0,0-6.428l-3.554-3.556a22.563,22.563,0,0,0,3.326-7.968h5.006a4.544,4.544,0,0,0,4.546-4.546,4.544,4.544,0,0,0-4.546-4.546h-5.005a22.565,22.565,0,0,0-3.326-7.968l3.554-3.556a4.544,4.544,0,0,0,0-6.428,4.542,4.542,0,0,0-6.426,0l-3.556,3.556a22.593,22.593,0,0,0-7.968-3.326V-119a4.544,4.544,0,0,0-4.544-4.546A4.544,4.544,0,0,0,819.755-119v5.006a22.569,22.569,0,0,0-7.966,3.326l-3.558-3.556a4.542,4.542,0,0,0-6.426,0,4.544,4.544,0,0,0,0,6.428l3.556,3.556a22.564,22.564,0,0,0-3.327,7.968h-5.005a4.545,4.545,0,0,0-4.545,4.546,4.545,4.545,0,0,0,4.546,4.546h5a22.565,22.565,0,0,0,3.331,7.966Zm9.3-17.609a4.529,4.529,0,0,0,3.214-1.332,4.481,4.481,0,0,0,.44-5.764,13.484,13.484,0,0,1,5.987-1.444,13.477,13.477,0,0,1,5.986,1.444,4.481,4.481,0,0,0,.44,5.764,4.532,4.532,0,0,0,3.214,1.332,4.5,4.5,0,0,0,2.546-.891,13.462,13.462,0,0,1,1.445,5.987,13.455,13.455,0,0,1-1.445,5.986,4.481,4.481,0,0,0-5.764.442,4.481,4.481,0,0,0-.44,5.762,13.461,13.461,0,0,1-5.986,1.445,13.462,13.462,0,0,1-5.987-1.445,4.481,4.481,0,0,0-.44-5.762,4.481,4.481,0,0,0-5.764-.442,13.477,13.477,0,0,1-1.448-5.987,13.485,13.485,0,0,1,1.445-5.987,4.5,4.5,0,0,0,2.553.891Z" transform="translate(-778.846 205.36)" fill="url(#linear-gradient)"/>
    </g>
  </g>
</svg>
