<svg xmlns="http://www.w3.org/2000/svg" width="156.05" height="203.647" viewBox="0 0 156.05 203.647">
  <g id="Des창nimo_Ansiedad" data-name="Des창nimo Ansiedad" transform="translate(-1105.788 -522.218)">
    <g id="Des창nimo_Ansiedad-2" data-name="Des창nimo Ansiedad" transform="translate(1105.788 522.218)">
      <g id="Grupo_20" data-name="Grupo 20" transform="translate(0 12.919)">
        <path id="Caminho_89" data-name="Caminho 89" d="M934.627,230.579a49.848,49.848,0,1,0-77.894,41.181h-2.3a47.737,47.737,0,0,0-47.682,47.682v30.342a21.7,21.7,0,0,0,21.675,21.675h112.7A21.7,21.7,0,0,0,962.8,349.785V319.443a47.736,47.736,0,0,0-47.68-47.682h-2.3A49.828,49.828,0,0,0,934.627,230.579Zm-19.5,49.85a39.055,39.055,0,0,1,39.011,39.013v30.342a13.018,13.018,0,0,1-13,13h-13v-47.68a4.334,4.334,0,1,0-8.669,0V341.25a21.6,21.6,0,0,0-17.34-8.8H850.1V315.108a4.335,4.335,0,1,0-8.669,0v21.673a4.335,4.335,0,0,0,4.335,4.335h56.351a13.02,13.02,0,0,1,13.006,13v8.669h-86.7a13.018,13.018,0,0,1-13-13V319.443a39.055,39.055,0,0,1,39.011-39.013Zm-30.344-8.669a41.18,41.18,0,1,1,41.18-41.181A41.227,41.227,0,0,1,884.778,271.761Z" transform="translate(-806.752 -180.731)" fill="#040505"/>
        <path id="Caminho_90" data-name="Caminho 90" d="M838.391,208.886a6.861,6.861,0,0,0,6.862-6.862H831.529A6.863,6.863,0,0,0,838.391,208.886Z" transform="translate(-781.831 -159.314)" fill="#040505"/>
        <path id="Caminho_91" data-name="Caminho 91" d="M860.665,208.886a6.863,6.863,0,0,0,6.862-6.862H853.8A6.863,6.863,0,0,0,860.665,208.886Z" transform="translate(-759.428 -159.314)" fill="#040505"/>
        <path id="Caminho_92" data-name="Caminho 92" d="M849.882,214.109a6.861,6.861,0,0,0-6.862,6.862h13.724A6.861,6.861,0,0,0,849.882,214.109Z" transform="translate(-770.273 -147.159)" fill="#040505"/>
      </g>
      <path id="Caminho_93" data-name="Caminho 93" d="M869.8,203.484a3.457,3.457,0,0,0,5.753,3.835l3.462-5.193a9.7,9.7,0,0,0-2.7-13.433,2.768,2.768,0,0,1-.766-3.833L879,179.667a3.457,3.457,0,1,0-5.753-3.835l-3.46,5.193a9.69,9.69,0,0,0,2.7,13.431,2.769,2.769,0,0,1,.766,3.835Z" transform="translate(-744.978 -174.29)" fill="#040505"/>
      <path id="Caminho_94" data-name="Caminho 94" d="M813.919,216.28a4.33,4.33,0,0,0,7.205,4.8l4.337-6.5a12.14,12.14,0,0,0-3.384-16.825,3.466,3.466,0,0,1-.959-4.8l4.334-6.5a4.329,4.329,0,1,0-7.2-4.8l-4.337,6.5a12.14,12.14,0,0,0,3.382,16.825,3.465,3.465,0,0,1,.961,4.8Z" transform="translate(-801.593 -168.836)" fill="#040505"/>
    </g>
  </g>
</svg>
