<svg id="Dificuldade_de_concentração_esquecimento_cabeça_vazia" data-name="Dificuldade de concentração, esquecimento, cabeça vazia" xmlns="http://www.w3.org/2000/svg" width="155.031" height="206.295" viewBox="0 0 155.031 206.295">
  <g id="Dificuldade_de_concentração_esquecimento_cabeça_vazia-2" data-name="Dificuldade de concentração, esquecimento, cabeça vazia">
    <g id="Grupo_12" data-name="Grupo 12">
      <path id="Caminho_53" data-name="Caminho 53" d="M766.065,62.024a48.781,48.781,0,1,0-76.225,40.3h-2.249a46.715,46.715,0,0,0-46.661,46.661v29.693a21.234,21.234,0,0,0,21.209,21.209H772.428a21.234,21.234,0,0,0,21.209-21.209V148.982a46.715,46.715,0,0,0-46.661-46.661h-2.249A48.758,48.758,0,0,0,766.065,62.024Zm-19.089,48.781a38.219,38.219,0,0,1,38.177,38.177v29.693A12.739,12.739,0,0,1,772.428,191.4H759.7V144.739a4.242,4.242,0,0,0-8.484,0v25.582a21.128,21.128,0,0,0-16.966-8.615h-50.9V144.739a4.241,4.241,0,0,0-8.482,0V165.95a4.24,4.24,0,0,0,4.241,4.241h55.145a12.74,12.74,0,0,1,12.725,12.725V191.4H662.139a12.739,12.739,0,0,1-12.725-12.725V148.982a38.219,38.219,0,0,1,38.177-38.177Zm-29.693-8.484a40.3,40.3,0,1,1,40.3-40.3A40.343,40.343,0,0,1,717.284,102.322Z" transform="translate(-640.93 6.41)" fill="#040505"/>
      <path id="Caminho_54" data-name="Caminho 54" d="M648,32.439a3.52,3.52,0,1,0,5.858,3.905l3.525-5.289a9.87,9.87,0,0,0-2.749-13.68,2.818,2.818,0,0,1-.781-3.905l3.527-5.289a3.521,3.521,0,1,0-5.86-3.905l-3.525,5.289a9.868,9.868,0,0,0,2.751,13.68,2.818,2.818,0,0,1,.78,3.905Z" transform="translate(-636.253 -2.705)" fill="#040505"/>
      <path id="Caminho_55" data-name="Caminho 55" d="M655.544,32.439a3.521,3.521,0,1,0,5.86,3.905l3.525-5.289a9.869,9.869,0,0,0-2.751-13.68,2.818,2.818,0,0,1-.78-3.905l3.525-5.289a3.52,3.52,0,1,0-5.858-3.905l-3.525,5.289a9.869,9.869,0,0,0,2.749,13.68,2.819,2.819,0,0,1,.781,3.905Z" transform="translate(-629.721 -2.705)" fill="#040505"/>
      <path id="Caminho_56" data-name="Caminho 56" d="M711.357,69.133a3.52,3.52,0,1,0,5.858,3.905l3.525-5.289a9.87,9.87,0,0,0-2.749-13.68,2.819,2.819,0,0,1-.781-3.905l3.527-5.289a3.521,3.521,0,1,0-5.86-3.905l-3.525,5.289a9.868,9.868,0,0,0,2.751,13.68,2.818,2.818,0,0,1,.78,3.905Z" transform="translate(-581.444 29.036)" fill="#040505"/>
      <path id="Caminho_57" data-name="Caminho 57" d="M718.906,69.133a3.521,3.521,0,1,0,5.86,3.905l3.525-5.289a9.868,9.868,0,0,0-2.751-13.68,2.818,2.818,0,0,1-.78-3.905l3.525-5.289a3.52,3.52,0,1,0-5.858-3.905L718.9,46.259a9.87,9.87,0,0,0,2.749,13.68,2.819,2.819,0,0,1,.781,3.905Z" transform="translate(-574.913 29.036)" fill="#040505"/>
    </g>
    <ellipse id="Elipse_3" data-name="Elipse 3" cx="5.17" cy="10.832" rx="5.17" ry="10.832" transform="translate(53.276 53.854)" fill="#040505"/>
    <ellipse id="Elipse_4" data-name="Elipse 4" cx="5.17" cy="10.832" rx="5.17" ry="10.832" transform="translate(89.22 53.854)" fill="#040505"/>
  </g>
</svg>
