<svg xmlns="http://www.w3.org/2000/svg" xmlns:xlink="http://www.w3.org/1999/xlink" width="150.299" height="200" viewBox="0 0 150.299 200">
  <defs>
    <linearGradient id="linear-gradient" x1="0.5" x2="0.5" y2="1" gradientUnits="objectBoundingBox">
      <stop offset="0" stop-color="#8a2ce6"/>
      <stop offset="0.523" stop-color="#4f01c4"/>
      <stop offset="1" stop-color="#4159d0"/>
    </linearGradient>
    <linearGradient id="linear-gradient-6" x1="0.5" x2="0.5" y2="1" gradientUnits="objectBoundingBox">
      <stop offset="0" stop-color="#8a2ce6"/>
      <stop offset="0.531" stop-color="#4f01c4"/>
      <stop offset="1" stop-color="#4159d0"/>
    </linearGradient>
  </defs>
  <g id="Dificuldade_de_concentração_esquecimento_cabeça_vazia" data-name="Dificuldade de concentração, esquecimento, cabeça vazia" transform="translate(0 -0.002)">
    <g id="Grupo_12" data-name="Grupo 12">
      <path id="Caminho_53" data-name="Caminho 53" d="M742.689,60.131a47.292,47.292,0,1,0-73.9,39.07h-2.18a45.289,45.289,0,0,0-45.237,45.237v28.787a20.586,20.586,0,0,0,20.562,20.562H748.858a20.586,20.586,0,0,0,20.562-20.562v-28.79A45.29,45.29,0,0,0,724.183,99.2H722a47.27,47.27,0,0,0,20.687-39.067Zm-18.507,47.292a37.053,37.053,0,0,1,37.012,37.012v28.787a12.35,12.35,0,0,1-12.337,12.337h-12.34V140.322a4.113,4.113,0,1,0-8.225,0v24.8a20.483,20.483,0,0,0-16.448-8.352H662.5V140.322a4.112,4.112,0,0,0-8.223,0v20.564A4.111,4.111,0,0,0,658.388,165h53.461a12.351,12.351,0,0,1,12.337,12.337v8.225H641.934A12.35,12.35,0,0,1,629.6,173.223V144.436a37.053,37.053,0,0,1,37.012-37.012ZM695.4,99.2a39.07,39.07,0,1,1,39.07-39.07A39.07,39.07,0,0,1,695.4,99.2Z" transform="translate(-621.373 6.214)" fill="url(#linear-gradient)"/>
      <path id="Caminho_54" data-name="Caminho 54" d="M628.227,31.449a3.413,3.413,0,1,0,5.679,3.786l3.417-5.128a9.569,9.569,0,0,0-2.665-13.263,2.732,2.732,0,0,1-.757-3.786l3.419-5.128a3.414,3.414,0,1,0-5.681-3.786l-3.417,5.128a9.567,9.567,0,0,0,2.667,13.263,2.732,2.732,0,0,1,.756,3.786Z" transform="translate(-616.838 -2.622)" fill="url(#linear-gradient)"/>
      <path id="Caminho_55" data-name="Caminho 55" d="M635.541,31.449a3.414,3.414,0,1,0,5.681,3.786l3.417-5.128a9.568,9.568,0,0,0-2.667-13.263,2.732,2.732,0,0,1-.756-3.786l3.418-5.128a3.413,3.413,0,1,0-5.679-3.786l-3.417,5.128A9.568,9.568,0,0,0,638.2,22.536a2.733,2.733,0,0,1,.757,3.786Z" transform="translate(-610.506 -2.622)" fill="url(#linear-gradient)"/>
      <path id="Caminho_56" data-name="Caminho 56" d="M689.651,67.023a3.413,3.413,0,1,0,5.679,3.786l3.417-5.128a9.569,9.569,0,0,0-2.665-13.263,2.733,2.733,0,0,1-.757-3.786l3.419-5.128a3.414,3.414,0,1,0-5.681-3.786l-3.417,5.128a9.567,9.567,0,0,0,2.667,13.263,2.732,2.732,0,0,1,.756,3.786Z" transform="translate(-563.702 28.15)" fill="url(#linear-gradient)"/>
      <path id="Caminho_57" data-name="Caminho 57" d="M696.969,67.023a3.414,3.414,0,0,0,5.681,3.786l3.417-5.128A9.567,9.567,0,0,0,703.4,52.419a2.732,2.732,0,0,1-.756-3.786l3.417-5.128a3.413,3.413,0,1,0-5.679-3.786l-3.419,5.128a9.569,9.569,0,0,0,2.665,13.263,2.733,2.733,0,0,1,.757,3.786Z" transform="translate(-557.37 28.15)" fill="url(#linear-gradient)"/>
    </g>
    <ellipse id="Elipse_3" data-name="Elipse 3" cx="5.012" cy="10.501" rx="5.012" ry="10.501" transform="translate(51.65 52.211)" fill="url(#linear-gradient-6)"/>
    <ellipse id="Elipse_4" data-name="Elipse 4" cx="5.012" cy="10.501" rx="5.012" ry="10.501" transform="translate(86.498 52.211)" fill="url(#linear-gradient-6)"/>
  </g>
</svg>
