<svg xmlns="http://www.w3.org/2000/svg" xmlns:xlink="http://www.w3.org/1999/xlink" width="173.903" height="200" viewBox="0 0 173.903 200">
  <defs>
    <linearGradient id="linear-gradient" x1="0.5" x2="0.5" y2="1" gradientUnits="objectBoundingBox">
      <stop offset="0" stop-color="#8a2ce6"/>
      <stop offset="0.523" stop-color="#4f01c4"/>
      <stop offset="1" stop-color="#4159d0"/>
    </linearGradient>
  </defs>
  <g id="Dor_nas_articulações" data-name="Dor nas articulações" transform="translate(-4.868 -18.302)">
    <g id="Dor_nas_articulações-2" data-name="Dor nas articulações" transform="translate(4.868 18.342)">
      <path id="Caminho_27" data-name="Caminho 27" d="M1336.136,40.3a48.861,48.861,0,1,0-76.349,40.365h-2.253A46.79,46.79,0,0,0,1210.8,127.4v29.742a21.271,21.271,0,0,0,21.245,21.245h110.468a21.27,21.27,0,0,0,21.245-21.245V127.4a46.79,46.79,0,0,0-46.737-46.736h-2.253A48.84,48.84,0,0,0,1336.136,40.3Zm-19.12,48.862a38.28,38.28,0,0,1,38.24,38.238v29.742a12.762,12.762,0,0,1-12.747,12.748h-12.746V123.156a4.249,4.249,0,1,0-8.5,0v25.621a21.165,21.165,0,0,0-16.995-8.63h-50.987V123.156a4.249,4.249,0,1,0-8.5,0V144.4a4.248,4.248,0,0,0,4.25,4.249h55.234a12.76,12.76,0,0,1,12.745,12.748v8.5h-84.976a12.762,12.762,0,0,1-12.748-12.748V127.4a38.28,38.28,0,0,1,38.24-38.238Zm-29.74-8.5a118.98,118.98,0,1,0-.005,0Z" transform="translate(-1199.768 8.557)" fill="url(#linear-gradient)"/>
      <path id="Caminho_28" data-name="Caminho 28" d="M1278.574,26.658l-4.507-1.5,5.519-3.679a4.248,4.248,0,0,0-4.713-7.07l-12.743,8.5a4.248,4.248,0,0,0,1.01,7.565l12.745,4.249a4.249,4.249,0,0,0,2.689-8.062Z" transform="translate(-1164.233 24.546)" fill="url(#linear-gradient)"/>
      <path id="Caminho_29" data-name="Caminho 29" d="M1257.344,22.905l-12.748-8.5a4.248,4.248,0,0,0-4.713,7.07l5.519,3.678-4.507,1.5a4.249,4.249,0,1,0,2.689,8.062l12.745-4.249a4.248,4.248,0,0,0,1.01-7.565Z" transform="translate(-1180.225 24.546)" fill="url(#linear-gradient)"/>
      <path id="Caminho_30" data-name="Caminho 30" d="M1304.542,53.369a2.136,2.136,0,0,0,2.074-.773l6.645-8.372a2.137,2.137,0,1,0-3.348-2.657l-4.109,5.176-.778-2.564a2.136,2.136,0,0,0-3.72-.707l-6.645,8.371a2.114,2.114,0,0,0-.464,1.268,2.138,2.138,0,0,0,3.813,1.391l4.109-5.175.778,2.564a2.14,2.14,0,0,0,1.644,1.479Z" transform="translate(-1139.823 44.001)" fill="url(#linear-gradient)"/>
      <path id="Caminho_31" data-name="Caminho 31" d="M1300.987,38.163a2.138,2.138,0,0,0-2.741,1.276l-1.13,3.1-1.778-1.879a2.139,2.139,0,0,0-3.562.737l-2.312,6.352a2.171,2.171,0,0,0-.13.674,2.139,2.139,0,0,0,4.147.792l1.13-3.1,1.778,1.879a2.137,2.137,0,0,0,3.563-.737l2.312-6.352a2.13,2.13,0,0,0-1.276-2.74Z" transform="translate(-1143.324 42.042)" fill="url(#linear-gradient)"/>
      <path id="Caminho_32" data-name="Caminho 32" d="M1211.842,53.81a1.878,1.878,0,0,1-1.776-.8l-5.353-7.736a1.88,1.88,0,1,1,3.092-2.138l3.309,4.781.831-2.207a1.88,1.88,0,0,1,3.3-.4l5.353,7.736a1.879,1.879,0,1,1-3.092,2.136L1214.2,50.4l-.831,2.208a1.881,1.881,0,0,1-1.529,1.2Z" transform="translate(-1204.38 45.129)" fill="url(#linear-gradient)"/>
      <path id="Caminho_33" data-name="Caminho 33" d="M1213.478,40.51a1.884,1.884,0,0,1,2.333,1.28l.808,2.788,1.672-1.546a1.881,1.881,0,0,1,3.083.854l1.663,5.71a1.881,1.881,0,1,1-3.611,1.053l-.808-2.788-1.672,1.545a1.879,1.879,0,0,1-3.083-.854l-1.664-5.71a1.876,1.876,0,0,1,1.279-2.332Z" transform="translate(-1198.818 43.769)" fill="url(#linear-gradient)"/>
      <path id="Caminho_34" data-name="Caminho 34" d="M1217,106.749a1.515,1.515,0,0,1-.444,1.515l-5.609,5.14a1.521,1.521,0,0,1-2.055-2.243l3.468-3.179-1.861-.423a1.521,1.521,0,0,1-.691-2.606l5.611-5.14a1.521,1.521,0,0,1,2.055,2.243l-3.468,3.179,1.86.423a1.515,1.515,0,0,1,1.134,1.091Z" transform="translate(-1201.489 86.156)" fill="url(#linear-gradient)"/>
      <path id="Caminho_35" data-name="Caminho 35" d="M1206.165,104.942a1.522,1.522,0,0,1,.768-2.01l2.145-.959-1.422-1.17a1.515,1.515,0,0,1,.343-2.565l4.394-1.961a1.522,1.522,0,0,1,1.243,2.78l-2.146.959,1.422,1.169a1.515,1.515,0,0,1-.343,2.565l-4.394,1.963a1.515,1.515,0,0,1-2.01-.771Z" transform="translate(-1203.193 83.81)" fill="url(#linear-gradient)"/>
    </g>
  </g>
</svg>
