<svg xmlns="http://www.w3.org/2000/svg" width="172.18" height="197.973" viewBox="0 0 172.18 197.973">
  <g id="Dor_nas_articulações" data-name="Dor nas articulações" transform="translate(-4.82 -18.16)">
    <g id="Dor_nas_articulações-2" data-name="Dor nas articulações" transform="translate(4.82 18.16)">
      <path id="Caminho_27" data-name="Caminho 27" d="M1322.869,39.9a48.376,48.376,0,1,0-75.591,39.964h-2.231a46.325,46.325,0,0,0-46.273,46.272v29.447a21.06,21.06,0,0,0,21.034,21.034h109.371a21.059,21.059,0,0,0,21.034-21.034V126.139a46.325,46.325,0,0,0-46.273-46.272h-2.231A48.355,48.355,0,0,0,1322.869,39.9Zm-18.93,48.377a37.9,37.9,0,0,1,37.86,37.858v29.447a12.635,12.635,0,0,1-12.621,12.621h-12.619V121.933a4.207,4.207,0,1,0-8.413,0V147.3a20.955,20.955,0,0,0-16.826-8.544h-50.481V121.933a4.207,4.207,0,1,0-8.413,0v21.032a4.206,4.206,0,0,0,4.207,4.207h54.687a12.633,12.633,0,0,1,12.619,12.621v8.413h-84.132a12.635,12.635,0,0,1-12.621-12.621V126.139a37.9,37.9,0,0,1,37.86-37.858Zm-29.445-8.413A39.963,39.963,0,1,1,1314.456,39.9,40.01,40.01,0,0,1,1274.494,79.867Z" transform="translate(-1187.856 8.472)" fill="#040505"/>
      <path id="Caminho_28" data-name="Caminho 28" d="M1265.881,26.393l-4.462-1.488,5.464-3.642a4.206,4.206,0,1,0-4.666-7L1249.6,22.678a4.206,4.206,0,0,0,1,7.49l12.619,4.207a4.207,4.207,0,0,0,2.662-7.982Z" transform="translate(-1152.674 24.302)" fill="#040505"/>
      <path id="Caminho_29" data-name="Caminho 29" d="M1244.857,22.678l-12.621-8.413a4.206,4.206,0,1,0-4.666,7l5.464,3.642-4.462,1.488a4.207,4.207,0,1,0,2.662,7.982l12.619-4.207a4.206,4.206,0,0,0,1-7.49Z" transform="translate(-1168.507 24.302)" fill="#040505"/>
      <path id="Caminho_30" data-name="Caminho 30" d="M1291.594,52.839a2.115,2.115,0,0,0,2.054-.765l6.579-8.289a2.116,2.116,0,1,0-3.315-2.63l-4.068,5.124-.77-2.539a2.115,2.115,0,0,0-3.683-.7l-6.579,8.288a2.094,2.094,0,0,0-.459,1.255,2.117,2.117,0,0,0,3.775,1.377l4.068-5.124.77,2.539A2.119,2.119,0,0,0,1291.594,52.839Z" transform="translate(-1128.506 43.564)" fill="#040505"/>
      <path id="Caminho_31" data-name="Caminho 31" d="M1288.066,37.784a2.117,2.117,0,0,0-2.714,1.263l-1.119,3.07-1.76-1.86a2.118,2.118,0,0,0-3.527.73l-2.289,6.289a2.144,2.144,0,0,0-.129.667,2.118,2.118,0,0,0,4.106.784l1.119-3.071,1.76,1.86a2.116,2.116,0,0,0,3.527-.73l2.289-6.289A2.109,2.109,0,0,0,1288.066,37.784Z" transform="translate(-1131.972 41.625)" fill="#040505"/>
      <path id="Caminho_32" data-name="Caminho 32" d="M1199.808,53.276a1.859,1.859,0,0,1-1.758-.789l-5.3-7.659a1.861,1.861,0,0,1,3.061-2.117l3.276,4.733.823-2.185a1.861,1.861,0,0,1,3.272-.4l5.3,7.659a1.858,1.858,0,0,1-.471,2.588,1.859,1.859,0,0,1-2.59-.473l-3.276-4.733-.823,2.186A1.862,1.862,0,0,1,1199.808,53.276Z" transform="translate(-1192.422 44.681)" fill="#040505"/>
      <path id="Caminho_33" data-name="Caminho 33" d="M1201.425,40.108a1.865,1.865,0,0,1,2.31,1.267l.8,2.76,1.655-1.531a1.862,1.862,0,0,1,3.052.846l1.646,5.653a1.862,1.862,0,0,1-3.575,1.043l-.8-2.76-1.655,1.53a1.86,1.86,0,0,1-3.052-.846l-1.647-5.653A1.857,1.857,0,0,1,1201.425,40.108Z" transform="translate(-1186.915 43.334)" fill="#040505"/>
      <path id="Caminho_34" data-name="Caminho 34" d="M1204.92,105.689a1.5,1.5,0,0,1-.44,1.5l-5.553,5.089a1.506,1.506,0,1,1-2.035-2.221l3.434-3.147-1.843-.419a1.506,1.506,0,0,1-.684-2.58l5.555-5.089a1.506,1.506,0,1,1,2.035,2.221l-3.434,3.147,1.842.419A1.5,1.5,0,0,1,1204.92,105.689Z" transform="translate(-1189.56 85.301)" fill="#040505"/>
      <path id="Caminho_35" data-name="Caminho 35" d="M1194.187,103.9a1.507,1.507,0,0,1,.76-1.99l2.124-.949-1.408-1.158a1.5,1.5,0,0,1,.34-2.54l4.35-1.942a1.507,1.507,0,0,1,1.231,2.752l-2.125.949,1.408,1.157a1.5,1.5,0,0,1-.34,2.54l-4.35,1.944A1.5,1.5,0,0,1,1194.187,103.9Z" transform="translate(-1191.247 82.978)" fill="#040505"/>
    </g>
  </g>
</svg>
