<svg xmlns="http://www.w3.org/2000/svg" width="163.353" height="162.389" viewBox="0 0 163.353 162.389">
  <g id="Falta_de_ar" data-name="Falta de ar" transform="translate(-38.648 -41.083)">
    <g id="Falta_de_ar-2" data-name="Falta de ar" transform="translate(38.648 41.083)">
      <path id="Caminho_3" data-name="Caminho 3" d="M935.878-127.682h4.088a18.452,18.452,0,0,0,2.716,6.508l-2.9,2.9a3.712,3.712,0,0,0,0,5.25,3.7,3.7,0,0,0,2.625,1.088,3.7,3.7,0,0,0,2.625-1.088l2.905-2.906a18.453,18.453,0,0,0,6.508,2.718v4.088a3.713,3.713,0,0,0,3.713,3.711,3.713,3.713,0,0,0,3.713-3.711v-4.088a18.449,18.449,0,0,0,6.507-2.718l2.906,2.906a3.7,3.7,0,0,0,2.625,1.088,3.7,3.7,0,0,0,2.625-1.088,3.712,3.712,0,0,0,0-5.25l-2.906-2.9a18.456,18.456,0,0,0,2.718-6.508h4.087a3.714,3.714,0,0,0,3.713-3.713,3.714,3.714,0,0,0-3.713-3.713h-4.087a18.457,18.457,0,0,0-2.718-6.508l2.906-2.9a3.712,3.712,0,0,0,0-5.25,3.712,3.712,0,0,0-5.25,0l-2.906,2.906a18.449,18.449,0,0,0-6.507-2.718v-4.088a3.713,3.713,0,0,0-3.713-3.712,3.713,3.713,0,0,0-3.713,3.712v4.088a18.453,18.453,0,0,0-6.508,2.718l-2.905-2.906a3.712,3.712,0,0,0-5.25,0,3.712,3.712,0,0,0,0,5.25l2.9,2.9a18.453,18.453,0,0,0-2.716,6.508h-4.088a3.714,3.714,0,0,0-3.713,3.713A3.714,3.714,0,0,0,935.878-127.682Zm14.4-7.875a3.7,3.7,0,0,0,2.625-1.088,3.658,3.658,0,0,0,.36-4.706,11,11,0,0,1,4.891-1.181,11.008,11.008,0,0,1,4.889,1.179,3.66,3.66,0,0,0,.361,4.708,3.7,3.7,0,0,0,2.624,1.088,3.692,3.692,0,0,0,2.084-.727,11.007,11.007,0,0,1,1.179,4.889,10.99,10.99,0,0,1-1.18,4.889,3.66,3.66,0,0,0-4.707.361,3.659,3.659,0,0,0-.361,4.708,11.012,11.012,0,0,1-4.889,1.179,11.013,11.013,0,0,1-4.891-1.179,3.66,3.66,0,0,0-.36-4.708,3.662,3.662,0,0,0-4.708-.361,11.008,11.008,0,0,1-1.179-4.889,11.008,11.008,0,0,1,1.179-4.889A3.689,3.689,0,0,0,950.279-135.557Z" transform="translate(-913.603 175.945)" fill="#040505"/>
      <path id="Caminho_4" data-name="Caminho 4" d="M1033.849-130.015a11.046,11.046,0,0,0-11.808-1.415,11.045,11.045,0,0,0-6.353,10.057v14.589l-3.711-2.475v-57.414a3.713,3.713,0,0,0-3.713-3.713h-14.85a3.714,3.714,0,0,0-3.713,3.713v4.726a44.257,44.257,0,0,0-25.988-8.439,44.6,44.6,0,0,0-44.551,44.551,44.478,44.478,0,0,0,16.42,34.51,131.814,131.814,0,0,0-16.42,63.552v1.2a18.418,18.418,0,0,0,7.329,14.779,18.345,18.345,0,0,0,11.162,3.779,19.4,19.4,0,0,0,5.206-.721l30.36-9.975a18.532,18.532,0,0,0,12.769-17.637V-82.482l14.85-5.94,14.85,5.94v46.135a18.532,18.532,0,0,0,12.766,17.637l30.364,9.975c.054.019.113.034.167.049A18.682,18.682,0,0,0,1064-8a18.423,18.423,0,0,0,11.182-3.794,18.423,18.423,0,0,0,7.33-14.78v-1.2A131.2,131.2,0,0,0,1033.849-130.015Zm-36.722-32.947h7.424v19.375a44.593,44.593,0,0,0-7.48-11.678c.007-.094.056-.176.056-.271Zm-70.54,37.126a37.168,37.168,0,0,1,37.126-37.126,37.167,37.167,0,0,1,37.125,37.126,37.159,37.159,0,0,1-27.3,35.763c-.069.016-.133.034-.2.053a36.946,36.946,0,0,1-9.626,1.31A37.168,37.168,0,0,1,926.586-125.835ZM970.9-25.767l-30.2,9.927a11.045,11.045,0,0,1-9.721-1.866,11.049,11.049,0,0,1-4.4-8.866v-1.2a124.407,124.407,0,0,1,15.16-59.351A44.2,44.2,0,0,0,954-82.384l-5.863,1.172a3.712,3.712,0,0,0-2.911,4.368,3.711,3.711,0,0,0,4.368,2.912L961.88-76.39l-1.288,3.861L939.378-58.385a3.713,3.713,0,0,0-1.031,5.148,3.709,3.709,0,0,0,3.093,1.653,3.691,3.691,0,0,0,2.056-.624l13.271-8.848-4,12.01a3.712,3.712,0,0,0,2.347,4.7,3.676,3.676,0,0,0,1.175.193,3.714,3.714,0,0,0,3.523-2.54l10.77-32.314,5.36-4.021c.889-.254,1.757-.545,2.622-.852v47.537A11.113,11.113,0,0,1,970.9-25.767Zm31.316-70.1a3.365,3.365,0,0,0-.565-.1,3.7,3.7,0,0,0-.808-.148,3.678,3.678,0,0,0-.929.168,3.615,3.615,0,0,0-.457.084l-.086.033h0l-4.529,1.813a44.709,44.709,0,0,0,9.707-14.061v.812a3.711,3.711,0,0,0,1.653,3.089l9.484,6.322v7.38Zm72.872,69.3a11.056,11.056,0,0,1-4.4,8.869,11.037,11.037,0,0,1-9.644,1.883l-30.273-9.947a11.112,11.112,0,0,1-7.661-10.581V-85l7.984,5.988,10.77,32.314a3.712,3.712,0,0,0,3.52,2.54,3.681,3.681,0,0,0,1.175-.193,3.713,3.713,0,0,0,2.347-4.7l-4-12.011,13.274,8.849a3.694,3.694,0,0,0,2.055.624,3.7,3.7,0,0,0,3.092-1.653,3.709,3.709,0,0,0-1.029-5.148L1041.082-72.53l-1.286-3.86,12.289,2.458a3.717,3.717,0,0,0,4.37-2.912,3.713,3.713,0,0,0-2.911-4.368L1035.8-84.761l-12.689-9.516v-27.1a3.635,3.635,0,0,1,2.117-3.352,3.623,3.623,0,0,1,3.934.473,123.8,123.8,0,0,1,45.925,96.479Z" transform="translate(-919.162 170.386)" fill="#040505"/>
    </g>
  </g>
</svg>
