<svg xmlns="http://www.w3.org/2000/svg" xmlns:xlink="http://www.w3.org/1999/xlink" width="163.609" height="200" viewBox="0 0 163.609 200">
  <defs>
    <linearGradient id="linear-gradient" x1="0.5" x2="0.5" y2="1" gradientUnits="objectBoundingBox">
      <stop offset="0" stop-color="#8a2ce6"/>
      <stop offset="0.544" stop-color="#4f01c4"/>
      <stop offset="1" stop-color="#4159d0"/>
    </linearGradient>
  </defs>
  <g id="lesões" transform="translate(-1736.433 -194.007)">
    <g id="lesões-2" data-name="lesões" transform="translate(1736.431 194.042)">
      <path id="Caminho_62" data-name="Caminho 62" d="M1210.441,35.787a4.546,4.546,0,0,0-2.872-5.745l-4.819-1.608,5.9-3.936a4.545,4.545,0,1,0-5.042-7.563l-13.634,9.09a4.544,4.544,0,0,0,1.082,8.093l13.636,4.545a4.54,4.54,0,0,0,5.745-2.872Z" transform="translate(-1097.061 24.733)" fill="url(#linear-gradient)"/>
      <path id="Caminho_63" data-name="Caminho 63" d="M1183.748,26.023l-13.633-9.09a4.545,4.545,0,1,0-5.042,7.563l5.9,3.936-4.819,1.608a4.545,4.545,0,0,0,2.872,8.624l13.636-4.545a4.544,4.544,0,0,0,1.082-8.093Z" transform="translate(-1113.062 24.733)" fill="url(#linear-gradient)"/>
      <path id="Caminho_64" data-name="Caminho 64" d="M1132.619,136.7v31.81a22.75,22.75,0,0,0,22.723,22.724H1273.5a22.751,22.751,0,0,0,22.724-22.724V136.7a50.05,50.05,0,0,0-50-49.991h-2.41a52.265,52.265,0,1,0-58.806,0h-2.41a50.049,50.049,0,0,0-49.986,49.991Zm38.63-93.166a43.174,43.174,0,1,1,43.173,43.175,43.174,43.174,0,0,1-43.173-43.175ZM1246.235,95.8a40.948,40.948,0,0,1,40.9,40.9v31.81a13.649,13.649,0,0,1-13.633,13.634h-13.633V132.15a4.545,4.545,0,1,0-9.09,0v49.991h-72.714V132.15a4.545,4.545,0,1,0-9.091,0v49.991h-13.633a13.649,13.649,0,0,1-13.634-13.634V136.7a40.948,40.948,0,0,1,40.9-40.9Z" transform="translate(-1132.617 8.734)" fill="url(#linear-gradient)"/>
      <circle id="Elipse_5" data-name="Elipse 5" cx="7.517" cy="7.517" r="7.517" transform="translate(39.861 111.739)" fill="url(#linear-gradient)"/>
      <circle id="Elipse_6" data-name="Elipse 6" cx="7.517" cy="7.517" r="7.517" transform="translate(17.177 126.589)" fill="url(#linear-gradient)"/>
      <circle id="Elipse_7" data-name="Elipse 7" cx="7.517" cy="7.517" r="7.517" transform="translate(18.233 159.559)" fill="url(#linear-gradient)"/>
      <circle id="Elipse_8" data-name="Elipse 8" cx="7.517" cy="7.517" r="7.517" transform="translate(67.029 121.652)" fill="url(#linear-gradient)"/>
      <circle id="Elipse_9" data-name="Elipse 9" cx="7.517" cy="7.517" r="7.517" transform="translate(94.197 110.837)" fill="url(#linear-gradient)"/>
      <circle id="Elipse_10" data-name="Elipse 10" cx="7.517" cy="7.517" r="7.517" transform="translate(122.024 116.641)" fill="url(#linear-gradient)"/>
      <circle id="Elipse_11" data-name="Elipse 11" cx="7.517" cy="7.517" r="7.517" transform="translate(131.652 141.626)" fill="url(#linear-gradient)"/>
      <circle id="Elipse_12" data-name="Elipse 12" cx="7.517" cy="7.517" r="7.517" transform="translate(134.421 172.091)" fill="url(#linear-gradient)"/>
      <circle id="Elipse_13" data-name="Elipse 13" cx="7.517" cy="7.517" r="7.517" transform="translate(86.678 146.11)" fill="url(#linear-gradient)"/>
      <circle id="Elipse_14" data-name="Elipse 14" cx="7.517" cy="7.517" r="7.517" transform="translate(55.29 155.606)" fill="url(#linear-gradient)"/>
      <circle id="Elipse_15" data-name="Elipse 15" cx="7.517" cy="7.517" r="7.517" transform="translate(95.646 173.674)" fill="url(#linear-gradient)"/>
    </g>
  </g>
</svg>
