<svg xmlns="http://www.w3.org/2000/svg" width="153.787" height="187.962" viewBox="0 0 153.787 187.962">
  <g id="lesões" transform="translate(-1632.181 -182.392)">
    <g id="lesões-2" data-name="lesões" transform="translate(1632.181 182.392)">
      <path id="Caminho_62" data-name="Caminho 62" d="M1137.773,33.638a4.273,4.273,0,0,0-2.7-5.4l-4.53-1.511,5.548-3.7a4.272,4.272,0,0,0-4.739-7.109l-12.815,8.544a4.271,4.271,0,0,0,1.017,7.607l12.817,4.272a4.267,4.267,0,0,0,5.4-2.7Z" transform="translate(-1031.197 23.248)" fill="#040505"/>
      <path id="Caminho_63" data-name="Caminho 63" d="M1112.684,24.461l-12.815-8.544a4.272,4.272,0,0,0-4.739,7.109l5.548,3.7-4.53,1.511a4.272,4.272,0,1,0,2.7,8.106l12.817-4.272a4.271,4.271,0,0,0,1.017-7.607Z" transform="translate(-1046.237 23.248)" fill="#040505"/>
      <path id="Caminho_64" data-name="Caminho 64" d="M1064.618,128.49v29.9a21.384,21.384,0,0,0,21.359,21.36h111.068a21.385,21.385,0,0,0,21.36-21.36v-29.9A47.045,47.045,0,0,0,1171.414,81.5h-2.265a49.127,49.127,0,1,0-55.275,0h-2.265A47.044,47.044,0,0,0,1064.618,128.49Zm36.311-87.573A40.582,40.582,0,1,1,1141.512,81.5,40.627,40.627,0,0,1,1100.93,40.917Zm70.484,49.127a38.49,38.49,0,0,1,38.447,38.447v29.9a12.83,12.83,0,0,1-12.815,12.815h-12.815v-46.99a4.272,4.272,0,1,0-8.544,0v46.99h-68.349v-46.99a4.272,4.272,0,0,0-8.545,0v46.99h-12.815a12.83,12.83,0,0,1-12.815-12.815v-29.9a38.49,38.49,0,0,1,38.447-38.447Z" transform="translate(-1064.618 8.21)" fill="#040505"/>
      <ellipse id="Elipse_5" data-name="Elipse 5" cx="7.066" cy="7.066" rx="7.066" ry="7.066" transform="translate(37.468 105.031)" fill="#040505"/>
      <ellipse id="Elipse_6" data-name="Elipse 6" cx="7.066" cy="7.066" rx="7.066" ry="7.066" transform="translate(16.146 118.989)" fill="#040505"/>
      <ellipse id="Elipse_7" data-name="Elipse 7" cx="7.066" cy="7.066" rx="7.066" ry="7.066" transform="translate(17.138 149.98)" fill="#040505"/>
      <ellipse id="Elipse_8" data-name="Elipse 8" cx="7.066" cy="7.066" rx="7.066" ry="7.066" transform="translate(63.005 114.348)" fill="#040505"/>
      <ellipse id="Elipse_9" data-name="Elipse 9" cx="7.066" cy="7.066" rx="7.066" ry="7.066" transform="translate(88.542 104.183)" fill="#040505"/>
      <ellipse id="Elipse_10" data-name="Elipse 10" cx="7.066" cy="7.066" rx="7.066" ry="7.066" transform="translate(114.698 109.638)" fill="#040505"/>
      <ellipse id="Elipse_11" data-name="Elipse 11" cx="7.066" cy="7.066" rx="7.066" ry="7.066" transform="translate(123.748 133.123)" fill="#040505"/>
      <ellipse id="Elipse_12" data-name="Elipse 12" cx="7.066" cy="7.066" rx="7.066" ry="7.066" transform="translate(126.351 161.759)" fill="#040505"/>
      <ellipse id="Elipse_13" data-name="Elipse 13" cx="7.066" cy="7.066" rx="7.066" ry="7.066" transform="translate(81.474 137.338)" fill="#040505"/>
      <ellipse id="Elipse_14" data-name="Elipse 14" cx="7.066" cy="7.066" rx="7.066" ry="7.066" transform="translate(51.971 146.264)" fill="#040505"/>
      <ellipse id="Elipse_15" data-name="Elipse 15" cx="7.066" cy="7.066" rx="7.066" ry="7.066" transform="translate(89.904 163.247)" fill="#040505"/>
    </g>
  </g>
</svg>
