<svg xmlns="http://www.w3.org/2000/svg" width="221.754" height="184.32" viewBox="0 0 221.754 184.32">
  <g id="n達o_sente_gosto" data-name="n達o sente gosto" transform="translate(-4.517 96.736)">
    <g id="n達o_sente_gosto_" data-name="n達o sente gosto," transform="translate(4.517 -96.736)">
      <g id="Grupo_28" data-name="Grupo 28" transform="translate(23.199 84.817)">
        <path id="Caminho_102" data-name="Caminho 102" d="M1001.542,48.94c7.25.012,12.834.8,18.188,2.887a8.354,8.354,0,0,0,6.242.1c9.138-3.47,18.5-3.688,28-1.88,12.452,2.371,23.043,8.325,32.391,16.728,5.12,4.6,10.33,9.136,16.45,12.38a74.083,74.083,0,0,0,9.562,4.113c3.443,1.243,4.514,4.434,2.137,7.224a93.365,93.365,0,0,1-18.215,15.926,141.519,141.519,0,0,1-39.488,18.743,1.95,1.95,0,0,0-1.212,1.167c-2.163,13.2-9.905,21.706-22.464,25.427-13.286,3.938-25.225.966-35.031-9.079a27.275,27.275,0,0,1-7.538-15.986c-.156-1.224-.851-1.446-1.773-1.724-16.613-5.04-32.009-12.5-45.563-23.44-4-3.226-7.569-6.989-11.3-10.542-2.963-2.821-1.775-6.805,2.207-7.871,6.669-1.785,12.376-5.494,17.7-9.763,4.2-3.373,8.185-7.024,12.4-10.375C975.591,53.955,988.535,49.207,1001.542,48.94ZM1097.3,84.319l.084-.384a3.461,3.461,0,0,0-.325-.261,119.962,119.962,0,0,1-15.828-12.313c-7.376-6.537-15.62-11.5-25.276-13.893-9.484-2.344-18.885-2.683-28.175,1.009a13.446,13.446,0,0,1-10.075-.164,42.444,42.444,0,0,0-22.234-1.985,58.083,58.083,0,0,0-29.737,14.24c-5.315,4.656-10.642,9.3-16.664,13.058a4.012,4.012,0,0,0-.592.629c.662,0,1.124.025,1.582,0,7.84-.5,15.674-1.155,23.522-1.489,7.521-.32,15.055-.468,22.579-.37a38.713,38.713,0,0,1,9.038,1.489c5.432,1.409,10.782,3.137,16.2,4.619a6.672,6.672,0,0,0,3.25-.019c3.645-.91,7.287-1.87,10.866-3.014a57.953,57.953,0,0,1,16.183-3.238c12.393-.325,24.712.77,37.049,1.594C1091.593,84.013,1094.448,84.156,1097.3,84.319ZM997.149,88.945c-.074.832-.134,1.194-.134,1.559,0,10.79-.033,21.58.017,32.367a21.728,21.728,0,0,0,3.727,12.085c6.046,9.138,17.737,13.478,28.962,10.737,10.749-2.624,19.7-12.025,19.3-24.4-.325-10.129-.068-20.276-.068-30.413V89.134c-7.883,1.124-14.955,4.36-22.538,5.911v2.373q0,17.368,0,34.74c0,2.357-1.336,3.908-3.39,3.928-2.087.019-3.414-1.481-3.416-3.869q0-17.859.006-35.717c0-.857-.047-1.424-1.093-1.709-4.434-1.2-8.828-2.548-13.252-3.782C1002.655,90.281,1000.005,89.668,997.149,88.945Zm-7.018,29.377V88.635l-48.238,2.85C956.012,104.229,972.2,112.662,990.131,118.321ZM1103.8,91.327c-.585-.027-1.169-.051-1.754-.082q-9.819-.514-19.639-1.029c-8.354-.436-16.711-.851-25.065-1.317-1.206-.068-1.582.267-1.574,1.529.057,8.882.025,17.767.029,26.649,0,.353.054.705.1,1.229C1073.829,112.685,1090,104.219,1103.8,91.327Z" transform="translate(-917.229 -53.932)"/>
      </g>
      <path id="Caminho_103" data-name="Caminho 103" d="M965.188,29.335c-1.348,3.671-4.477,5.629-6.907,8.132-6.2,6.39-6.25,6.328.013,12.608,1.915,1.921,3.869,3.809,5.674,5.829,1.426,1.6,1.607,3.373-.074,4.992-1.7,1.635-3.433,1.292-4.972-.185-2.858-2.745-5.792-5.438-8.4-8.413-2.461-2.811-4.4-3.207-6.992-.125-2.408,2.862-5.288,5.329-7.92,8.006-1.637,1.666-3.431,2.6-5.451.834-2.344-2.046-1.354-4.113.409-5.925,2.909-2.993,5.812-6,8.88-8.82,1.989-1.831,2.1-3.184-.006-5.025a87.3,87.3,0,0,1-7.078-7.08c-1.822-2.009-5.525-4.051-2.447-7.139,3.258-3.265,5.518.376,7.711,2.4a42.223,42.223,0,0,1,5.282,5.329c3.008,3.994,5.432,3.256,8.3-.208a91.2,91.2,0,0,1,7.55-7.483,3.714,3.714,0,0,1,4.594-.725A4.059,4.059,0,0,1,965.188,29.335Z" transform="translate(-895.478 8.872)" fill="#040505"/>
      <path id="Caminho_104" data-name="Caminho 104" d="M963.153,110.936a51.486,51.486,0,1,1,51.486-51.486A51.543,51.543,0,0,1,963.153,110.936Zm0-94.973A43.486,43.486,0,1,0,1006.64,59.45,43.536,43.536,0,0,0,963.153,15.964Z" transform="translate(-911.667 -7.964)" fill="#040505"/>
    </g>
  </g>
</svg>
