<svg xmlns="http://www.w3.org/2000/svg" width="170.388" height="192.234" viewBox="0 0 170.388 192.234">
  <g id="tosse" transform="translate(-19.402 -12.299)">
    <g id="Tosse-2" data-name="Tosse" transform="translate(19.402 12.299)">
      <path id="Caminho_21" data-name="Caminho 21" d="M769.764-115.278a50.3,50.3,0,0,0-50.243-50.243,50.3,50.3,0,0,0-50.241,50.243,50.216,50.216,0,0,0,21.976,41.5h-2.317a48.112,48.112,0,0,0-48.058,48.058V4.868a21.87,21.87,0,0,0,21.843,21.845H776.317A21.871,21.871,0,0,0,798.162,4.868V-25.716A48.113,48.113,0,0,0,750.1-73.774h-2.318A50.218,50.218,0,0,0,769.764-115.278ZM750.1-65.035a39.363,39.363,0,0,1,39.319,39.319V4.868a13.12,13.12,0,0,1-13.106,13.106H763.211V-30.084a4.368,4.368,0,0,0-4.369-4.369,4.369,4.369,0,0,0-4.369,4.369V-3.735A21.759,21.759,0,0,0,737-12.608H684.569V-30.084a4.368,4.368,0,0,0-4.369-4.369,4.368,4.368,0,0,0-4.368,4.369V-8.24A4.367,4.367,0,0,0,680.2-3.871H737A13.122,13.122,0,0,1,750.1,9.235v8.739h-87.38A13.121,13.121,0,0,1,649.618,4.868V-25.716a39.364,39.364,0,0,1,39.321-39.319Zm-30.584-8.739a41.553,41.553,0,0,1-41.5-41.5,41.551,41.551,0,0,1,41.5-41.5,41.55,41.55,0,0,1,41.5,41.5A41.551,41.551,0,0,1,719.521-73.774Z" transform="translate(-627.773 165.521)" fill="#040505"/>
      <path id="Caminho_22" data-name="Caminho 22" d="M711.754-128.781l-4.633-1.545,5.673-3.781a4.367,4.367,0,0,0,1.213-6.059,4.36,4.36,0,0,0-6.059-1.211l-13.106,8.737a4.374,4.374,0,0,0-1.907,4.216,4.368,4.368,0,0,0,2.948,3.565l13.106,4.368a4.332,4.332,0,0,0,1.382.227,4.368,4.368,0,0,0,4.143-2.988A4.37,4.37,0,0,0,711.754-128.781Z" transform="translate(-592.41 181.433)" fill="#040505"/>
      <path id="Caminho_23" data-name="Caminho 23" d="M689.389-132.641l-13.108-8.737a4.356,4.356,0,0,0-6.058,1.211,4.366,4.366,0,0,0,1.211,6.059l5.675,3.781-4.633,1.545a4.368,4.368,0,0,0-2.76,5.527,4.366,4.366,0,0,0,4.143,2.988,4.348,4.348,0,0,0,1.383-.227l13.106-4.368a4.37,4.37,0,0,0,2.948-3.565A4.377,4.377,0,0,0,689.389-132.641Z" transform="translate(-608.325 181.433)" fill="#040505"/>
      <path id="Caminho_24" data-name="Caminho 24" d="M664.377-129.882l-26.213-4.369a4.359,4.359,0,0,0-5.026,3.59,4.369,4.369,0,0,0,3.591,5.028l26.214,4.369a4.4,4.4,0,0,0,.721.06,4.369,4.369,0,0,0,4.305-3.65A4.368,4.368,0,0,0,664.377-129.882Z" transform="translate(-633.078 186.739)" fill="#040505"/>
      <path id="Caminho_25" data-name="Caminho 25" d="M659.067-123.776l-17.476,4.369a4.362,4.362,0,0,0-3.178,5.3,4.364,4.364,0,0,0,4.232,3.309,4.376,4.376,0,0,0,1.063-.131l17.476-4.369a4.365,4.365,0,0,0,3.178-5.3A4.358,4.358,0,0,0,659.067-123.776Z" transform="translate(-629.542 193.81)" fill="#040505"/>
      <path id="Caminho_26" data-name="Caminho 26" d="M642.827-100.5a4.364,4.364,0,0,0-1.211,6.058,4.358,4.358,0,0,0,3.639,1.945,4.348,4.348,0,0,0,2.419-.734L673.888-110.7a4.366,4.366,0,0,0,1.211-6.058,4.362,4.362,0,0,0-6.059-1.211Z" transform="translate(-627.774 197.347)" fill="#040505"/>
    </g>
  </g>
</svg>
