<svg xmlns="http://www.w3.org/2000/svg" width="44.432" height="37.753" viewBox="0 0 44.432 37.753">
  <g id="Lung" transform="translate(1.5 0)">
    <path id="Line_01" d="M77.881,403v11.244m0,0v14.311c0,8.178-8.085,10.7-13.176,10.7h0A4.7,4.7,0,0,1,60,434.548V426.51c0-11.448,7.837-12.266,12.811-12.266Z" transform="translate(-60 -403)" fill="none" stroke="#8a2ce6" stroke-width="3"/>
    <path id="Line_02" d="M76.12,413c.531,4.315-.8,12.948-10.35,12.948" transform="translate(-58.299 -400.052)" fill="none" stroke="#8a2ce6" stroke-width="3"/>
    <path id="Line_03" d="M78.189,403v11.244m0,0v14.311c0,8.178,8.085,10.7,13.176,10.7h0a4.7,4.7,0,0,0,4.706-4.705V426.51c0-11.448-7.837-12.266-12.811-12.266Z" transform="translate(-54.639 -403)" fill="none" stroke="#8a2ce6" stroke-width="3"/>
    <path id="Line_04" d="M78.259,413c-.531,4.315.8,12.948,10.35,12.948" transform="translate(-54.648 -400.052)" fill="none" stroke="#8a2ce6" stroke-width="3"/>
  </g>
</svg>
