<svg xmlns="http://www.w3.org/2000/svg" xmlns:xlink="http://www.w3.org/1999/xlink" width="200" height="198.82" viewBox="0 0 200 198.82">
  <defs>
    <linearGradient id="linear-gradient" x1="0.5" x2="0.5" y2="1" gradientUnits="objectBoundingBox">
      <stop offset="0" stop-color="#8a2ce6"/>
      <stop offset="0.494" stop-color="#4f01c4"/>
      <stop offset="1" stop-color="#4159d0"/>
    </linearGradient>
  </defs>
  <g id="Falta_de_ar" data-name="Falta de ar" transform="translate(-0.001 0)">
    <path id="Caminho_3" data-name="Caminho 3" d="M1145.861-156.33h5.005a22.592,22.592,0,0,0,3.325,7.968l-3.551,3.551a4.545,4.545,0,0,0,0,6.428,4.53,4.53,0,0,0,3.214,1.332,4.53,4.53,0,0,0,3.214-1.332l3.557-3.558a22.6,22.6,0,0,0,7.968,3.328v5.005a4.546,4.546,0,0,0,4.546,4.544,4.546,4.546,0,0,0,4.546-4.544v-5.005a22.589,22.589,0,0,0,7.967-3.328l3.558,3.558a4.53,4.53,0,0,0,3.214,1.332,4.53,4.53,0,0,0,3.214-1.332,4.545,4.545,0,0,0,0-6.428l-3.558-3.551a22.6,22.6,0,0,0,3.328-7.968h5a4.547,4.547,0,0,0,4.546-4.546,4.547,4.547,0,0,0-4.546-4.546h-5a22.6,22.6,0,0,0-3.328-7.968l3.558-3.551a4.545,4.545,0,0,0,0-6.428,4.545,4.545,0,0,0-6.428,0l-3.558,3.558a22.59,22.59,0,0,0-7.967-3.328v-5.005a4.546,4.546,0,0,0-4.546-4.545,4.546,4.546,0,0,0-4.546,4.545v5.005a22.594,22.594,0,0,0-7.968,3.328l-3.557-3.558a4.545,4.545,0,0,0-6.428,0,4.545,4.545,0,0,0,0,6.428l3.551,3.551a22.592,22.592,0,0,0-3.325,7.968h-5.005a4.547,4.547,0,0,0-4.546,4.546,4.547,4.547,0,0,0,4.546,4.546Zm17.631-9.642a4.53,4.53,0,0,0,3.214-1.332,4.479,4.479,0,0,0,.441-5.762,13.468,13.468,0,0,1,5.988-1.446,13.478,13.478,0,0,1,5.986,1.444,4.481,4.481,0,0,0,.442,5.764,4.531,4.531,0,0,0,3.213,1.332,4.521,4.521,0,0,0,2.551-.89,13.476,13.476,0,0,1,1.443,5.986,13.456,13.456,0,0,1-1.445,5.986,4.481,4.481,0,0,0-5.763.442,4.48,4.48,0,0,0-.442,5.764,13.482,13.482,0,0,1-5.986,1.444,13.484,13.484,0,0,1-5.988-1.444,4.481,4.481,0,0,0-.441-5.764,4.484,4.484,0,0,0-5.764-.442,13.479,13.479,0,0,1-1.443-5.986,13.477,13.477,0,0,1,1.443-5.986,4.516,4.516,0,0,0,2.551.89Z" transform="translate(-1118.588 215.422)" fill="url(#linear-gradient)"/>
    <path id="Caminho_4" data-name="Caminho 4" d="M1265.815-159.186a13.524,13.524,0,0,0-14.457-1.732,13.523,13.523,0,0,0-7.779,12.314v17.862l-4.544-3.03v-70.3a4.546,4.546,0,0,0-4.546-4.546h-18.182a4.547,4.547,0,0,0-4.546,4.545v5.787a54.187,54.187,0,0,0-31.819-10.332,54.607,54.607,0,0,0-54.547,54.547,54.456,54.456,0,0,0,20.1,42.252A161.391,161.391,0,0,0,1125.4-34v1.469a22.55,22.55,0,0,0,8.973,18.095,22.461,22.461,0,0,0,13.666,4.627,23.752,23.752,0,0,0,6.374-.883l37.172-12.213A22.69,22.69,0,0,0,1207.215-44.5v-56.485l18.182-7.273,18.182,7.273V-44.5a22.69,22.69,0,0,0,15.63,21.594l37.177,12.213c.066.023.138.042.2.06a22.875,22.875,0,0,0,6.139.84,22.557,22.557,0,0,0,13.691-4.645,22.557,22.557,0,0,0,8.975-18.1v-1.469A160.638,160.638,0,0,0,1265.815-159.186Zm-44.961-40.339h9.09V-175.8a54.6,54.6,0,0,0-9.158-14.3c.009-.115.069-.215.069-.332Zm-86.367,45.456a45.507,45.507,0,0,1,45.456-45.456A45.506,45.506,0,0,1,1225.4-154.07a45.5,45.5,0,0,1-33.425,43.787c-.084.02-.163.042-.245.065a45.236,45.236,0,0,1-11.786,1.6,45.507,45.507,0,0,1-45.457-45.455ZM1188.74-31.548l-36.976,12.154a13.523,13.523,0,0,1-11.9-2.285,13.528,13.528,0,0,1-5.387-10.855V-34a152.323,152.323,0,0,1,18.561-72.668,54.117,54.117,0,0,0,15.012,5.8l-7.178,1.435a4.545,4.545,0,0,0-3.564,5.348,4.543,4.543,0,0,0,5.348,3.565L1177.7-93.53,1176.12-88.8l-25.974,17.317a4.546,4.546,0,0,0-1.262,6.3,4.541,4.541,0,0,0,3.787,2.024,4.519,4.519,0,0,0,2.517-.764l16.249-10.833-4.9,14.7a4.545,4.545,0,0,0,.244,3.473,4.544,4.544,0,0,0,2.63,2.282,4.5,4.5,0,0,0,1.439.236,4.547,4.547,0,0,0,4.313-3.109l13.187-39.565,6.563-4.923c1.088-.311,2.151-.667,3.21-1.043v58.2a13.606,13.606,0,0,1-9.384,12.949Zm38.342-85.828a4.121,4.121,0,0,0-.692-.122,4.533,4.533,0,0,0-.989-.181,4.5,4.5,0,0,0-1.138.206,4.432,4.432,0,0,0-.559.1l-.105.04h0l-5.545,2.22a54.742,54.742,0,0,0,11.885-17.216v.994a4.543,4.543,0,0,0,2.025,3.783l11.611,7.74v9.036Zm89.222,84.849a13.537,13.537,0,0,1-5.387,10.859,13.513,13.513,0,0,1-11.808,2.305l-37.065-12.179a13.605,13.605,0,0,1-9.38-12.955v-59.574l9.775,7.332,13.187,39.564a4.545,4.545,0,0,0,4.31,3.11,4.507,4.507,0,0,0,1.439-.236,4.546,4.546,0,0,0,2.874-5.755l-4.9-14.706L1295.6-63.928a4.523,4.523,0,0,0,2.516.764,4.53,4.53,0,0,0,3.786-2.024,4.541,4.541,0,0,0,.677-3.413,4.542,4.542,0,0,0-1.937-2.89L1274.667-88.8l-1.575-4.726,15.046,3.009a4.551,4.551,0,0,0,5.351-3.565,4.546,4.546,0,0,0-3.564-5.348l-21.723-4.345-15.536-11.651v-33.18a4.45,4.45,0,0,1,2.592-4.1,4.436,4.436,0,0,1,4.817.579A151.577,151.577,0,0,1,1316.3-34.009Z" transform="translate(-1125.394 208.615)" fill="url(#linear-gradient)"/>
  </g>
</svg>
