<svg xmlns="http://www.w3.org/2000/svg" width="26" height="24" viewBox="0 0 26 24">
  <g id="Não_Urgente" data-name="Não Urgente" transform="translate(2)">
    <path id="read_1_1_Background_Mask_" data-name="read (1) 1 (Background/Mask)" d="M0,0H24V24H0Z" fill="none"/>
    <g id="Group" transform="translate(0 5.988)">
      <path id="Vector" d="M14.8.344,5.926,9.11,2.071,5.119A1.2,1.2,0,1,0,.335,6.784l.006.006,4.7,4.872a1.2,1.2,0,0,0,.854.361H5.91a1.2,1.2,0,0,0,.842-.348l9.731-9.622a1.2,1.2,0,0,0,.011-1.7h0A1.2,1.2,0,0,0,14.8.344Z" transform="translate(-2)" fill="#34a8d9"/>
      <path id="Vector-2" data-name="Vector" d="M2.351,11.971h.013a1.2,1.2,0,0,0,.842-.348L12.937,2A1.2,1.2,0,0,0,11.253.291L2.387,9.058l-.316-.328A1.2,1.2,0,1,0,.335,10.395l.006.006L1.5,11.61A1.2,1.2,0,0,0,2.351,11.971Z" transform="translate(8.76 0.052)" fill="#34a8d9"/>
    </g>
  </g>
</svg>
