<svg xmlns="http://www.w3.org/2000/svg" width="27" height="24" viewBox="0 0 27 24">
  <g id="Pouco_Urgente" data-name="Pouco Urgente" transform="translate(3)">
    <path id="checked_1_Background_Mask_" data-name="checked 1 (Background/Mask)" d="M0,0H24V24H0Z" fill="none"/>
    <path id="Vector" d="M14.308.478A1.952,1.952,0,0,0,12.975,0a1.929,1.929,0,0,0-1.31.528L1.439,10.5l-.2.077-.2-.08L-1.495,7.845a2.127,2.127,0,0,0-1.458-.63,2.163,2.163,0,0,0-1.509.527,1.516,1.516,0,0,0-.2,2.117L.577,16.408A1.649,1.649,0,0,0,1.866,17h.456a2.717,2.717,0,0,0,2.155-1.008L14.642,2.875A1.671,1.671,0,0,0,14.409.568Z" transform="translate(2 2)" fill="#38e25d"/>
  </g>
</svg>
