<svg xmlns="http://www.w3.org/2000/svg" width="25.429" height="24" viewBox="0 0 25.429 24">
  <g id="Urgente" transform="translate(1.429)">
    <path id="checked_1_Background_Mask_" data-name="checked 1 (Background/Mask)" d="M0,0H24V24H0Z" fill="none"/>
    <path id="Vector" d="M7.579,0C1.5,0-3.429,4-3.429,8.944A7.95,7.95,0,0,0-.978,14.566a10.987,10.987,0,0,1-2.356,4.118.344.344,0,0,0-.066.372.344.344,0,0,0,.316.208,9.83,9.83,0,0,0,6.046-2.209,13.1,13.1,0,0,0,4.618.833c6.08,0,11.008-4,11.008-8.944S13.659,0,7.579,0Zm4.128,9.976a.344.344,0,0,1-.344.344H8.955v2.408a.344.344,0,0,1-.344.344H6.547a.344.344,0,0,1-.344-.344V10.32H3.8a.344.344,0,0,1-.344-.344V7.912A.344.344,0,0,1,3.8,7.568H6.2V5.16a.344.344,0,0,1,.344-.344H8.611a.344.344,0,0,1,.344.344V7.568h2.408a.344.344,0,0,1,.344.344Z" transform="translate(2 2)" fill="#ffab2d"/>
  </g>
</svg>
