<svg xmlns="http://www.w3.org/2000/svg" width="75" height="75" viewBox="0 0 75 75">
  <g id="agendamento" transform="translate(1.067 1.444)">
    <path id="invoice_1_Background_Mask_" data-name="invoice 1 (Background/Mask)" d="M0,0H74V74H0Z" transform="translate(-0.067 -0.444)" fill="none"/>
    <path id="Caminho_2227" data-name="Caminho 2227" d="M789.01-627.532c0-5.3-3.761-9.753-8.94-11.365v-3.969c0-15.1-12.031-27.383-26.821-27.383s-26.821,12.283-26.821,27.383v3.45c-6.392.8-11.351,5.8-11.351,11.884,0,6.644,5.882,12.048,13.114,12.048,4.426,0,7.176-4.615,7.176-12.048,0-4.659-1.082-8.209-2.98-10.211v-5.123c0-12.079,9.36-21.906,20.861-21.906s20.861,9.828,20.861,21.906v3.59c-1.412.469-3.045,1.625-4.155,4.4a20.39,20.39,0,0,0-1.231,7.346c0,6.367,2.026,10.641,5.387,11.744v.3c0,5.4-4.279,9.868-9.878,10.764a6.082,6.082,0,0,0-5.023-2.549,5.733,5.733,0,0,0-5.96,5.476,5.733,5.733,0,0,0,5.96,5.476,6.023,6.023,0,0,0,5.218-2.881c8.805-1.017,15.643-7.925,15.643-16.287v-.683C785.249-617.779,789.01-622.236,789.01-627.532Zm-61.078,6.568a6.864,6.864,0,0,1-6.895-6.568,6.865,6.865,0,0,1,6.895-6.567c.57.6,1.475,2.9,1.475,6.567S728.5-621.565,727.932-620.965Zm48.226,0c-.57-.6-1.476-2.9-1.476-6.568s.906-5.966,1.476-6.567a6.865,6.865,0,0,1,6.892,6.567A6.864,6.864,0,0,1,776.158-620.965Z" transform="translate(-716.144 668.805)" fill="#a5a5a5"/>
  </g>
</svg>
