<svg xmlns="http://www.w3.org/2000/svg" width="73.933" height="73.933" viewBox="0 0 73.933 73.933">
  <g id="configuracoes" transform="translate(-5052.181 -1459.896)">
    <path id="Vector" d="M25.875,73.933a4.728,4.728,0,0,1-1.551-.286,36.132,36.132,0,0,1-10.745-6.532,4.794,4.794,0,0,1-1.551-2.61,5.007,5.007,0,0,1,.294-3.065,10.679,10.679,0,0,0,.867-4.706,10.6,10.6,0,0,0-1.278-4.6,9.972,9.972,0,0,0-3.133-3.469A9.343,9.343,0,0,0,4.484,47.1,4.464,4.464,0,0,1,1.83,45.8,4.922,4.922,0,0,1,.469,43.064,39.309,39.309,0,0,1,0,36.946a38.882,38.882,0,0,1,.689-7.287,4.861,4.861,0,0,1,1.392-2.634,4.472,4.472,0,0,1,2.6-1.242,9.353,9.353,0,0,0,4.213-1.5,9.976,9.976,0,0,0,3.12-3.344,10.64,10.64,0,0,0,1.364-4.468,10.739,10.739,0,0,0-.687-4.637,5.094,5.094,0,0,1-.15-3.022,4.9,4.9,0,0,1,1.579-2.522A35.914,35.914,0,0,1,24.225.3,4.329,4.329,0,0,1,27.031.174,4.545,4.545,0,0,1,29.376,1.81,9.793,9.793,0,0,0,32.745,4.69a9.264,9.264,0,0,0,4.22,1.028A9.269,9.269,0,0,0,41.188,4.69,9.822,9.822,0,0,0,44.557,1.81,4.61,4.61,0,0,1,46.9.174,4.336,4.336,0,0,1,49.708.3,35.832,35.832,0,0,1,60.552,6.939a4.787,4.787,0,0,1,1.5,2.463,5.012,5.012,0,0,1-.142,2.923,10.788,10.788,0,0,0-.626,4.5,10.666,10.666,0,0,0,1.285,4.34,10.071,10.071,0,0,0,2.943,3.32A9.416,9.416,0,0,0,69.52,26.12a4.387,4.387,0,0,1,2.492,1.29A4.827,4.827,0,0,1,73.317,30a39.447,39.447,0,0,1,.616,6.947,39.927,39.927,0,0,1-.641,6.586,4.882,4.882,0,0,1-1.323,2.648,4.5,4.5,0,0,1-2.545,1.309,9.352,9.352,0,0,0-4.142,1.6,10.032,10.032,0,0,0-3.032,3.384,10.616,10.616,0,0,0-1.28,4.455,10.74,10.74,0,0,0,.738,4.591,5.039,5.039,0,0,1,.183,2.974,4.818,4.818,0,0,1-1.513,2.519,36.559,36.559,0,0,1-9.855,6.219,4.308,4.308,0,0,1-2.918.163A4.546,4.546,0,0,1,45.2,71.641a9.862,9.862,0,0,0-3.409-3.022,9.289,9.289,0,0,0-4.329-1.09h-.016A9.2,9.2,0,0,0,33,68.683a9.78,9.78,0,0,0-3.43,3.218,4.642,4.642,0,0,1-1.615,1.491A4.378,4.378,0,0,1,25.875,73.933Zm11.09-50a11.8,11.8,0,0,0-6.844,2.2,12.838,12.838,0,0,0-4.54,5.839,13.637,13.637,0,0,0-.7,7.52,13.2,13.2,0,0,0,3.371,6.663,12.082,12.082,0,0,0,6.309,3.56,11.711,11.711,0,0,0,7.12-.739,12.447,12.447,0,0,0,5.528-4.795,13.494,13.494,0,0,0,2.076-7.231,13.313,13.313,0,0,0-3.607-9.2A11.932,11.932,0,0,0,36.965,23.933Z" transform="translate(5052.181 1459.896)" fill="#a5a5a5"/>
  </g>
</svg>
