<svg id="menu_principal" data-name="menu principal" xmlns="http://www.w3.org/2000/svg" width="65.546" height="51.498" viewBox="0 0 65.546 51.498">
  <path id="Path_2197" data-name="Path 2197" d="M1341.168,834.807h47.82a3.694,3.694,0,0,1,0,7.355h-47.82a3.694,3.694,0,0,1,0-7.355Z" transform="translate(-1326.788 -790.664)" fill="#173786"/>
  <path id="Path_2198" data-name="Path 2198" d="M1330.134,812.735h58.854a3.694,3.694,0,0,1,0,7.356h-58.854a3.695,3.695,0,0,1,0-7.356Z" transform="translate(-1326.788 -790.664)" fill="#173786"/>
  <path id="Path_2199" data-name="Path 2199" d="M1341.168,790.664h47.82a3.694,3.694,0,0,1,0,7.356h-47.82a3.694,3.694,0,0,1,0-7.356Z" transform="translate(-1326.788 -790.664)" fill="#173786"/>
</svg>
