<svg xmlns="http://www.w3.org/2000/svg" width="74" height="74" viewBox="0 0 74 74">
  <g id="pacientes" transform="translate(-4608 -1465)">
    <g id="contact_1" data-name="contact 1" transform="translate(4608.074 1465.444)">
      <path id="contact_1_Background_Mask_" data-name="contact 1 (Background/Mask)" d="M0,0H74V74H0Z" transform="translate(-0.074 -0.444)" fill="none"/>
      <path id="Vector" d="M57.617,70.738H11.524a12.014,12.014,0,0,1-8.14-3.116A10.181,10.181,0,0,1,0,60.127V10.611a.3.3,0,0,1,.019-.092.326.326,0,0,0,.019-.085A10.117,10.117,0,0,1,3.455,3.045,11.932,11.932,0,0,1,11.513,0H49.936a11.975,11.975,0,0,1,8.143,3.11,10.142,10.142,0,0,1,3.381,7.5V14.8a11.432,11.432,0,0,1,5.55,3.861,10,10,0,0,1,2.131,6.1V60.127a10.172,10.172,0,0,1-3.384,7.5A12.014,12.014,0,0,1,57.617,70.738ZM34.572,24.758a11.967,11.967,0,0,0-8.149,3.108,10.264,10.264,0,0,0-3.375,7.5,10.03,10.03,0,0,0,2.379,6.366,16.084,16.084,0,0,0-5.275,6.66,14.753,14.753,0,0,0-.948,8.2,3.4,3.4,0,0,0,1.129,2.5,4,4,0,0,0,2.714,1.04H46.1a4,4,0,0,0,2.711-1.04,3.389,3.389,0,0,0,1.129-2.5,14.778,14.778,0,0,0-.948-8.2,16.11,16.11,0,0,0-5.275-6.66A10.033,10.033,0,0,0,46.1,35.369a10.273,10.273,0,0,0-3.375-7.5A11.977,11.977,0,0,0,34.572,24.758ZM11.524,7.075a4.084,4.084,0,0,0-1.505.311,3.79,3.79,0,0,0-1.251.829,3.464,3.464,0,0,0-.8,1.214,3.293,3.293,0,0,0,.184,2.778,3.591,3.591,0,0,0,.951,1.116,3.875,3.875,0,0,0,1.351.682,4.147,4.147,0,0,0,1.143.16c.13,0,.262-.006.392-.018H53.776V10.611a3.378,3.378,0,0,0-1.126-2.5,3.987,3.987,0,0,0-2.714-1.037Z" transform="translate(2.396 1.597)" fill="#a5a5a5"/>
    </g>
  </g>
</svg>
