<svg id="usuarios" xmlns="http://www.w3.org/2000/svg" width="74.55" height="54.218" viewBox="0 0 74.55 54.218">
  <path id="Vector" d="M54.448,31.728a3.389,3.389,0,0,1-2.4.992H11.389A3.389,3.389,0,0,1,8,29.332,20.332,20.332,0,0,1,28.332,9h6.777A20.332,20.332,0,0,1,55.441,29.332,3.389,3.389,0,0,1,54.448,31.728Z" transform="translate(19.109 21.498)" fill="#a5a5a5"/>
  <path id="Vector-2" data-name="Vector" d="M17.024,2.284A13.554,13.554,0,1,0,24.554,0,13.554,13.554,0,0,0,17.024,2.284Z" transform="translate(26.275 0)" fill="#a5a5a5"/>
  <path id="Vector-3" data-name="Vector" d="M8.024,2.284A13.554,13.554,0,1,0,15.554,0h0A13.554,13.554,0,0,0,8.024,2.284Z" transform="translate(4.777 0)" fill="#a5a5a5"/>
  <path id="Vector-4" data-name="Vector" d="M22.395,18.961a26.906,26.906,0,0,1,5.9-8.775A18.4,18.4,0,0,0,21.823,9H18.841A18.875,18.875,0,0,0,0,27.841v1.491A3.389,3.389,0,0,0,3.389,32.72H20.942a10.166,10.166,0,0,1-.61-3.389h0A26.906,26.906,0,0,1,22.395,18.961Z" transform="translate(0 21.498)" fill="#a5a5a5"/>
</svg>
