<svg xmlns="http://www.w3.org/2000/svg" width="39.357" height="30.34" viewBox="0 0 39.357 30.34">
  <path id="Liver" d="M195.83,411.685a14.515,14.515,0,0,0-9.342-4.024c-5.337,0-12.009,2.683-13.344,10.73-.821,4.951,1.99,10.219,4.545,13.609a3.466,3.466,0,0,0,4.806.6l10.27-7.225a1.294,1.294,0,0,0,.511-.747l.974-3.914a1.3,1.3,0,0,1,1.257-.981H199.5a1.3,1.3,0,0,0,.632-.164l7.24-4.044a3.5,3.5,0,0,0,.629-5.873c-4.028-2.916-10.459-5.632-18.839-1.656" transform="translate(-171.484 -404.46)" fill="none" stroke="#8a2ce6" stroke-width="3"/>
</svg>
