<svg xmlns="http://www.w3.org/2000/svg" width="29.241" height="39.253" viewBox="0 0 29.241 39.253">
  <g id="Cardiologist" transform="translate(1.502 1.5)">
    <path id="Line_01" d="M310.125,406.845h2.2a1.923,1.923,0,0,0,0-3.845h-6.586a2.589,2.589,0,0,0-2.589,2.589v3.61a3.132,3.132,0,0,1-2.569,2.876c-7.587,1.806-8.216,11.745-5.2,17.291a17.92,17.92,0,0,0,16.647,9.887c5.327,0,6.659-3.3,6.659-4.943V421.127c0-6.427-4.885-8.455-8.7-9.087a2.775,2.775,0,0,1-2.4-2.662A2.532,2.532,0,0,1,310.125,406.845Z" transform="translate(-292.45 -403)" fill="none" stroke="#8a2ce6" stroke-width="3"/>
    <path id="Line_02" d="M295.113,417.094a5.936,5.936,0,0,1-.618-3.769c.306-1.686.594-4.085-.552-5.36l-.658-.733a2.155,2.155,0,0,1,.233-3.1h0a2.155,2.155,0,0,1,2.975.223l1.745,1.942a3.258,3.258,0,0,0,3.141.757,3.941,3.941,0,0,1,2.056.157" transform="translate(-292.734 -402.813)" fill="none" stroke="#8a2ce6" stroke-width="3"/>
    <path id="Line_03" d="M310.441,426.664c-2.775-1.282-8.878-5.6-11.1-12.634-.555,3.3-.555,10.876,3.884,14.831" transform="translate(-290.86 -399.749)" fill="none" stroke="#8a2ce6" stroke-linecap="round" stroke-linejoin="round" stroke-width="3"/>
    <path id="Line_04" d="M301.429,418.273c1.664,2.746,6.659,3.3,9.432,2.746" transform="translate(-290.171 -398.498)" fill="none" stroke="#8a2ce6" stroke-linecap="round" stroke-linejoin="round" stroke-width="3"/>
  </g>
</svg>
