<svg id="inicio" xmlns="http://www.w3.org/2000/svg" width="86.988" height="73.933" viewBox="0 0 86.988 73.933">
  <path id="Vector" d="M47.717,73.933c-5.678,0-8.2-.011-17.585-.05L14.2,73.817a4.351,4.351,0,0,1-3.238-1.463,43.493,43.493,0,1,1,64.959.117,4.338,4.338,0,0,1-3.238,1.449c-7.266,0-12.535.006-16.564.008ZM43.43,30.443c-.357,0-.719.015-1.075.044a13.1,13.1,0,1,0,14.185,13,12.971,12.971,0,0,0-.684-3.972l7.6-5.566a4.352,4.352,0,0,0-1.929-7.76,4.4,4.4,0,0,0-.7-.056,4.342,4.342,0,0,0-2.515.8l-7.71,5.646A13.065,13.065,0,0,0,43.43,30.443Z" transform="translate(0)" fill="#a5a5a5"/>
  <path id="Vector-2" data-name="Vector" d="M4.349,8.7A4.349,4.349,0,1,1,8.7,4.349,4.349,4.349,0,0,1,4.349,8.7Z" transform="translate(39.143 35.142)" fill="#a5a5a5"/>
</svg>
