<svg xmlns="http://www.w3.org/2000/svg" width="73.933" height="73.933" viewBox="0 0 73.933 73.933">
  <g id="monitoramento" transform="translate(-4420.846 -1459.896)">
    <path id="Icon_awesome-hospital-symbol" data-name="Icon awesome-hospital-symbol" d="M36.966,0A36.966,36.966,0,1,0,73.933,36.966,36.964,36.964,0,0,0,36.966,0ZM53.139,54.294a1.159,1.159,0,0,1-1.155,1.155H45.053A1.159,1.159,0,0,1,43.9,54.294V41.587H30.035V54.294A1.159,1.159,0,0,1,28.88,55.45H21.949a1.159,1.159,0,0,1-1.155-1.155V19.638a1.159,1.159,0,0,1,1.155-1.155H28.88a1.159,1.159,0,0,1,1.155,1.155V32.346H43.9V19.638a1.159,1.159,0,0,1,1.155-1.155h6.931a1.159,1.159,0,0,1,1.155,1.155Z" transform="translate(4420.846 1459.896)" fill="#a5a5a5"/>
  </g>
</svg>
