<svg xmlns="http://www.w3.org/2000/svg" xmlns:xlink="http://www.w3.org/1999/xlink" width="200" height="167.7" viewBox="0 0 200 167.7">
  <defs>
    <linearGradient id="linear-gradient" x1="0.5" x2="0.5" y2="1" gradientUnits="objectBoundingBox">
      <stop offset="0" stop-color="#8a2ce6"/>
      <stop offset="0.494" stop-color="#4f01c4"/>
      <stop offset="1" stop-color="#4159d0"/>
    </linearGradient>
  </defs>
  <g id="n達o_sente_cheiro" data-name="n達o sente cheiro" transform="translate(-14.366 -13.046)">
    <g id="n達o_sente_cheiro-2" data-name="n達o sente cheiro" transform="translate(14.37 13.047)">
      <path id="Caminho_1" data-name="Caminho 1" d="M816.977,171.822a54.187,54.187,0,0,0,33.1-11.288,24.108,24.108,0,0,0,15.351,1.59l9.478,12.037a31.726,31.726,0,0,0,47.911-.185l9.325-11.852a24.477,24.477,0,0,0,24.665-8.608,24.972,24.972,0,0,0-12.39-39.775c-8.57-2.462-14.627-9.336-15.445-17.511l-7.486-74.845a4.545,4.545,0,0,0-4.523-4.091H880.606a4.545,4.545,0,0,0-4.523,4.092L868.6,96.231a19.1,19.1,0,0,1-.443,2.386,54.512,54.512,0,1,0-51.179,73.2Zm60.668-74.687,7.075-70.748h28.134l7.075,70.748c1.189,11.9,9.814,21.846,22.2,25.41a15.878,15.878,0,1,1-10.1,30.082,4.532,4.532,0,0,0-5.124,1.461l-11.073,14.085a22.651,22.651,0,0,1-33.925.185l-11.226-14.271a4.54,4.54,0,0,0-5.124-1.461,15.691,15.691,0,0,1-7.843.805,54.258,54.258,0,0,0,13.811-36.148c0-1.7-.1-3.382-.257-5.045a28.107,28.107,0,0,0,6.384-15.1Zm-60.668-25.3a45.481,45.481,0,0,1,44.964,39.172c0,.018.007.033.007.051a45.422,45.422,0,1,1-44.972-39.221Z" transform="translate(-762.437 -17.294)" fill="url(#linear-gradient)"/>
      <path id="Caminho_2" data-name="Caminho 2" d="M819.3,68.682c-1.331,3.628-4.426,5.566-6.828,8.04-6.129,6.318-6.178,6.258.012,12.467,1.893,1.893,3.825,3.766,5.61,5.764,1.41,1.578,1.594,3.334-.074,4.935-1.679,1.618-3.394,1.277-4.915-.181-2.828-2.714-5.729-5.381-8.3-8.32-2.432-2.78-4.352-3.17-6.915-.123-2.38,2.831-5.227,5.267-7.831,7.917-1.618,1.646-3.388,2.569-5.39.823-2.317-2.022-1.338-4.067.406-5.858,2.875-2.958,5.746-5.931,8.78-8.72,1.968-1.811,2.075-3.149,0-4.97a86.161,86.161,0,0,1-7-7c-1.8-1.987-5.465-4.007-2.42-7.058,3.223-3.23,5.456.371,7.627,2.374a41.662,41.662,0,0,1,5.221,5.269c2.974,3.948,5.372,3.219,8.21-.206a90.179,90.179,0,0,1,7.464-7.4,3.674,3.674,0,0,1,4.542-.716,4.011,4.011,0,0,1,1.811,2.964Z" transform="translate(-746.74 18.743)" fill="url(#linear-gradient)"/>
    </g>
  </g>
</svg>
