<svg xmlns="http://www.w3.org/2000/svg" xmlns:xlink="http://www.w3.org/1999/xlink" width="163.639" height="200" viewBox="0 0 163.639 200">
  <defs>
    <linearGradient id="linear-gradient" x1="0.5" x2="0.5" y2="1" gradientUnits="objectBoundingBox">
      <stop offset="0" stop-color="#8a2ce6"/>
      <stop offset="0.527" stop-color="#4f01c4"/>
      <stop offset="1" stop-color="#4159d0"/>
    </linearGradient>
  </defs>
  <g id="Insônia" transform="translate(0.002 -0.001)">
    <path id="Caminho_36" data-name="Caminho 36" d="M1184-112.993a52.332,52.332,0,0,0-52.273-52.273,52.332,52.332,0,0,0-52.271,52.273,52.244,52.244,0,0,0,22.864,43.181h-2.41a50.056,50.056,0,0,0-50,50V12.006a22.754,22.754,0,0,0,22.726,22.728h118.185a22.755,22.755,0,0,0,22.728-22.728V-19.812a50.058,50.058,0,0,0-50-50h-2.412A52.246,52.246,0,0,0,1184-112.993Zm-20.453,52.273a40.954,40.954,0,0,1,40.908,40.91V12.006a13.65,13.65,0,0,1-13.633,13.636h-13.636v-50a4.547,4.547,0,0,0-4.547-4.547,4.547,4.547,0,0,0-4.547,4.547V3.056a22.638,22.638,0,0,0-18.182-9.231h-54.543V-24.357a4.547,4.547,0,0,0-4.547-4.547,4.547,4.547,0,0,0-4.547,4.547V-1.63a4.548,4.548,0,0,0,4.547,4.547h59.091a13.651,13.651,0,0,1,13.642,13.636v9.095H1072.64A13.651,13.651,0,0,1,1059,12.012V-19.812a40.956,40.956,0,0,1,40.91-40.91Zm-31.819-9.095A43.23,43.23,0,0,1,1088.547-113a43.231,43.231,0,0,1,43.182-43.181A43.232,43.232,0,0,1,1174.912-113a43.231,43.231,0,0,1-43.186,43.183Z" transform="translate(-1049.913 165.267)" fill="url(#linear-gradient)"/>
    <circle id="Elipse_1" data-name="Elipse 1" cx="13.026" cy="13.026" r="13.026" transform="translate(47.263 39.247)" fill="url(#linear-gradient)"/>
    <circle id="Elipse_2" data-name="Elipse 2" cx="13.026" cy="13.026" r="13.026" transform="translate(90.583 39.247)" fill="url(#linear-gradient)"/>
  </g>
</svg>
