<svg xmlns="http://www.w3.org/2000/svg" xmlns:xlink="http://www.w3.org/1999/xlink" width="199.992" height="200" viewBox="0 0 199.992 200">
  <defs>
    <linearGradient id="linear-gradient" x1="0.5" x2="0.5" y2="1" gradientUnits="objectBoundingBox">
      <stop offset="0" stop-color="#8a2ce6"/>
      <stop offset="0.535" stop-color="#4f01c4"/>
      <stop offset="1" stop-color="#4159d0"/>
    </linearGradient>
  </defs>
  <g id="dor_no_corpo" data-name="dor no corpo" transform="translate(-20.513 -17.534)">
    <g id="dor_no_corpo-2" data-name="dor no corpo" transform="translate(20.511 17.538)">
      <path id="Caminho_37" data-name="Caminho 37" d="M1415.691-129.451a4.549,4.549,0,0,0-2.873-5.752l-4.82-1.607,5.9-3.936a4.54,4.54,0,0,0,1.937-2.89,4.541,4.541,0,0,0-.676-3.413,4.532,4.532,0,0,0-2.889-1.941,4.532,4.532,0,0,0-3.413.681l-13.635,9.09a4.548,4.548,0,0,0-1.986,4.385,4.543,4.543,0,0,0,3.067,3.709l13.638,4.546a4.511,4.511,0,0,0,1.438.236,4.548,4.548,0,0,0,4.309-3.109Z" transform="translate(-1284.111 189.98)" fill="url(#linear-gradient)"/>
      <path id="Caminho_38" data-name="Caminho 38" d="M1390.162-139.217l-13.635-9.09a4.529,4.529,0,0,0-3.414-.682,4.529,4.529,0,0,0-2.889,1.942,4.541,4.541,0,0,0-.677,3.413,4.541,4.541,0,0,0,1.937,2.89l5.9,3.936-4.82,1.607a4.548,4.548,0,0,0-2.873,5.752,4.546,4.546,0,0,0,4.309,3.11,4.508,4.508,0,0,0,1.438-.236l13.638-4.546a4.545,4.545,0,0,0,3.067-3.709,4.547,4.547,0,0,0-1.986-4.386Z" transform="translate(-1301.278 189.98)" fill="url(#linear-gradient)"/>
      <path id="Caminho_39" data-name="Caminho 39" d="M1423.125-102.068a4.541,4.541,0,0,0,3.64,1.818,4.5,4.5,0,0,0,2.721-.913l18.182-13.636a4.541,4.541,0,0,0,1.762-4.361,4.549,4.549,0,0,0-3.043-3.584l-5.408-1.8,11.24-8.431a4.54,4.54,0,0,0,1.777-2.992,4.539,4.539,0,0,0-.864-3.371,4.534,4.534,0,0,0-2.992-1.774,4.534,4.534,0,0,0-3.368.867l-18.182,13.636a4.542,4.542,0,0,0-1.762,4.361,4.546,4.546,0,0,0,3.048,3.582l5.408,1.8-11.24,8.431a4.541,4.541,0,0,0-1.781,2.993,4.541,4.541,0,0,0,.862,3.374Z" transform="translate(-1263.127 195.704)" fill="url(#linear-gradient)"/>
      <path id="Caminho_40" data-name="Caminho 40" d="M1457.163-119.587a4.527,4.527,0,0,0-2.276-2.633,4.528,4.528,0,0,0-3.472-.24l-13.635,4.544a4.551,4.551,0,0,0-2.987,3.268,4.551,4.551,0,0,0,1.211,4.26l3.889,3.891-6.658,2.219a4.545,4.545,0,0,0-2.871,5.75,4.542,4.542,0,0,0,4.31,3.11,4.518,4.518,0,0,0,1.438-.236l13.635-4.544a4.551,4.551,0,0,0,2.987-3.267,4.553,4.553,0,0,0-1.211-4.26l-3.889-3.892,6.66-2.219a4.545,4.545,0,0,0,2.87-5.75Z" transform="translate(-1257.404 209.056)" fill="url(#linear-gradient)"/>
      <path id="Caminho_41" data-name="Caminho 41" d="M1362.382-122.25a4.541,4.541,0,0,0-1.762-4.361l-18.182-13.636a4.544,4.544,0,0,0-6.361.907,4.542,4.542,0,0,0-.863,3.371,4.542,4.542,0,0,0,1.776,2.992l11.24,8.431-5.407,1.8a4.55,4.55,0,0,0-3.048,3.584,4.541,4.541,0,0,0,1.762,4.361l18.182,13.636a4.5,4.5,0,0,0,2.721.913,4.536,4.536,0,0,0,3.639-1.818,4.54,4.54,0,0,0,.864-3.371,4.539,4.539,0,0,0-1.777-2.992l-11.24-8.431,5.406-1.8a4.547,4.547,0,0,0,3.05-3.585Z" transform="translate(-1326.076 195.705)" fill="url(#linear-gradient)"/>
      <path id="Caminho_42" data-name="Caminho 42" d="M1330.128-119.587a4.545,4.545,0,0,0,2.871,5.75l6.658,2.219-3.891,3.894a4.553,4.553,0,0,0-1.211,4.26,4.551,4.551,0,0,0,2.987,3.267l13.635,4.544a4.516,4.516,0,0,0,1.438.236,4.543,4.543,0,0,0,4.311-3.11,4.545,4.545,0,0,0-2.872-5.75L1347.4-106.5l3.889-3.891a4.555,4.555,0,0,0,1.211-4.26,4.55,4.55,0,0,0-2.987-3.268l-13.635-4.544a4.53,4.53,0,0,0-3.472.239,4.53,4.53,0,0,0-2.277,2.632Z" transform="translate(-1329.891 209.056)" fill="url(#linear-gradient)"/>
      <path id="Caminho_43" data-name="Caminho 43" d="M1340.443-27.361V4.456a22.754,22.754,0,0,0,22.73,22.726h118.181a22.755,22.755,0,0,0,22.727-22.727V-27.362a50.058,50.058,0,0,0-50-50h-2.41a52.249,52.249,0,0,0,22.865-43.181,52.336,52.336,0,0,0-52.272-52.272,52.335,52.335,0,0,0-52.272,52.272,52.248,52.248,0,0,0,22.865,43.181h-2.41A50.056,50.056,0,0,0,1340.443-27.361Zm38.637-93.179a43.23,43.23,0,0,1,43.181-43.183,43.23,43.23,0,0,1,43.181,43.183,43.229,43.229,0,0,1-43.181,43.181,43.229,43.229,0,0,1-43.185-43.182Zm75,52.27a40.955,40.955,0,0,1,40.909,40.909V4.456a13.652,13.652,0,0,1-13.635,13.638h-13.636v-50a4.545,4.545,0,0,0-4.545-4.544,4.543,4.543,0,0,0-3.215,1.33,4.543,4.543,0,0,0-1.332,3.214v50H1385.9v-50a4.544,4.544,0,0,0-4.546-4.544,4.544,4.544,0,0,0-4.546,4.544v50h-13.635a13.652,13.652,0,0,1-13.636-13.638V-27.361a40.955,40.955,0,0,1,40.909-40.909Z" transform="translate(-1322.262 172.814)" fill="url(#linear-gradient)"/>
    </g>
  </g>
</svg>
