<svg xmlns="http://www.w3.org/2000/svg" width="178.526" height="196.379" viewBox="0 0 178.526 196.379">
  <g id="chiado_no_peito" data-name="chiado no peito" transform="translate(-17.15 -15.252)">
    <g id="Chiado_no_peito-2" data-name="Chiado no peito" transform="translate(17.15 15.252)">
      <path id="Caminho_5" data-name="Caminho 5" d="M835.817-127.092l13.389,4.464a4.435,4.435,0,0,0,1.412.232,4.463,4.463,0,0,0,4.232-3.053,4.465,4.465,0,0,0-2.82-5.648l-4.733-1.577,5.8-3.865a4.458,4.458,0,0,0,1.237-6.188,4.457,4.457,0,0,0-6.188-1.237l-13.391,8.925a4.468,4.468,0,0,0-1.948,4.306A4.463,4.463,0,0,0,835.817-127.092Z" transform="translate(-725.65 184.884)" fill="#040505"/>
      <path id="Caminho_6" data-name="Caminho 6" d="M831.636-130.734a4.464,4.464,0,0,0-1.948-4.306L816.3-143.965a4.457,4.457,0,0,0-6.19,1.237,4.459,4.459,0,0,0,1.239,6.188l5.8,3.865-4.733,1.577a4.467,4.467,0,0,0-2.82,5.648,4.464,4.464,0,0,0,4.232,3.053,4.426,4.426,0,0,0,1.412-.232l13.389-4.464A4.46,4.46,0,0,0,831.636-130.734Z" transform="translate(-742.412 184.884)" fill="#040505"/>
      <path id="Caminho_7" data-name="Caminho 7" d="M770.348-56.544A44.544,44.544,0,0,0,788.2-20.924V5.94a22.343,22.343,0,0,0,22.316,22.316H926.56A22.342,22.342,0,0,0,948.874,5.94V-25.3A49.149,49.149,0,0,0,899.78-74.4h-2.366a51.3,51.3,0,0,0,22.45-42.4,51.383,51.383,0,0,0-51.325-51.327A51.385,51.385,0,0,0,817.212-116.8a51.422,51.422,0,0,0,2.622,15.9,44.894,44.894,0,0,0-4.853-.276A44.684,44.684,0,0,0,770.348-56.544Zm8.927,0a35.746,35.746,0,0,1,35.705-35.705,35.573,35.573,0,0,1,9.943,1.436,4.376,4.376,0,0,0,2.016.668A35.844,35.844,0,0,1,847.3-71.625a4.367,4.367,0,0,0,.288.6,35.443,35.443,0,0,1,3.1,14.482,35.747,35.747,0,0,1-35.705,35.705A35.746,35.746,0,0,1,779.275-56.544ZM797.128,5.94v-21.6a44.342,44.342,0,0,0,17.853,3.751,44.6,44.6,0,0,0,8.925-.9V19.331H810.517A13.4,13.4,0,0,1,797.128,5.94ZM899.78-65.471A40.215,40.215,0,0,1,939.949-25.3V5.94A13.4,13.4,0,0,1,926.56,19.331H913.169v-49.1a4.461,4.461,0,0,0-4.462-4.462,4.461,4.461,0,0,0-4.464,4.462v49.1h-71.41V-15.664a44.682,44.682,0,0,0,26.778-40.879,44.63,44.63,0,0,0-.9-8.927ZM826.139-116.8a42.448,42.448,0,0,1,42.4-42.4,42.449,42.449,0,0,1,42.4,42.4,42.449,42.449,0,0,1-42.4,42.4,42.279,42.279,0,0,1-13.811-2.346,44.816,44.816,0,0,0-24.3-21.619A42.421,42.421,0,0,1,826.139-116.8Z" transform="translate(-770.348 168.123)" fill="#040505"/>
      <path id="Caminho_8" data-name="Caminho 8" d="M790.8-77.779,787.3-74.287a4.462,4.462,0,0,0,0,6.312,4.448,4.448,0,0,0,3.156,1.308,4.447,4.447,0,0,0,3.154-1.308l3.494-3.494A22.163,22.163,0,0,0,804.93-68.2v4.913a4.462,4.462,0,0,0,4.464,4.464,4.462,4.462,0,0,0,4.462-4.464V-68.2a22.186,22.186,0,0,0,7.824-3.267l3.492,3.494a4.448,4.448,0,0,0,3.156,1.308,4.446,4.446,0,0,0,3.154-1.308,4.462,4.462,0,0,0,0-6.312l-3.49-3.492a22.155,22.155,0,0,0,3.266-7.824h4.915a4.462,4.462,0,0,0,4.464-4.464,4.462,4.462,0,0,0-4.464-4.464h-4.915a22.156,22.156,0,0,0-3.266-7.824l3.49-3.492a4.462,4.462,0,0,0,0-6.312,4.46,4.46,0,0,0-6.31,0l-3.492,3.492a22.184,22.184,0,0,0-7.824-3.266v-4.915a4.462,4.462,0,0,0-4.462-4.464,4.462,4.462,0,0,0-4.464,4.464v4.915a22.161,22.161,0,0,0-7.822,3.266l-3.494-3.492a4.46,4.46,0,0,0-6.31,0,4.462,4.462,0,0,0,0,6.312l3.492,3.492a22.157,22.157,0,0,0-3.267,7.824h-4.915a4.463,4.463,0,0,0-4.463,4.464,4.463,4.463,0,0,0,4.463,4.464h4.915A22.157,22.157,0,0,0,790.8-77.779Zm9.13-17.291a4.447,4.447,0,0,0,3.156-1.308,4.4,4.4,0,0,0,.432-5.66,13.24,13.24,0,0,1,5.879-1.418,13.233,13.233,0,0,1,5.878,1.418,4.4,4.4,0,0,0,.432,5.66,4.45,4.45,0,0,0,3.156,1.308,4.419,4.419,0,0,0,2.5-.875,13.218,13.218,0,0,1,1.419,5.879,13.211,13.211,0,0,1-1.419,5.878,4.4,4.4,0,0,0-5.66.434,4.4,4.4,0,0,0-.432,5.658,13.217,13.217,0,0,1-5.878,1.419,13.218,13.218,0,0,1-5.879-1.419,4.4,4.4,0,0,0-.432-5.658,4.4,4.4,0,0,0-5.66-.434A13.233,13.233,0,0,1,796-90.067a13.241,13.241,0,0,1,1.419-5.879A4.423,4.423,0,0,0,799.926-95.071Z" transform="translate(-764.761 201.646)" fill="#040505"/>
    </g>
  </g>
</svg>
