<svg xmlns="http://www.w3.org/2000/svg" xmlns:xlink="http://www.w3.org/1999/xlink" width="177.235" height="200" viewBox="0 0 177.235 200">
  <defs>
    <linearGradient id="linear-gradient" x1="0.5" x2="0.5" y2="1" gradientUnits="objectBoundingBox">
      <stop offset="0" stop-color="#8a2ce6"/>
      <stop offset="0.515" stop-color="#4f01c4"/>
      <stop offset="1" stop-color="#4159d0"/>
    </linearGradient>
  </defs>
  <g id="Diarréia" transform="translate(-0.003 -0.004)">
    <path id="Caminho_65" data-name="Caminho 65" d="M1495.63,167.956c-15.053-3.127-23.409-12.047-26.405-26.457-2.357,0-4.48.023-6.6,0-7.7-.093-12.3-4.543-12.343-12.284-.089-14.666-.026-29.332-.026-44V51.6c-1.174-.161-2.148-.324-3.132-.426-3.018-.3-4.41-1.984-4.386-4.985.031-3.935-.046-7.871.015-11.8.073-4.738.933-5.662,5.643-5.678,13.772-.052,27.543-.021,41.315-.021h6.146c.662-1.013,1.254-2.084,2-3.032a11.315,11.315,0,0,1,12.421-4.11c4.774,1.486,7.649,5.473,7.669,11,.057,12.7.021,25.4.021,38.1v48.035h11.341c-3.665-5.253-3.3-11.005-3.293-16.717q.041-21.464.01-42.925c0-12.236,1.784-15.541,12.149-22.175-6.146-6.507-9.523-14.149-8.317-23.167a25.84,25.84,0,0,1,9.457-16.9,26.354,26.354,0,0,1,35.147,1.62c10.6,10.447,10.415,24.667-.613,38.6,1.215.756,2.423,1.473,3.6,2.234,5.741,3.693,8.418,9.052,8.485,15.782.049,4.8.01,9.6.01,14.759a44.41,44.41,0,0,0,4.5.509c8.049.044,16.094-.028,24.146.044,4.717.042,5.266.6,5.322,5.236.072,6.259.059,12.519.005,18.778-.042,4.979-.523,5.4-5.582,5.587-1.55.057-3.1.161-5.457.286,3.941,5.628,3.537,11.519,3.528,17.375-.039,22.178-.005,44.357-.023,66.534-.005,6.059-.64,6.658-6.816,6.678-5.725.018-11.449.052-17.174-.011-4.9-.055-5.99-1.1-6.014-6.016-.059-12.153-.018-24.3-.018-37.712-9.635,11.4-20.9,17.577-35.825,17.044,1.779,4.314,3.3,8.062,4.87,11.787,1.247,2.953,2.749,5.813,3.8,8.831,1.327,3.805-.135,6.009-4.162,6.033q-25.219.156-50.441.01c-3.8-.018-4.868-1.246-4.958-5.388C1495.532,179.689,1495.63,173.985,1495.63,167.956Zm116.694-90.7h-5.508c-7.514,0-15.029.052-22.543-.023-4.781-.046-5.264-.54-5.326-5.21-.071-5.366.124-10.738-.058-16.1-.267-7.784-4.841-12.205-12.529-12.279-6.619-.067-13.267.359-19.852-.108-8.805-.619-13.625,6.133-13.536,13.629q.288,24.151,0,48.3c-.089,7.786,4.907,14.015,13.5,13.7,12.151-.446,24.329-.133,36.495-.1,6.187.015,6.8.642,6.813,6.745q.028,25.765.007,51.526v5.629h15.183c0-24.321.073-48.281-.059-72.23-.029-5.258-3.467-8.992-8.65-10.153a30.251,30.251,0,0,0-6.373-.621c-8.945-.067-17.892-.008-26.837-.036-6.424-.021-6.757-.343-6.772-6.567q-.036-15.026.005-30.057c0-1.374.184-2.746.28-4.086h7.013V92.571h48.729Zm-30.307,49.531H1457.988c-.309,6.67.242,7.353,6.252,7.392,8.941.057,17.885-.119,26.822.063,7.581.151,11.773,4.616,11.826,12.185.044,5.9.01,11.8.01,17.7v18.9h43.5c-2.87-6.821-5.608-13.177-8.221-19.588-1.844-4.527-.688-6.2,4.245-6.438,3.389-.166,6.8-.157,10.167-.486,15.166-1.484,27.619-13.978,29.423-29.733ZM1458.054,51.482v67.271h37.291V51.482Zm109.939-20.229-7.852-3.384V20.308c4.7,1.769,8.72,3.286,12.712,4.79,5.2-9.335-.255-20.27-7.129-24.2-7.993-4.572-18.629-2.866-24.286,4.123a18.859,18.859,0,0,0,1.061,25.351c7.082,7.124,16.609,7.751,25.5.883Zm-57.765,87.6a5.773,5.773,0,0,0,.374-1.041q.091-42.124.153-84.259c0-2.468-.54-4.746-3.667-4.937-2.52-.153-3.949,1.62-4.182,5.083-.036.535-.01,1.073-.01,1.608q0,39.721.017,79.443c0,1.357.243,2.716.377,4.1Zm-15-75.283V36.411h-44.66V43.57Zm-18.114,97.945c2.681,11.1,9.961,17.979,18.5,17.863,0-4.249.108-8.514-.034-12.771-.124-3.637-1.309-4.918-4.783-5.049-4.437-.167-8.876-.038-13.683-.038Z" transform="translate(-1442.721 9.151)" fill="url(#linear-gradient)"/>
  </g>
</svg>
