<svg xmlns="http://www.w3.org/2000/svg" width="164.093" height="185.161" viewBox="0 0 164.093 185.161">
  <g id="Diarréia" transform="translate(-2.087 -8.355)">
    <g id="Diarréia-2" data-name="Diarréia" transform="translate(2.087 8.355)">
      <path id="Caminho_65" data-name="Caminho 65" d="M1384.706,155.5c-13.937-2.895-21.673-11.154-24.447-24.495-2.182,0-4.148.021-6.113,0-7.133-.086-11.385-4.206-11.428-11.373-.082-13.578-.024-27.157-.024-40.735V47.774c-1.087-.149-1.989-.3-2.9-.394-2.794-.281-4.083-1.837-4.061-4.615.029-3.643-.043-7.287.014-10.928.068-4.387.864-5.242,5.224-5.257,12.751-.048,25.5-.019,38.251-.019h5.69c.613-.938,1.161-1.929,1.854-2.807a10.476,10.476,0,0,1,11.5-3.805c4.42,1.376,7.082,5.067,7.1,10.184.053,11.757.019,23.514.019,35.271v44.473h10.5c-3.393-4.863-3.057-10.189-3.049-15.477q.038-19.872.009-39.742c0-11.329,1.652-14.388,11.248-20.53-5.69-6.024-8.817-13.1-7.7-21.449a23.923,23.923,0,0,1,8.756-15.646,24.4,24.4,0,0,1,32.54,1.5c9.811,9.672,9.643,22.838-.567,35.736,1.125.7,2.243,1.364,3.337,2.068,5.315,3.419,7.794,8.381,7.856,14.612.045,4.444.009,8.89.009,13.664a41.118,41.118,0,0,0,4.163.471c7.452.041,14.9-.026,22.355.041,4.367.039,4.875.555,4.927,4.848.067,5.795.055,11.591.005,17.385-.039,4.61-.484,5-5.168,5.173-1.435.053-2.867.149-5.052.265,3.649,5.211,3.275,10.665,3.266,16.086-.036,20.533-.005,41.067-.021,61.6-.005,5.61-.592,6.164-6.31,6.183-5.3.017-10.6.048-15.9-.01-4.54-.051-5.546-1.019-5.568-5.57-.055-11.252-.017-22.5-.017-34.915-8.92,10.55-19.35,16.273-33.168,15.78,1.647,3.994,3.052,7.464,4.509,10.913,1.155,2.734,2.545,5.382,3.519,8.176,1.229,3.523-.125,5.563-3.853,5.586q-23.349.144-46.7.009c-3.52-.017-4.507-1.154-4.59-4.988C1384.62,166.363,1384.706,161.082,1384.706,155.5ZM1492.75,71.529h-5.1c-6.957,0-13.914.048-20.871-.021-4.426-.043-4.874-.5-4.931-4.824-.066-4.968.115-9.942-.054-14.907-.247-7.207-4.482-11.3-11.6-11.368-6.128-.062-12.283.332-18.38-.1-8.152-.573-12.615,5.678-12.532,12.618q.267,22.36,0,44.722c-.082,7.209,4.543,12.976,12.5,12.683,11.25-.413,22.525-.123,33.788-.094,5.728.014,6.3.594,6.308,6.245q.026,23.854.007,47.705V169.4h14.057c0-22.517.068-44.7-.055-66.873-.027-4.868-3.21-8.325-8.008-9.4a28.007,28.007,0,0,0-5.9-.575c-8.282-.062-16.565-.007-24.847-.033-5.948-.019-6.256-.318-6.27-6.08q-.033-13.912.005-27.828c0-1.272.17-2.542.259-3.783h6.493V85.706h45.115Zm-28.059,45.858H1349.858c-.286,6.175.224,6.808,5.788,6.844,8.278.053,16.559-.11,24.833.058,7.019.14,10.9,4.274,10.949,11.281.041,5.464.009,10.927.009,16.391v17.5h40.278c-2.657-6.315-5.192-12.2-7.611-18.135-1.707-4.191-.637-5.74,3.93-5.961,3.138-.154,6.291-.145,9.413-.45C1451.49,143.541,1463.019,131.974,1464.692,117.387Zm-114.77-69.723v62.282h34.525V47.664Zm101.786-18.729-7.27-3.133v-7c4.35,1.638,8.073,3.042,11.769,4.435,4.81-8.643-.236-18.767-6.6-22.408-7.4-4.233-17.247-2.653-22.485,3.817a17.46,17.46,0,0,0,.982,23.471C1434.661,34.713,1443.479,35.293,1451.707,28.935Zm-53.481,81.1a5.332,5.332,0,0,0,.346-.964q.084-39,.142-78.01c0-2.285-.5-4.394-3.395-4.571-2.333-.142-3.656,1.5-3.872,4.706-.033.495-.009.993-.009,1.489q0,36.775.016,73.551c0,1.256.225,2.515.349,3.8Zm-13.892-69.7V33.711h-41.348v6.628Zm-16.771,90.681c2.482,10.274,9.222,16.646,17.124,16.538,0-3.934.1-7.883-.031-11.824-.115-3.367-1.212-4.553-4.428-4.675C1376.124,130.9,1372.011,131.02,1367.564,131.02Z" transform="translate(-1335.725 8.472)"/>
    </g>
  </g>
</svg>
