<svg xmlns="http://www.w3.org/2000/svg" width="197.187" height="197.187" viewBox="0 0 197.187 197.187">
  <g id="dor_no_corpo" data-name="dor no corpo" transform="translate(-20.223 -17.292)">
    <g id="dor_no_corpo-2" data-name="dor no corpo" transform="translate(20.223 17.292)">
      <path id="Caminho_37" data-name="Caminho 37" d="M1395.8-127.632a4.485,4.485,0,0,0-2.833-5.671l-4.752-1.584,5.821-3.881a4.477,4.477,0,0,0,1.243-6.214,4.468,4.468,0,0,0-6.214-1.242l-13.444,8.962a4.484,4.484,0,0,0-1.958,4.323,4.479,4.479,0,0,0,3.024,3.657l13.446,4.482a4.447,4.447,0,0,0,1.418.233A4.484,4.484,0,0,0,1395.8-127.632Z" transform="translate(-1266.069 187.311)" fill="#040505"/>
      <path id="Caminho_38" data-name="Caminho 38" d="M1370.63-137.261l-13.444-8.962a4.465,4.465,0,0,0-6.214,1.242,4.477,4.477,0,0,0,1.243,6.214l5.821,3.881-4.752,1.584a4.484,4.484,0,0,0-2.833,5.671,4.482,4.482,0,0,0,4.249,3.066,4.445,4.445,0,0,0,1.418-.233l13.446-4.482a4.481,4.481,0,0,0,3.024-3.657A4.483,4.483,0,0,0,1370.63-137.261Z" transform="translate(-1282.995 187.311)" fill="#040505"/>
      <path id="Caminho_39" data-name="Caminho 39" d="M1403.13-100.634a4.478,4.478,0,0,0,3.589,1.792,4.436,4.436,0,0,0,2.683-.9l17.926-13.444a4.477,4.477,0,0,0,1.737-4.3,4.485,4.485,0,0,0-3-3.534l-5.332-1.777,11.082-8.313a4.476,4.476,0,0,0,.9-6.274,4.471,4.471,0,0,0-6.271-.894l-17.926,13.444a4.478,4.478,0,0,0-1.737,4.3,4.483,4.483,0,0,0,3.005,3.532l5.332,1.778-11.082,8.313A4.478,4.478,0,0,0,1403.13-100.634Z" transform="translate(-1245.38 192.954)" fill="#040505"/>
      <path id="Caminho_40" data-name="Caminho 40" d="M1436.692-117.907a4.464,4.464,0,0,0-5.667-2.833l-13.444,4.48a4.487,4.487,0,0,0-2.945,3.222,4.487,4.487,0,0,0,1.194,4.2l3.834,3.836-6.565,2.188a4.481,4.481,0,0,0-2.831,5.669,4.478,4.478,0,0,0,4.249,3.066,4.453,4.453,0,0,0,1.418-.233l13.444-4.48a4.487,4.487,0,0,0,2.945-3.221,4.489,4.489,0,0,0-1.194-4.2l-3.834-3.837,6.566-2.188A4.481,4.481,0,0,0,1436.692-117.907Z" transform="translate(-1239.737 206.119)" fill="#040505"/>
      <path id="Caminho_41" data-name="Caminho 41" d="M1343.24-120.532a4.477,4.477,0,0,0-1.737-4.3l-17.926-13.444a4.48,4.48,0,0,0-6.272.894,4.478,4.478,0,0,0,.9,6.274l11.082,8.313-5.331,1.777a4.486,4.486,0,0,0-3.005,3.534,4.477,4.477,0,0,0,1.737,4.3l17.926,13.444a4.437,4.437,0,0,0,2.683.9,4.472,4.472,0,0,0,3.588-1.792,4.476,4.476,0,0,0-.9-6.274l-11.082-8.313,5.33-1.778A4.483,4.483,0,0,0,1343.24-120.532Z" transform="translate(-1307.445 192.955)" fill="#040505"/>
      <path id="Caminho_42" data-name="Caminho 42" d="M1311.438-117.907a4.481,4.481,0,0,0,2.831,5.669l6.565,2.188L1317-106.211a4.489,4.489,0,0,0-1.194,4.2,4.487,4.487,0,0,0,2.945,3.221l13.444,4.48a4.452,4.452,0,0,0,1.418.233,4.479,4.479,0,0,0,4.25-3.066,4.481,4.481,0,0,0-2.831-5.669L1328.467-105l3.834-3.836a4.491,4.491,0,0,0,1.194-4.2,4.486,4.486,0,0,0-2.945-3.222l-13.444-4.48A4.466,4.466,0,0,0,1311.438-117.907Z" transform="translate(-1311.206 206.119)" fill="#040505"/>
      <path id="Caminho_43" data-name="Caminho 43" d="M1321.609-26.977V4.393A22.434,22.434,0,0,0,1344.017,26.8h116.521a22.435,22.435,0,0,0,22.408-22.408v-31.37a49.354,49.354,0,0,0-49.3-49.3h-2.376a51.515,51.515,0,0,0,22.544-42.574,51.6,51.6,0,0,0-51.538-51.538,51.6,51.6,0,0,0-51.538,51.538,51.514,51.514,0,0,0,22.544,42.574h-2.376A49.353,49.353,0,0,0,1321.609-26.977Zm38.094-91.87a42.623,42.623,0,0,1,42.574-42.576,42.623,42.623,0,0,1,42.574,42.576,42.622,42.622,0,0,1-42.574,42.574A42.622,42.622,0,0,1,1359.7-118.848Zm73.944,51.536a40.379,40.379,0,0,1,40.334,40.334V4.393a13.46,13.46,0,0,1-13.444,13.446h-13.444v-49.3a4.481,4.481,0,0,0-4.482-4.48,4.479,4.479,0,0,0-4.482,4.48v49.3h-71.7v-49.3a4.48,4.48,0,0,0-4.482-4.48,4.48,4.48,0,0,0-4.482,4.48v49.3h-13.444a13.46,13.46,0,0,1-13.444-13.446v-31.37a40.379,40.379,0,0,1,40.334-40.334Z" transform="translate(-1303.684 170.386)" fill="#040505"/>
    </g>
  </g>
</svg>
