<svg xmlns="http://www.w3.org/2000/svg" xmlns:xlink="http://www.w3.org/1999/xlink" width="197.371" height="200" viewBox="0 0 197.371 200">
  <defs>
    <linearGradient id="linear-gradient" x1="0.5" x2="0.5" y2="1" gradientUnits="objectBoundingBox">
      <stop offset="0" stop-color="#8a2ce6"/>
      <stop offset="0.531" stop-color="#4f01c4"/>
      <stop offset="1" stop-color="#4159d0"/>
    </linearGradient>
  </defs>
  <g id="Dores_de_cabeça" data-name="Dores de cabeça" transform="translate(-0.001 -0.004)">
    <path id="Caminho_80" data-name="Caminho 80" d="M794.086,237.866a51.424,51.424,0,1,0-80.356,42.483h-2.373a49.245,49.245,0,0,0-49.189,49.189v31.3a22.386,22.386,0,0,0,22.36,22.36H800.79a22.386,22.386,0,0,0,22.358-22.36v-31.3a49.245,49.245,0,0,0-49.189-49.189h-2.373a51.4,51.4,0,0,0,22.5-42.484Zm-20.124,51.425a40.289,40.289,0,0,1,40.246,40.246v31.3A13.429,13.429,0,0,1,800.8,374.25H787.387V325.063a4.473,4.473,0,1,0-8.946,0v26.972a22.271,22.271,0,0,0-17.886-9.078H706.888v-17.89a4.472,4.472,0,1,0-8.944,0v22.358a4.472,4.472,0,0,0,4.472,4.472h58.132a13.429,13.429,0,0,1,13.411,13.411v8.943h-89.43a13.429,13.429,0,0,1-13.411-13.411v-31.3a40.289,40.289,0,0,1,40.244-40.246Zm-31.3-8.943a42.481,42.481,0,1,1,42.481-42.481,42.482,42.482,0,0,1-42.481,42.481Z" transform="translate(-644.222 -183.194)" fill="url(#linear-gradient)"/>
    <path id="Caminho_81" data-name="Caminho 81" d="M726.059,220.155l-4.745-1.58,5.808-3.872a4.471,4.471,0,0,0-4.96-7.441L708.744,216.2a4.472,4.472,0,0,0,1.066,7.962l13.417,4.472a4.472,4.472,0,0,0,2.829-8.484Z" transform="translate(-599.375 -163.015)" fill="url(#linear-gradient)"/>
    <path id="Caminho_82" data-name="Caminho 82" d="M707.062,216.2l-13.411-8.943a4.471,4.471,0,0,0-4.96,7.441l5.806,3.872-4.745,1.58a4.472,4.472,0,1,0,2.829,8.484l13.411-4.472a4.47,4.47,0,0,0,1.066-7.962Z" transform="translate(-619.556 -163.015)" fill="url(#linear-gradient)"/>
    <path id="Caminho_83" data-name="Caminho 83" d="M688.13,208.193l-16.52-21.611a4.471,4.471,0,1,0-7.1,5.434l16.518,21.609a4.471,4.471,0,0,0,7.1-5.431Z" transform="translate(-642.796 -184.823)" fill="url(#linear-gradient)"/>
    <path id="Caminho_84" data-name="Caminho 84" d="M681.975,205.541l-16.108-8.968a4.472,4.472,0,0,0-4.353,7.813l16.109,8.968a4.472,4.472,0,1,0,4.353-7.813Z" transform="translate(-647.191 -173.574)" fill="url(#linear-gradient)"/>
    <path id="Caminho_85" data-name="Caminho 85" d="M658.43,205.727a4.472,4.472,0,0,0-1.469,8.823l31.807,5.3a4.472,4.472,0,0,0,1.469-8.823Z" transform="translate(-653.221 -163.86)" fill="url(#linear-gradient)"/>
    <g id="Grupo_18" data-name="Grupo 18" transform="translate(151.119 0.087)">
      <path id="Caminho_86" data-name="Caminho 86" d="M729.482,208.237,746,186.626a4.472,4.472,0,1,1,7.1,5.434l-16.52,21.609a4.336,4.336,0,0,1-.5.551,4.471,4.471,0,0,1-6.6-5.983Z" transform="translate(-728.563 -184.867)" fill="url(#linear-gradient)"/>
      <path id="Caminho_87" data-name="Caminho 87" d="M735.431,205.585l16.109-8.968a4.472,4.472,0,0,1,5.237,7.166,4.414,4.414,0,0,1-.884.646L739.782,213.4a4.472,4.472,0,1,1-4.351-7.814Z" transform="translate(-723.963 -173.618)" fill="url(#linear-gradient)"/>
      <path id="Caminho_88" data-name="Caminho 88" d="M766.851,205.77a4.471,4.471,0,0,1,1.469,8.821l-31.809,5.3a4.472,4.472,0,0,1-1.467-8.823Z" transform="translate(-725.804 -163.903)" fill="url(#linear-gradient)"/>
    </g>
  </g>
</svg>
