<svg id="Dores_de_cabeça" data-name="Dores de cabeça" xmlns="http://www.w3.org/2000/svg" width="191.324" height="193.878" viewBox="0 0 191.324 193.878">
  <g id="Dores_de_cabeça-2" data-name="Dores de cabeça" transform="translate(0 0)">
    <path id="Caminho_80" data-name="Caminho 80" d="M769.758,230.579a49.849,49.849,0,1,0-77.894,41.181h-2.3a47.736,47.736,0,0,0-47.682,47.682v30.342a21.7,21.7,0,0,0,21.675,21.675h112.7a21.7,21.7,0,0,0,21.673-21.675V319.443a47.736,47.736,0,0,0-47.682-47.682h-2.3A49.829,49.829,0,0,0,769.758,230.579Zm-19.507,49.85a39.055,39.055,0,0,1,39.013,39.013v30.342a13.018,13.018,0,0,1-13,13h-13v-47.68a4.336,4.336,0,1,0-8.671,0V341.25a21.589,21.589,0,0,0-17.338-8.8H685.231V315.108a4.335,4.335,0,1,0-8.669,0v21.673a4.335,4.335,0,0,0,4.335,4.335h56.351a13.018,13.018,0,0,1,13,13v8.669H663.558a13.018,13.018,0,0,1-13-13V319.443a39.055,39.055,0,0,1,39.011-39.013Zm-30.342-8.669a41.18,41.18,0,1,1,41.179-41.181A41.226,41.226,0,0,1,719.909,271.761Z" transform="translate(-624.485 -177.582)" fill="#040505"/>
    <path id="Caminho_81" data-name="Caminho 81" d="M703.815,213.41l-4.6-1.532,5.63-3.753a4.334,4.334,0,0,0-4.808-7.213l-13.006,8.669a4.335,4.335,0,0,0,1.033,7.718l13.006,4.335a4.334,4.334,0,0,0,2.742-8.224Z" transform="translate(-581.012 -158.021)" fill="#040505"/>
    <path id="Caminho_82" data-name="Caminho 82" d="M685.4,209.581l-13-8.669a4.334,4.334,0,1,0-4.808,7.213l5.628,3.753-4.6,1.532a4.334,4.334,0,1,0,2.742,8.224l13-4.335a4.333,4.333,0,0,0,1.033-7.718Z" transform="translate(-600.575 -158.021)" fill="#040505"/>
    <path id="Caminho_83" data-name="Caminho 83" d="M667.048,201.815l-16.014-20.949a4.334,4.334,0,1,0-6.884,5.267l16.012,20.947a4.334,4.334,0,1,0,6.886-5.265Z" transform="translate(-623.103 -179.161)" fill="#040505"/>
    <path id="Caminho_84" data-name="Caminho 84" d="M661.082,199.244l-15.615-8.693a4.335,4.335,0,0,0-4.22,7.574l15.615,8.693a4.335,4.335,0,0,0,4.22-7.574Z" transform="translate(-627.363 -168.256)" fill="#040505"/>
    <path id="Caminho_85" data-name="Caminho 85" d="M638.258,199.424a4.335,4.335,0,0,0-1.424,8.553l30.833,5.133a4.335,4.335,0,0,0,1.424-8.553Z" transform="translate(-633.209 -158.84)" fill="#040505"/>
    <g id="Grupo_18" data-name="Grupo 18" transform="translate(146.489 0.084)">
      <path id="Caminho_86" data-name="Caminho 86" d="M707.133,201.857l16.012-20.949a4.335,4.335,0,1,1,6.886,5.267l-16.014,20.947a4.2,4.2,0,0,1-.481.534,4.334,4.334,0,0,1-6.4-5.8Z" transform="translate(-706.242 -179.203)" fill="#040505"/>
      <path id="Caminho_87" data-name="Caminho 87" d="M712.9,199.287l15.615-8.693a4.335,4.335,0,0,1,5.077,6.946,4.277,4.277,0,0,1-.857.626l-15.617,8.7a4.335,4.335,0,0,1-4.218-7.574Z" transform="translate(-701.783 -168.299)" fill="#040505"/>
      <path id="Caminho_88" data-name="Caminho 88" d="M743.357,199.466a4.334,4.334,0,1,1,1.424,8.551l-30.835,5.135a4.335,4.335,0,0,1-1.422-8.553Z" transform="translate(-703.568 -158.882)" fill="#040505"/>
    </g>
  </g>
</svg>
