<svg xmlns="http://www.w3.org/2000/svg" width="187.974" height="200.252" viewBox="0 0 187.974 200.252">
  <g id="Febre" transform="translate(-16.655 -12.417)">
    <g id="Febre-2" data-name="Febre" transform="translate(16.655 12.417)">
      <path id="Caminho_9" data-name="Caminho 9" d="M1202.359-1.325v10.7a22.783,22.783,0,0,0,22.755,22.756h118.33A22.783,22.783,0,0,0,1366.2,9.371V-22.486a50.119,50.119,0,0,0-50.062-50.062h-2.413a52.316,52.316,0,0,0,22.892-43.237,52.4,52.4,0,0,0-52.338-52.337,52.4,52.4,0,0,0-52.338,52.337,52.318,52.318,0,0,0,22.894,43.237h-2.413a49.666,49.666,0,0,0-22.756,5.472V-118.06a18.225,18.225,0,0,0-18.2-18.2,18.226,18.226,0,0,0-18.2,18.2v70.776a26.981,26.981,0,0,0-9.1,20.247A27.328,27.328,0,0,0,1202.359-1.325Zm38.684-114.461a43.286,43.286,0,0,1,43.235-43.235,43.284,43.284,0,0,1,43.235,43.235,43.285,43.285,0,0,1-43.235,43.237A43.286,43.286,0,0,1,1241.043-115.785Zm11.378,52.338h63.716a41.007,41.007,0,0,1,40.959,40.96V9.371a13.666,13.666,0,0,1-13.653,13.653H1329.79V-27.038a4.553,4.553,0,0,0-4.552-4.552,4.553,4.553,0,0,0-4.552,4.552V23.024h-72.818V-27.038a4.552,4.552,0,0,0-4.552-4.552,4.551,4.551,0,0,0-4.55,4.552V23.024h-13.654A13.667,13.667,0,0,1,1211.46,9.371V.27a27.338,27.338,0,0,0,27.307-27.308,26.982,26.982,0,0,0-9.1-20.247v-9.234A40.574,40.574,0,0,1,1252.421-63.447Zm-51.87,21.939a4.556,4.556,0,0,0,1.808-3.631V-118.06a9.111,9.111,0,0,1,9.1-9.1,9.112,9.112,0,0,1,9.1,9.1V-59.6a4.4,4.4,0,0,0,0,1.071v13.394a4.555,4.555,0,0,0,1.806,3.631,18.041,18.041,0,0,1,7.3,14.47,18.225,18.225,0,0,1-18.2,18.2,18.226,18.226,0,0,1-18.2-18.2A18.042,18.042,0,0,1,1200.551-41.508Z" transform="translate(-1184.154 168.125)" fill="#040505"/>
      <path id="Caminho_10" data-name="Caminho 10" d="M1203.659-49.141a9.112,9.112,0,0,0,9.1-9.1,9.072,9.072,0,0,0-4.551-7.836v-55.879a4.552,4.552,0,0,0-4.552-4.552,4.551,4.551,0,0,0-4.552,4.552V-66.08a9.07,9.07,0,0,0-4.55,7.836A9.111,9.111,0,0,0,1203.659-49.141Z" transform="translate(-1176.353 199.331)" fill="#040505"/>
      <path id="Caminho_11" data-name="Caminho 11" d="M1269.094-125.07a4.552,4.552,0,0,0-2.877-5.757l-4.826-1.608,5.909-3.941a4.551,4.551,0,0,0,1.263-6.31,4.542,4.542,0,0,0-6.312-1.263l-13.653,9.1a4.549,4.549,0,0,0-1.986,4.391,4.55,4.55,0,0,0,3.071,3.713l13.653,4.552a4.555,4.555,0,0,0,1.44.236A4.554,4.554,0,0,0,1269.094-125.07Z" transform="translate(-1137.345 185.676)" fill="#040505"/>
      <path id="Caminho_12" data-name="Caminho 12" d="M1243.9-134.846l-13.655-9.1a4.538,4.538,0,0,0-6.31,1.263,4.55,4.55,0,0,0,1.261,6.31l5.911,3.941-4.826,1.608a4.553,4.553,0,0,0-2.879,5.757,4.554,4.554,0,0,0,4.319,3.115,4.571,4.571,0,0,0,1.44-.236l13.653-4.552a4.552,4.552,0,0,0,3.071-3.713A4.553,4.553,0,0,0,1243.9-134.846Z" transform="translate(-1154.9 185.676)" fill="#040505"/>
      <path id="Caminho_13" data-name="Caminho 13" d="M1273.934-129.686a4.551,4.551,0,0,0,1.262,6.31,4.528,4.528,0,0,0,2.52.765,4.544,4.544,0,0,0,3.792-2.026l4.558-6.839a12.758,12.758,0,0,0-3.556-17.683,3.646,3.646,0,0,1-1.01-5.05l4.558-6.837a4.55,4.55,0,0,0-1.263-6.31,4.543,4.543,0,0,0-6.31,1.262l-4.559,6.837a12.76,12.76,0,0,0,3.556,17.685,3.644,3.644,0,0,1,1.01,5.049Z" transform="translate(-1118.433 168.124)" fill="#040505"/>
      <path id="Caminho_14" data-name="Caminho 14" d="M1284.337-129.686a4.551,4.551,0,0,0,1.262,6.31,4.529,4.529,0,0,0,2.522.765,4.542,4.542,0,0,0,3.79-2.026l4.559-6.839a12.758,12.758,0,0,0-3.556-17.683,3.646,3.646,0,0,1-1.009-5.05l4.558-6.837a4.551,4.551,0,0,0-1.262-6.31,4.546,4.546,0,0,0-6.312,1.262l-4.558,6.837a12.76,12.76,0,0,0,3.556,17.685,3.644,3.644,0,0,1,1.01,5.049Z" transform="translate(-1110.631 168.124)" fill="#040505"/>
    </g>
  </g>
</svg>
