<svg xmlns="http://www.w3.org/2000/svg" width="165.528" height="202.314" viewBox="0 0 165.528 202.314">
  <g id="insonia" transform="translate(0 0)">
    <g id="Insônia" transform="translate(0 0)">
      <path id="Caminho_36" data-name="Caminho 36" d="M1197.7-114.3a52.938,52.938,0,0,0-52.878-52.878,52.937,52.937,0,0,0-52.876,52.878,52.849,52.849,0,0,0,23.129,43.681h-2.438a50.635,50.635,0,0,0-50.578,50.579V12.145a23.017,23.017,0,0,0,22.989,22.991H1204.6a23.018,23.018,0,0,0,22.991-22.991V-20.041a50.637,50.637,0,0,0-50.578-50.579h-2.44A52.851,52.851,0,0,0,1197.7-114.3Zm-20.69,52.878a41.428,41.428,0,0,1,41.381,41.383V12.145A13.808,13.808,0,0,1,1204.6,25.939h-13.794V-24.639a4.6,4.6,0,0,0-4.6-4.6,4.6,4.6,0,0,0-4.6,4.6V3.091a22.9,22.9,0,0,0-18.392-9.338H1108.04V-24.639a4.6,4.6,0,0,0-4.6-4.6,4.6,4.6,0,0,0-4.6,4.6V-1.649a4.6,4.6,0,0,0,4.6,4.6h59.775a13.809,13.809,0,0,1,13.8,13.794v9.2H1085.05a13.809,13.809,0,0,1-13.794-13.794V-20.041a41.43,41.43,0,0,1,41.383-41.383Zm-32.187-9.2a43.73,43.73,0,0,1-43.681-43.681,43.731,43.731,0,0,1,43.681-43.681,43.732,43.732,0,0,1,43.683,43.681A43.731,43.731,0,0,1,1144.824-70.62Z" transform="translate(-1062.061 167.179)" fill="#040505"/>
      <circle id="Elipse_1" data-name="Elipse 1" cx="13.177" cy="13.177" r="13.177" transform="translate(47.81 39.701)" fill="#040505"/>
      <circle id="Elipse_2" data-name="Elipse 2" cx="13.177" cy="13.177" r="13.177" transform="translate(91.631 39.701)" fill="#040505"/>
    </g>
  </g>
</svg>
