<svg xmlns="http://www.w3.org/2000/svg" width="121.901" height="181.282" viewBox="0 0 121.901 181.282">
  <g id="intestino_preso" data-name="intestino preso" transform="translate(-2403.661 -154.456)">
    <g id="intestino_preso-2" data-name="intestino preso" transform="translate(2403.661 154.456)">
      <path id="Caminho_59" data-name="Caminho 59" d="M1477.418,1.264c-.62,1.694-2.066,2.6-3.186,3.754-2.86,2.95-2.885,2.922,0,5.82.885.887,1.787,1.757,2.619,2.69a1.5,1.5,0,0,1-.035,2.3,1.49,1.49,0,0,1-2.293-.086c-1.32-1.267-2.673-2.51-3.876-3.883-1.136-1.3-2.031-1.481-3.227-.058-1.111,1.322-2.44,2.46-3.656,3.7-.754.768-1.583,1.2-2.516.384-1.08-.945-.624-1.9.19-2.735,1.341-1.38,2.682-2.768,4.1-4.07.918-.845.969-1.471,0-2.319a40.358,40.358,0,0,1-3.266-3.267c-.842-.928-2.551-1.871-1.13-3.3,1.5-1.507,2.546.174,3.56,1.108a19.432,19.432,0,0,1,2.437,2.458c1.388,1.843,2.508,1.5,3.831-.1a42.617,42.617,0,0,1,3.484-3.454,1.715,1.715,0,0,1,2.121-.334A1.868,1.868,0,0,1,1477.418,1.264Z" transform="translate(-1445.245 16.37)" fill="#040505"/>
      <path id="Caminho_60" data-name="Caminho 60" d="M1471.679,45.184a5.038,5.038,0,0,1-1.429,1.684c-1.284,1.323-1.3,1.31,0,2.611.4.4.8.789,1.175,1.208a.722.722,0,1,1-1.044,1c-.592-.569-1.2-1.127-1.74-1.742-.51-.582-.912-.665-1.448-.026-.5.594-1.1,1.1-1.641,1.658-.339.346-.71.539-1.128.174-.486-.424-.281-.852.084-1.228.6-.62,1.2-1.242,1.839-1.826.412-.379.435-.66,0-1.041a18.272,18.272,0,0,1-1.466-1.467c-.377-.415-1.145-.839-.506-1.477.673-.677,1.141.078,1.6.5a8.621,8.621,0,0,1,1.094,1.1c.624.827,1.125.675,1.72-.043a18.954,18.954,0,0,1,1.563-1.55.768.768,0,0,1,.951-.151A.841.841,0,0,1,1471.679,45.184Z" transform="translate(-1442.932 45.709)" fill="#040505"/>
      <g id="Grupo_15" data-name="Grupo 15">
        <path id="Caminho_61" data-name="Caminho 61" d="M1475.079,37.472a23.763,23.763,0,1,1,23.762-23.763A23.79,23.79,0,0,1,1475.079,37.472Zm0-43.834a20.071,20.071,0,1,0,20.07,20.072A20.095,20.095,0,0,0,1475.079-6.363Z" transform="translate(-1451.316 10.055)" fill="#040505"/>
      </g>
      <g id="Grupo_17" data-name="Grupo 17" transform="translate(12.976 3.052)">
        <path id="Caminho_66" data-name="Caminho 66" d="M1508.332,129.142c-8.9.233-15.38-3.158-17.865-11.617-2.422-8.237,1.014-14.507,8.377-18.975h-1.813c-7.221,0-14.444.021-21.665-.007a16.247,16.247,0,0,1-15.941-13.251,15.982,15.982,0,0,1,14.887-18.664c2.619-.089,5.241-.013,7.952-.207-.243-.144-.483-.291-.728-.432a15.95,15.95,0,0,1,4.862-29.66,17.17,17.17,0,0,1,3.259-.281c5.846-.026,11.691-.013,17.537-.015h1.092c-.225-.258-.323-.4-.445-.506a8.033,8.033,0,0,1-2.8-6.293q.02-17.678.008-35.358c0-1.342.576-2.094,1.593-2.086s1.621.776,1.621,2.091c0,11.38.111,22.762-.056,34.139-.062,4.293,2.2,6.348,6.215,6.243,7.122-.185,14.254-.046,21.382-.056a2.783,2.783,0,0,1,2.49,1.017,2.508,2.508,0,0,1-2.059,4.013q-5.487,0-10.973,0h-17.815q-8.9,0-17.811,0A12.933,12.933,0,0,0,1476.7,49.947a12.8,12.8,0,0,0,11.642,14.8c.655.035,1.312.028,1.969.028q30.339,0,60.681.022a4.136,4.136,0,0,1,2.035.5,2.248,2.248,0,0,1,1,2.533,2.485,2.485,0,0,1-2.147,1.952,9.619,9.619,0,0,1-1.217.035q-37.607,0-75.217,0a12.957,12.957,0,0,0-12.3,8.49,12.745,12.745,0,0,0,11.883,17.018q30.152.037,60.3.01a11.485,11.485,0,0,1,1.218.021,2.512,2.512,0,0,1,2.245,2.382,2.458,2.458,0,0,1-1.929,2.536,5.341,5.341,0,0,1-1.208.1c-9.973.007-19.945-.017-29.919.017a12.762,12.762,0,0,0-5.6,24.232,15.552,15.552,0,0,0,7.09,1.312c4.553-.028,9.107-.026,13.66-.023a2.5,2.5,0,0,1,2.612,2.485,2.47,2.47,0,0,1-2.564,2.531c-2.594.033-5.189,0-7.783.017a4.551,4.551,0,0,0-4.9,4.932q-.01,15.757,0,31.513c0,1.416-.576,2.131-1.682,2.1a1.434,1.434,0,0,1-1.488-1.284,6.332,6.332,0,0,1-.048-1.12c0-9.974.046-19.946-.03-29.918C1504.988,134.072,1505.513,131.323,1508.332,129.142Z" transform="translate(-1459.16 8.211)" stroke="#040505" stroke-miterlimit="10" stroke-width="1"/>
        <path id="Caminho_67" data-name="Caminho 67" d="M1536.083,51.3c.389,0,.778,0,1.166,0,2.779.031,5.57-.074,8.339.124a16.217,16.217,0,0,1,14.457,13.37,15.912,15.912,0,0,1-9.279,17.068,16.4,16.4,0,0,1-7.659,1.393c-2.326-.157-4.67-.038-7.006-.035-.08,0-.159.076-.26.129a32.238,32.238,0,0,1,3.448,2.346c4.822,4.255,6.672,9.62,5.183,15.862-1.466,6.139-5.527,10.037-11.575,11.711a24.456,24.456,0,0,1-5.472.561c-2.184.089-4.373.022-6.644.2.264.159.524.323.792.476a15.981,15.981,0,0,1-4.349,29.5,9.018,9.018,0,0,1-1.939.288c-.768,0-.915.333-.913,1.031.021,7.378.007,14.757.015,22.135,0,.875-.15,1.651-1.082,1.96a1.6,1.6,0,0,1-2.134-1.654c-.036-1.249-.01-2.5-.01-3.75q0-9.849,0-19.7c0-2.189.817-3.037,3.024-3.16a12.789,12.789,0,0,0,11.739-9.072,12.9,12.9,0,0,0-12.467-16.449q-7.13.012-14.255-.01a5.37,5.37,0,0,1-1.742-.265,2.289,2.289,0,0,1-1.536-2.592,2.446,2.446,0,0,1,2.1-2.089,7.089,7.089,0,0,1,1.027-.056q14.725,0,29.45,0a13.024,13.024,0,0,0,12.45-8.42,12.8,12.8,0,0,0-12.389-17.139c-19.915,0-34.866,0-54.781,0-.344,0-.69.008-1.032-.008a2.4,2.4,0,0,1-2.4-2.486,2.328,2.328,0,0,1,2.339-2.415c1.4-.065,1.156-.076,2.561-.073,2.716,0,2.124.056,4.84.055q20.859-.02,41.719-.056c5.679,0,11.359.041,17.039.058,1.873.007,3.755.109,5.618-.03,5.206-.387,9.188-2.827,11.385-7.613a12.044,12.044,0,0,0-1.694-13.2,12.39,12.39,0,0,0-10.242-4.769q-30.294.01-60.589,0c-.437,0-.875.018-1.312,0a2.542,2.542,0,0,1-2.576-2.549,2.5,2.5,0,0,1,2.654-2.452c4.248-.017,8.495,0,12.743,0q16.981,0,33.961-.01a12.969,12.969,0,0,0,12.7-10.326,12.778,12.778,0,0,0-7.749-14.292,13.453,13.453,0,0,0-5.221-.93c-3.345,0-6.7.127-10.03-.083a7.75,7.75,0,0,1-7.315-7.843c-.06-7.441-.027-14.882-.02-22.322,0-1.2.7-1.964,1.7-1.922.958.041,1.517.764,1.519,1.975q0,10.646,0,21.291a5.946,5.946,0,0,0,.746,3.426,4.783,4.783,0,0,0,4.271,2.255c3.032-.013,6.066-.036,9.1,0,6.116.078,10.965,2.6,14.164,7.843a15.846,15.846,0,0,1-5.6,21.933q-.506.3-1.012.6Z" transform="translate(-1451.835 8.21)" stroke="#040505" stroke-miterlimit="10" stroke-width="1"/>
      </g>
    </g>
  </g>
</svg>
