<svg xmlns="http://www.w3.org/2000/svg" xmlns:xlink="http://www.w3.org/1999/xlink" width="134.477" height="200" viewBox="0 0 134.477 200">
  <defs>
    <linearGradient id="linear-gradient" x1="0.5" x2="0.5" y2="1" gradientUnits="objectBoundingBox">
      <stop offset="0" stop-color="#8a2ce6"/>
      <stop offset="0.498" stop-color="#4f01c4"/>
      <stop offset="1" stop-color="#4159d0"/>
    </linearGradient>
    <linearGradient id="linear-gradient-2" x1="0.5" x2="0.5" y2="1" gradientUnits="objectBoundingBox">
      <stop offset="0" stop-color="#8a2ce6"/>
      <stop offset="0.502" stop-color="#4f01c4"/>
      <stop offset="1" stop-color="#4159d0"/>
    </linearGradient>
  </defs>
  <g id="intestino_preso" data-name="intestino preso" transform="translate(-2651.743 -170.399)">
    <g id="intestino_preso-2" data-name="intestino preso" transform="translate(2651.743 170.397)">
      <path id="Caminho_59" data-name="Caminho 59" d="M1629.905,1.394c-.684,1.869-2.279,2.868-3.515,4.141-3.155,3.254-3.183,3.224,0,6.421.976.979,1.971,1.938,2.889,2.968a1.655,1.655,0,0,1-.039,2.537,1.644,1.644,0,0,1-2.53-.095c-1.456-1.4-2.949-2.769-4.276-4.284-1.253-1.434-2.241-1.634-3.56-.064-1.226,1.458-2.692,2.714-4.033,4.082-.832.847-1.746,1.324-2.776.424-1.191-1.043-.688-2.1.21-3.017,1.479-1.522,2.959-3.054,4.523-4.49,1.013-.932,1.069-1.623,0-2.558a44.529,44.529,0,0,1-3.6-3.6c-.929-1.024-2.814-2.064-1.247-3.641,1.655-1.663,2.809.192,3.927,1.222a21.444,21.444,0,0,1,2.688,2.712c1.531,2.033,2.767,1.655,4.226-.11a47,47,0,0,1,3.844-3.811,1.892,1.892,0,0,1,2.34-.368,2.061,2.061,0,0,1,.93,1.536Z" transform="translate(-1594.409 18.06)" fill="url(#linear-gradient)"/>
      <path id="Caminho_60" data-name="Caminho 60" d="M1623.573,49.847A5.562,5.562,0,0,1,1622,51.705c-1.417,1.46-1.434,1.445,0,2.881.441.441.883.87,1.3,1.333a.8.8,0,1,1-1.152,1.1c-.653-.628-1.324-1.243-1.92-1.922-.563-.642-1.006-.734-1.6-.029-.552.655-1.214,1.214-1.81,1.829-.374.382-.783.595-1.245.192-.536-.468-.31-.94.093-1.355.662-.684,1.324-1.37,2.029-2.014.454-.418.48-.728,0-1.148a20.2,20.2,0,0,1-1.617-1.618c-.416-.458-1.263-.926-.558-1.629.742-.747,1.259.086,1.765.552a9.512,9.512,0,0,1,1.207,1.213c.688.912,1.241.745,1.9-.047a20.874,20.874,0,0,1,1.724-1.71.847.847,0,0,1,1.049-.167.928.928,0,0,1,.415.68Z" transform="translate(-1591.858 50.427)" fill="url(#linear-gradient-2)"/>
      <g id="Grupo_15" data-name="Grupo 15">
        <path id="Caminho_61" data-name="Caminho 61" d="M1627.323,41.339a26.216,26.216,0,1,1,26.214-26.215,26.216,26.216,0,0,1-26.214,26.215Zm0-48.358a22.143,22.143,0,1,0,22.141,22.142,22.143,22.143,0,0,0-22.141-22.142Z" transform="translate(-1601.107 11.093)" fill="url(#linear-gradient)"/>
      </g>
      <g id="Grupo_17" data-name="Grupo 17" transform="translate(14.315 3.367)">
        <path id="Caminho_66" data-name="Caminho 66" d="M1664.005,142.471c-9.819.257-16.967-3.484-19.709-12.816-2.672-9.087,1.119-16,9.241-20.933h-2c-7.966,0-15.935.023-23.9-.008A17.924,17.924,0,0,1,1610.05,94.1a17.632,17.632,0,0,1,16.424-20.59c2.889-.1,5.782-.014,8.773-.228-.268-.159-.533-.321-.8-.477a17.6,17.6,0,0,1,5.364-32.721,18.944,18.944,0,0,1,3.6-.31c6.449-.029,12.9-.014,19.347-.017h1.2a6.957,6.957,0,0,0-.491-.558,8.862,8.862,0,0,1-3.089-6.943q.022-19.5.009-39.007c0-1.481.635-2.31,1.757-2.3s1.788.856,1.788,2.307c0,12.555.122,25.111-.062,37.662-.068,4.736,2.427,7,6.856,6.887,7.857-.2,15.725-.051,23.589-.062a3.07,3.07,0,0,1,2.747,1.122,2.767,2.767,0,0,1-2.271,4.427H1643.38A14.268,14.268,0,0,0,1629.111,55.1a14.121,14.121,0,0,0,12.844,16.328c.723.039,1.447.031,2.172.031q33.47,0,66.944.024a4.563,4.563,0,0,1,2.245.552,2.48,2.48,0,0,1,1.1,2.794,2.742,2.742,0,0,1-2.368,2.153,10.61,10.61,0,0,1-1.343.039h-82.98a14.294,14.294,0,0,0-13.57,9.366,14.061,14.061,0,0,0,13.11,18.774q33.264.041,66.523.011a12.674,12.674,0,0,1,1.344.023,2.771,2.771,0,0,1,2.477,2.628,2.712,2.712,0,0,1-2.128,2.8,5.894,5.894,0,0,1-1.333.11c-11,.008-22-.019-33.007.019a14.079,14.079,0,0,0-6.178,26.733,17.156,17.156,0,0,0,7.822,1.447c5.023-.031,10.047-.029,15.07-.025a2.758,2.758,0,0,1,2.882,2.741,2.725,2.725,0,0,1-2.829,2.792c-2.862.036-5.724,0-8.586.019a5.021,5.021,0,0,0-5.406,5.441q-.011,17.383,0,34.765c0,1.562-.635,2.351-1.856,2.317a1.582,1.582,0,0,1-1.641-1.417,6.98,6.98,0,0,1-.053-1.236c0-11,.051-22-.033-33.006C1660.321,147.91,1660.894,144.877,1664.005,142.471Z" transform="translate(-1609.76 9.058)" stroke="#4f01c4" stroke-miterlimit="10" stroke-width="1.103" fill="url(#linear-gradient)"/>
        <path id="Caminho_67" data-name="Caminho 67" d="M1694.619,56.595h1.286c3.066.034,6.145-.082,9.2.137a17.891,17.891,0,0,1,15.949,14.75,17.554,17.554,0,0,1-10.236,18.83,18.094,18.094,0,0,1-8.45,1.537c-2.566-.173-5.152-.042-7.729-.039-.088,0-.175.084-.287.142a35.565,35.565,0,0,1,3.8,2.588c5.32,4.694,7.361,10.613,5.718,17.5-1.617,6.773-6.1,11.073-12.77,12.92a26.978,26.978,0,0,1-6.037.619c-2.409.1-4.824.024-7.33.221.291.175.578.356.874.525a17.63,17.63,0,0,1-4.8,32.545,9.949,9.949,0,0,1-2.139.318c-.847,0-1.009.367-1.007,1.137.023,8.139.008,16.28.017,24.42,0,.965-.166,1.821-1.194,2.162a1.765,1.765,0,0,1-2.354-1.825c-.04-1.378-.011-2.758-.011-4.137V159.21c0-2.415.9-3.35,3.336-3.486a14.086,14.086,0,0,0-.8-28.155q-7.866.013-15.726-.011a5.924,5.924,0,0,1-1.922-.292,2.525,2.525,0,0,1-1.694-2.86,2.7,2.7,0,0,1,2.316-2.3,7.821,7.821,0,0,1,1.133-.062h32.49a14.368,14.368,0,0,0,13.735-9.289,14.121,14.121,0,0,0-13.668-18.908h-60.435c-.38,0-.761.009-1.139-.009a2.648,2.648,0,0,1-2.648-2.743,2.568,2.568,0,0,1,2.58-2.664c1.545-.072,1.275-.084,2.825-.081,3,0,2.343.062,5.339.061q23.012-.022,46.025-.062c6.265,0,12.531.045,18.8.064,2.066.008,4.143.12,6.2-.033,5.743-.427,10.136-3.119,12.56-8.4a13.287,13.287,0,0,0-1.869-14.562,13.669,13.669,0,0,0-11.3-5.261q-33.421.011-66.842,0c-.482,0-.965.02-1.447,0a2.8,2.8,0,0,1-2.842-2.812,2.758,2.758,0,0,1,2.928-2.705c4.686-.019,9.372,0,14.058,0q18.734,0,37.466-.011a14.309,14.309,0,0,0,14.011-11.4,14.1,14.1,0,0,0-8.549-15.764,14.841,14.841,0,0,0-5.76-1.026c-3.69,0-7.391.14-11.065-.092a8.55,8.55,0,0,1-8.07-8.652c-.066-8.209-.03-16.418-.022-24.626,0-1.324.772-2.167,1.875-2.12,1.057.045,1.673.843,1.676,2.179V16.618a6.558,6.558,0,0,0,.823,3.78,5.277,5.277,0,0,0,4.712,2.488c3.345-.014,6.692-.04,10.039,0,6.747.086,12.1,2.868,15.626,8.652a17.482,17.482,0,0,1-6.178,24.2l-1.117.662Z" transform="translate(-1601.679 9.057)" stroke="#4f01c4" stroke-miterlimit="10" stroke-width="1.103" fill="url(#linear-gradient)"/>
      </g>
    </g>
  </g>
</svg>
