<svg xmlns="http://www.w3.org/2000/svg" width="200.686" height="168.295" viewBox="0 0 200.686 168.295">
  <g id="n達o_sente_cheiro" data-name="n達o sente cheiro" transform="translate(-14.421 -13.093)">
    <g id="n達o_sente_cheiro-2" data-name="n達o sente cheiro" transform="translate(14.421 13.093)">
      <path id="Caminho_1" data-name="Caminho 1" d="M819.882,172.433A54.385,54.385,0,0,0,853.105,161.1a24.194,24.194,0,0,0,15.4,1.6l9.512,12.08a31.839,31.839,0,0,0,48.081-.186l9.358-11.894a24.564,24.564,0,0,0,24.753-8.639,25.061,25.061,0,0,0-12.434-39.916c-8.6-2.471-14.679-9.369-15.5-17.573l-7.513-75.111a4.561,4.561,0,0,0-4.539-4.106H883.738a4.561,4.561,0,0,0-4.539,4.106l-7.511,75.112a19.166,19.166,0,0,1-.445,2.394,54.706,54.706,0,1,0-51.361,73.465Zm60.884-74.953,7.1-71H916.1l7.1,71c1.193,11.94,9.849,21.924,22.276,25.5a15.934,15.934,0,1,1-10.14,30.189,4.548,4.548,0,0,0-5.142,1.466L919.082,168.77a22.732,22.732,0,0,1-34.046.186L873.77,154.634a4.556,4.556,0,0,0-5.142-1.466,15.748,15.748,0,0,1-7.871.808,54.451,54.451,0,0,0,13.86-36.277c0-1.708-.1-3.394-.258-5.063A28.207,28.207,0,0,0,880.766,97.481ZM819.882,72.089A45.643,45.643,0,0,1,865.006,111.4c0,.018.007.033.007.051a45.584,45.584,0,1,1-45.132-39.36Z" transform="translate(-765.148 -17.356)" fill="#040505"/>
      <path id="Caminho_2" data-name="Caminho 2" d="M822.214,68.926c-1.336,3.641-4.442,5.586-6.852,8.069-6.151,6.34-6.2,6.28.012,12.511,1.9,1.9,3.839,3.779,5.63,5.784,1.415,1.584,1.6,3.346-.074,4.953-1.685,1.624-3.406,1.282-4.932-.182-2.838-2.724-5.749-5.4-8.334-8.35-2.441-2.79-4.367-3.181-6.94-.123-2.389,2.841-5.246,5.286-7.859,7.945-1.624,1.652-3.4,2.578-5.409.826-2.325-2.029-1.343-4.081.407-5.879,2.885-2.969,5.766-5.952,8.811-8.751,1.975-1.817,2.082-3.16-.005-4.988a86.47,86.47,0,0,1-7.024-7.024c-1.808-1.994-5.484-4.021-2.429-7.083,3.234-3.241,5.475.372,7.654,2.382a41.807,41.807,0,0,1,5.24,5.288c2.985,3.962,5.391,3.23,8.239-.207a90.508,90.508,0,0,1,7.49-7.427,3.687,3.687,0,0,1,4.558-.719A4.025,4.025,0,0,1,822.214,68.926Z" transform="translate(-749.396 18.81)" fill="#040505"/>
    </g>
  </g>
</svg>
