<svg xmlns="http://www.w3.org/2000/svg" xmlns:xlink="http://www.w3.org/1999/xlink" width="200" height="166.236" viewBox="0 0 200 166.236">
  <defs>
    <linearGradient id="linear-gradient" x1="0.5" x2="0.5" y2="1" gradientUnits="objectBoundingBox">
      <stop offset="0" stop-color="#8a2ce6"/>
      <stop offset="0.54" stop-color="#4f01c4"/>
      <stop offset="1" stop-color="#4159d0"/>
    </linearGradient>
  </defs>
  <g id="não_sente_gosto_" data-name="não sente gosto," transform="translate(0)">
    <g id="Grupo_28" data-name="Grupo 28" transform="translate(20.923 76.495)">
      <path id="Caminho_102" data-name="Caminho 102" d="M903.277,44.138c6.539.011,11.575.722,16.4,2.6a7.534,7.534,0,0,0,5.63.09c8.241-3.13,16.685-3.326,25.253-1.7,11.23,2.138,20.782,7.508,29.213,15.087,4.618,4.149,9.316,8.24,14.836,11.165a66.815,66.815,0,0,0,8.624,3.709c3.105,1.121,4.071,4,1.927,6.515a84.207,84.207,0,0,1-16.428,14.363,127.634,127.634,0,0,1-35.614,16.9,1.758,1.758,0,0,0-1.093,1.053c-1.951,11.9-8.933,19.576-20.26,22.932-11.983,3.552-22.75.871-31.594-8.188a24.6,24.6,0,0,1-6.8-14.418c-.141-1.1-.768-1.3-1.6-1.555-14.983-4.546-28.868-11.274-41.093-21.14-3.608-2.909-6.826-6.3-10.191-9.508-2.672-2.544-1.6-6.137,1.99-7.1,6.015-1.61,11.162-4.955,15.963-8.805,3.788-3.042,7.382-6.335,11.183-9.357C879.874,48.661,891.548,44.379,903.277,44.138Zm86.365,31.908.076-.346a3.114,3.114,0,0,0-.293-.235,108.192,108.192,0,0,1-14.275-11.1c-6.652-5.9-14.087-10.372-22.8-12.53-8.554-2.114-17.032-2.42-25.411.91a12.127,12.127,0,0,1-9.087-.148A38.28,38.28,0,0,0,897.8,50.8a52.385,52.385,0,0,0-26.819,12.843,118.085,118.085,0,0,1-15.029,11.777,3.619,3.619,0,0,0-.534.567c.6,0,1.014.023,1.427,0,7.071-.451,14.136-1.042,21.214-1.343,6.783-.289,13.578-.422,20.364-.334a34.915,34.915,0,0,1,8.151,1.343c4.9,1.271,9.724,2.829,14.611,4.166a6.017,6.017,0,0,0,2.931-.017c3.287-.821,6.572-1.687,9.8-2.718a52.268,52.268,0,0,1,14.6-2.92c11.177-.293,22.287.694,33.414,1.438C984.492,75.77,987.072,75.9,989.642,76.046Zm-90.325,4.172c-.067.75-.121,1.077-.121,1.406,0,9.731-.03,19.463.015,29.191a19.6,19.6,0,0,0,3.361,10.9c5.453,8.241,16,12.156,26.121,9.684,9.694-2.367,17.767-10.845,17.406-22.006-.293-9.135-.061-18.287-.061-27.429V80.389c-7.11,1.014-13.488,3.932-20.327,5.331v33.472c0,2.126-1.205,3.525-3.057,3.543-1.882.017-3.079-1.336-3.081-3.489q0-16.107.005-32.213c0-.773-.042-1.284-.986-1.541-4-1.082-7.962-2.3-11.952-3.411C904.288,81.423,901.9,80.871,899.317,80.218Zm-6.329,26.495V79.939l-43.505,2.57c12.734,11.494,27.333,19.1,43.505,24.2ZM995.5,82.367c-.528-.024-1.054-.046-1.582-.074l-17.712-.928c-7.534-.393-15.071-.768-22.606-1.188-1.088-.061-1.427.241-1.42,1.379.051,8.011.023,16.024.026,24.034,0,.318.049.636.09,1.108C968.475,101.629,983.059,93.994,995.5,82.367Z" transform="translate(-827.238 -48.641)" fill="url(#linear-gradient)"/>
    </g>
    <path id="Caminho_103" data-name="Caminho 103" d="M870.492,26.457c-1.216,3.311-4.038,5.077-6.229,7.334-5.592,5.763-5.637,5.707.012,11.371,1.727,1.733,3.489,3.435,5.117,5.257,1.286,1.443,1.449,3.042-.067,4.5-1.533,1.475-3.1,1.165-4.484-.167-2.578-2.476-5.224-4.9-7.576-7.588-2.22-2.535-3.968-2.892-6.306-.113-2.172,2.581-4.769,4.806-7.143,7.221-1.476,1.5-3.094,2.345-4.916.752-2.114-1.845-1.221-3.709.369-5.344,2.624-2.7,5.242-5.411,8.009-7.955,1.794-1.651,1.894-2.872-.005-4.532a78.733,78.733,0,0,1-6.384-6.385c-1.643-1.812-4.983-3.654-2.207-6.439,2.938-2.945,4.977.339,6.954,2.165a38.081,38.081,0,0,1,4.764,4.806c2.713,3.6,4.9,2.937,7.486-.188a82.247,82.247,0,0,1,6.809-6.749,3.35,3.35,0,0,1,4.143-.654,3.661,3.661,0,0,1,1.654,2.7Z" transform="translate(-807.621 8.002)" fill="url(#linear-gradient)"/>
    <path id="Caminho_104" data-name="Caminho 104" d="M868.657,100.052a46.435,46.435,0,1,1,46.435-46.435,46.435,46.435,0,0,1-46.435,46.435Zm0-85.655a39.22,39.22,0,1,0,39.22,39.22,39.219,39.219,0,0,0-39.22-39.22Z" transform="translate(-822.222 -7.183)" fill="url(#linear-gradient)"/>
  </g>
</svg>
