<svg xmlns="http://www.w3.org/2000/svg" width="213.887" height="182.78" viewBox="0 0 213.887 182.78">
  <g id="queda_de_cabelo" data-name="queda de cabelo" transform="translate(-21.068 -12.876)">
    <g id="queda_de_cabelo-2" data-name="queda de cabelo" transform="translate(21.068 12.876)">
      <path id="Caminho_45" data-name="Caminho 45" d="M1583.865-116.247c11.873,0,23.746-.07,35.617.046a40.052,40.052,0,0,1,9.118,1.041A16.163,16.163,0,0,1,1640.376-94.2a69.555,69.555,0,0,1-5.474,11.42c-2.6,4.737-5.374,9.351-6.676,14.69a32.238,32.238,0,0,0,29.206,40.077,36.085,36.085,0,0,0,25.376-7.457c10.727-8.212,14.362-20,9.953-33.573-1.747-5.378-4.647-10.385-7.031-15.556-1.538-3.338-3.4-6.564-4.58-10.023-2.887-8.463.853-16.544,9.21-19.827a24.9,24.9,0,0,1,8.764-1.773c23.867-.123,37.39-.051,61.258-.02a4.213,4.213,0,0,1,4.515,4.306,4.23,4.23,0,0,1-4.575,4.434c-23.438.009-36.53,0-59.968,0-1.168,0-2.341-.02-3.5.064-5.675.412-9.437,5.226-7.805,10.676a44.1,44.1,0,0,0,4.695,9.923c3.085,5.118,6.1,10.2,7.6,16.073,3.147,12.348,2.313,24.032-5.633,34.512-5.95,7.847-13.961,12.665-23.434,15A47.7,47.7,0,0,1,1640.91-23.8c-19.182-8.447-27.718-28.97-19.981-48.493,2.389-6.029,5.685-11.691,8.447-17.579a45.534,45.534,0,0,0,2.876-7.529,6.22,6.22,0,0,0-3.653-7.791,30.25,30.25,0,0,0-8.66-2.167c-3.837-.372-7.736-.126-11.609-.128-20.547,0-30.749,0-51.294-.006-3.765,0-5.844-2.724-4.64-6.027.678-1.861,2.064-2.717,4.535-2.718C1569.359-116.249,1571.439-116.245,1583.865-116.247Z" transform="translate(-1551.012 202.509)"/>
      <path id="Caminho_46" data-name="Caminho 46" d="M1636.537-103.217c.854,9.858,1.281,18.613,2.064,28.49.529,6.676,1.148,13.365,1.239,20.054A21.175,21.175,0,0,1,1618.7-33.2c-7.71-.084-14.613-5.595-17.255-13.781a37.519,37.519,0,0,1-1.342-14.412c1.356-18.591,6.934-36.215,12.5-53.833,1.065-3.375,4.949-4.41,7.21-2.156a22.27,22.27,0,0,0,4.119,3.091,3.114,3.114,0,0,0,2.253.24,25.321,25.321,0,0,0,3.712-1.6c2.942-1.408,7.12.17,6.647,4.5a61.139,61.139,0,0,0-.042,6.638C1636.5-104.383,1636.537-103.217,1636.537-103.217Zm-17.53-4.022c-2.214,7.727-4.419,14.872-6.3,22.1-2.4,9.23-4.179,18.588-3.848,28.191a25.684,25.684,0,0,0,1.168,6.861c1.734,5.415,5.97,8.161,11.334,7.683a10.8,10.8,0,0,0,9.532-9.774,135.654,135.654,0,0,0-.486-16.725c-.528-7.474-1.395-14.923-2.022-22.391-.379-4.515-.578-9.046-.876-13.889C1624.145-102.773,1621.691-104.729,1619.007-107.239Z" transform="translate(-1511.11 200.602)"/>
      <path id="Caminho_47" data-name="Caminho 47" d="M1628.2-89.61c-3.461-.312-6.463-.546-9.457-.862-2.566-.268-3.793-1.421-4.333-3.978q-.855-4.05-1.646-8.115a4.8,4.8,0,0,1,1.875-4.863q28.775-25,59.847-47.07,5.645-3.992,11.369-7.866c2.365-1.608,4.284-1.188,6.011,1.193,1.589,2.192,1.349,3.963-.838,5.756A306.973,306.973,0,0,0,1633.25-92.37C1631.872-90.382,1630.321-89.043,1628.2-89.61Zm14.237-29.383-.126-.178a4.621,4.621,0,0,0-.581.352c-6.271,5.246-12.5,10.548-18.839,15.706-1.529,1.243-1.014,2.555-.543,3.763.226.576,1.371.906,2.161,1.115a5.278,5.278,0,0,0,2.2,0,1.809,1.809,0,0,0,1.056-.779c1-1.6,1.787-3.349,2.918-4.841C1634.532-108.945,1638.5-113.952,1642.432-118.993Z" transform="translate(-1500.528 163.324)"/>
      <path id="Caminho_48" data-name="Caminho 48" d="M1575.929-103.393q15.123,0,30.246.005c3.091,0,4.788,1.719,4.667,4.636a4.022,4.022,0,0,1-3.551,4.053,7.9,7.9,0,0,1-1.287.059c-19.979,0-29.612.007-49.593,0-3.674,0-5.714-2.627-4.641-5.906.618-1.886,2.073-2.838,4.442-2.839C1566.234-103.4,1565.909-103.393,1575.929-103.393Z" transform="translate(-1551.485 213.25)"/>
      <path id="Caminho_49" data-name="Caminho 49" d="M1669.306-103.39c9.407,0,8.469-.015,17.876.006,3.556.007,5.657,3.188,4.2,6.326-.939,2.018-2.7,2.44-4.749,2.438-17.525-.024-24.7-.015-42.226-.016-1.17,0-2.341.051-3.5-.018a4.044,4.044,0,0,1-4.1-4.456,4.01,4.01,0,0,1,4.284-4.266C1650.491-103.409,1659.9-103.39,1669.306-103.39Z" transform="translate(-1480.412 213.249)"/>
      <path id="Caminho_50" data-name="Caminho 50" d="M1606.6-143.686a3.745,3.745,0,0,1,3.3,2.257c2.13,4.684,4.278,9.36,6.377,14.058a4.311,4.311,0,0,1-.544,4.988,3.973,3.973,0,0,1-4.684,1.144,4.789,4.789,0,0,1-2.35-2.093c-2.214-4.577-4.313-9.213-6.333-13.878C1600.855-140.678,1602.736-143.744,1606.6-143.686Z" transform="translate(-1509.535 179.684)"/>
      <path id="Caminho_51" data-name="Caminho 51" d="M1594.795-125.589c4.777.372,9.56.691,14.33,1.135a4.4,4.4,0,0,1,3.437,6.586,4.22,4.22,0,0,1-3.03,1.879c-5.584-.187-11.164-.6-16.731-1.109-2.278-.209-3.756-2.6-3.49-5.087.24-2.26,1.723-3.472,4.19-3.419.431.009.86.042,1.291.064Z" transform="translate(-1520 194.747)"/>
      <path id="Caminho_52" data-name="Caminho 52" d="M1613.259-123.9a3.87,3.87,0,0,1-2.148,3.565,3.966,3.966,0,0,1-4.365,0c-4.152-2.828-8.287-5.684-12.349-8.639a4.272,4.272,0,0,1-1.045-6.17,4.36,4.36,0,0,1,6.214-.755c3.827,2.651,7.64,5.325,11.462,7.983A4.6,4.6,0,0,1,1613.259-123.9Z" transform="translate(-1517.346 185.372)"/>
    </g>
  </g>
</svg>
