<svg xmlns="http://www.w3.org/2000/svg" xmlns:xlink="http://www.w3.org/1999/xlink" width="163.636" height="200" viewBox="0 0 163.636 200">
  <defs>
    <linearGradient id="linear-gradient" x1="0.5" x2="0.5" y2="1" gradientUnits="objectBoundingBox">
      <stop offset="0" stop-color="#8a2ce6"/>
      <stop offset="0.502" stop-color="#4f01c4"/>
      <stop offset="1" stop-color="#4159d0"/>
    </linearGradient>
  </defs>
  <g id="taquicardia" transform="translate(0)">
    <path id="Caminho_15" data-name="Caminho 15" d="M1533.661-127a52.25,52.25,0,0,0,22.864,43.182h-2.411a50.056,50.056,0,0,0-50,50V-2a22.754,22.754,0,0,0,22.728,22.728h118.18A22.754,22.754,0,0,0,1667.751-2V-33.822a50.055,50.055,0,0,0-50-50h-2.411A52.25,52.25,0,0,0,1638.2-127a52.333,52.333,0,0,0-52.271-52.274A52.333,52.333,0,0,0,1533.661-127Zm84.088,52.271a40.957,40.957,0,0,1,40.91,40.91V-2a13.653,13.653,0,0,1-13.638,13.638h-13.636v-50a4.543,4.543,0,0,0-4.547-4.544,4.543,4.543,0,0,0-4.543,4.544v50H1549.57v-50a4.546,4.546,0,0,0-4.546-4.544,4.546,4.546,0,0,0-4.546,4.544v50h-13.636A13.653,13.653,0,0,1,1513.2-2V-33.822a40.957,40.957,0,0,1,40.91-40.91ZM1629.113-127a43.232,43.232,0,0,1-43.182,43.182A43.232,43.232,0,0,1,1542.748-127a43.233,43.233,0,0,1,43.184-43.184A43.232,43.232,0,0,1,1629.114-127Z" transform="translate(-1504.115 179.277)" fill="url(#linear-gradient)"/>
    <path id="Caminho_16" data-name="Caminho 16" d="M1561.551-136.877l13.636,4.546a4.513,4.513,0,0,0,1.438.236,4.546,4.546,0,0,0,4.31-3.11,4.548,4.548,0,0,0-2.871-5.751l-4.821-1.607,5.9-3.936a4.541,4.541,0,0,0,1.937-2.89,4.541,4.541,0,0,0-.677-3.412,4.531,4.531,0,0,0-2.889-1.941,4.53,4.53,0,0,0-3.413.681l-13.638,9.088a4.549,4.549,0,0,0-1.985,4.387A4.543,4.543,0,0,0,1561.551-136.877Z" transform="translate(-1467.539 195.734)" fill="url(#linear-gradient)"/>
    <path id="Caminho_17" data-name="Caminho 17" d="M1554.7-144.971l-13.636-9.088a4.533,4.533,0,0,0-3.414-.681,4.533,4.533,0,0,0-2.89,1.941,4.545,4.545,0,0,0,1.26,6.3l5.9,3.936-4.821,1.607a4.547,4.547,0,0,0-2.874,5.751,4.549,4.549,0,0,0,4.312,3.11,4.5,4.5,0,0,0,1.438-.236l13.636-4.546a4.544,4.544,0,0,0,3.068-3.708,4.543,4.543,0,0,0-1.984-4.387Z" transform="translate(-1483.998 195.734)" fill="url(#linear-gradient)"/>
    <path id="Caminho_44" data-name="Caminho 44" d="M1537.557-82.531H1551.8L1555.332-91l6.233,19.925,7.914-34.408,3.924,22.04h21.832" transform="translate(-1481.6 228.951)" stroke="#4f01c4" stroke-miterlimit="10" stroke-width="5.223" fill="url(#linear-gradient)"/>
  </g>
</svg>
