<svg xmlns="http://www.w3.org/2000/svg" width="156.654" height="191.466" viewBox="0 0 156.654 191.466">
  <g id="taquicardia" transform="translate(-17.786 -23.997)">
    <g id="taquicardia-2" data-name="taquicardia" transform="translate(17.786 23.997)">
      <path id="Caminho_15" data-name="Caminho 15" d="M1468.219-121.584a50.021,50.021,0,0,0,21.888,41.339H1487.8a47.92,47.92,0,0,0-47.866,47.866v30.46a21.783,21.783,0,0,0,21.758,21.758H1574.83a21.783,21.783,0,0,0,21.758-21.758v-30.46a47.919,47.919,0,0,0-47.866-47.866h-2.308a50.02,50.02,0,0,0,21.888-41.339,50.1,50.1,0,0,0-50.041-50.043A50.1,50.1,0,0,0,1468.219-121.584Zm80.5,50.041a39.209,39.209,0,0,1,39.164,39.164v30.46a13.07,13.07,0,0,1-13.056,13.056h-13.054V-36.731a4.349,4.349,0,0,0-4.352-4.35,4.349,4.349,0,0,0-4.35,4.35V11.137H1483.45V-36.731a4.352,4.352,0,0,0-4.352-4.35,4.352,4.352,0,0,0-4.352,4.35V11.137h-13.054a13.07,13.07,0,0,1-13.056-13.056v-30.46A39.209,39.209,0,0,1,1487.8-71.543Zm10.879-50.041a41.387,41.387,0,0,1-41.339,41.339,41.387,41.387,0,0,1-41.341-41.339,41.388,41.388,0,0,1,41.341-41.341A41.387,41.387,0,0,1,1559.6-121.584Z" transform="translate(-1439.934 171.627)" fill="#040505"/>
      <path id="Caminho_16" data-name="Caminho 16" d="M1494.924-131.036l13.054,4.352a4.32,4.32,0,0,0,1.377.226,4.352,4.352,0,0,0,4.126-2.977,4.354,4.354,0,0,0-2.749-5.506l-4.615-1.538,5.652-3.768a4.347,4.347,0,0,0,1.206-6.033,4.337,4.337,0,0,0-6.033-1.206l-13.056,8.7a4.355,4.355,0,0,0-1.9,4.2A4.35,4.35,0,0,0,1494.924-131.036Z" transform="translate(-1404.919 187.382)" fill="#040505"/>
      <path id="Caminho_17" data-name="Caminho 17" d="M1488.363-138.785l-13.054-8.7a4.339,4.339,0,0,0-6.035,1.206,4.351,4.351,0,0,0,1.206,6.033l5.652,3.768-4.615,1.538a4.353,4.353,0,0,0-2.751,5.506,4.355,4.355,0,0,0,4.128,2.977,4.307,4.307,0,0,0,1.377-.226l13.054-4.352a4.35,4.35,0,0,0,2.937-3.55A4.349,4.349,0,0,0,1488.363-138.785Z" transform="translate(-1420.676 187.382)" fill="#040505"/>
      <path id="Caminho_44" data-name="Caminho 44" d="M1471.954-79.009h13.638l3.378-8.11,5.967,19.075,7.576-32.94,3.757,21.1h20.9" transform="translate(-1418.38 219.182)" fill="none" stroke="#040505" stroke-miterlimit="10" stroke-width="5"/>
    </g>
  </g>
</svg>
