<svg xmlns="http://www.w3.org/2000/svg" xmlns:xlink="http://www.w3.org/1999/xlink" width="200" height="198.719" viewBox="0 0 200 198.719">
  <defs>
    <linearGradient id="linear-gradient" x1="0.5" x2="0.5" y2="1" gradientUnits="objectBoundingBox">
      <stop offset="0" stop-color="#8a2ce6"/>
      <stop offset="0.498" stop-color="#4f01c4"/>
      <stop offset="1" stop-color="#4159d0"/>
    </linearGradient>
  </defs>
  <g id="tremores" transform="translate(0.538 0.005)">
    <path id="Caminho_18" data-name="Caminho 18" d="M1712.348,38.181a51.907,51.907,0,0,0,22.716,42.9h-2.394a49.734,49.734,0,0,0-49.677,49.678v31.617a22.607,22.607,0,0,0,22.58,22.581H1822.99a22.607,22.607,0,0,0,22.58-22.581V130.763a49.734,49.734,0,0,0-49.677-49.678H1793.5a51.924,51.924,0,1,0-81.153-42.9ZM1795.9,90.116a40.691,40.691,0,0,1,40.645,40.645v31.617a13.559,13.559,0,0,1-13.55,13.548h-13.548V126.245a4.52,4.52,0,1,0-9.031,0v49.677h-72.259V126.245a4.519,4.519,0,1,0-9.031,0v49.677h-13.548a13.559,13.559,0,0,1-13.55-13.548V130.763a40.693,40.693,0,0,1,40.645-40.645Zm11.29-51.935a42.881,42.881,0,1,1,.006,0Z" transform="translate(-1665.149 13.754)" fill="url(#linear-gradient)"/>
    <path id="Caminho_19" data-name="Caminho 19" d="M1742.058,29.269l13.548,4.519a4.52,4.52,0,0,0,2.858-8.568l-4.788-1.6,5.866-3.908a4.519,4.519,0,0,0-5.011-7.515l-13.548,9.033a4.52,4.52,0,0,0,1.076,8.041Z" transform="translate(-1630.799 29.211)" fill="url(#linear-gradient)"/>
    <path id="Caminho_20" data-name="Caminho 20" d="M1734.353,21.227l-13.548-9.033a4.52,4.52,0,1,0-5.011,7.515l5.866,3.908-4.79,1.6a4.52,4.52,0,1,0,2.858,8.568l13.547-4.519a4.52,4.52,0,0,0,1.076-8.041Z" transform="translate(-1646.256 29.211)" fill="url(#linear-gradient)"/>
    <path id="Caminho_68" data-name="Caminho 68" d="M1703.136.968s-18.6,27.825.775,47.309" transform="translate(-1657.727 22.792)" fill="none" stroke="#4f01c4" stroke-miterlimit="10" stroke-width="1.076"/>
    <path id="Caminho_69" data-name="Caminho 69" d="M1699.273.968s-18.6,27.825.775,47.309" transform="translate(-1660.097 22.792)" fill="none" stroke="#4f01c4" stroke-miterlimit="10" stroke-width="1.076"/>
    <path id="Caminho_70" data-name="Caminho 70" d="M1695.658.968s-18.6,27.825.776,47.309" transform="translate(-1662.313 22.792)" fill="none" stroke="#4f01c4" stroke-miterlimit="10" stroke-width="1.076"/>
    <path id="Caminho_71" data-name="Caminho 71" d="M1763.73-1.253s24.036,32.658,1.647,57.3" transform="translate(-1615.606 21.427)" fill="none" stroke="#4f01c4" stroke-miterlimit="10" stroke-width="1.076"/>
    <path id="Caminho_72" data-name="Caminho 72" d="M1768.4-1.463s24.036,32.658,1.647,57.3" transform="translate(-1612.738 21.298)" fill="none" stroke="#4f01c4" stroke-miterlimit="10" stroke-width="1.076"/>
    <path id="Caminho_73" data-name="Caminho 73" d="M1772.769-1.661s24.037,32.658,1.65,57.3" transform="translate(-1610.055 21.176)" fill="none" stroke="#4f01c4" stroke-miterlimit="10" stroke-width="1.076"/>
    <path id="Caminho_74" data-name="Caminho 74" d="M1774.06,47.815s21.609,11.887,22.46,33.84c.591,15.187.919,34.336.919,34.336" transform="translate(-1609.261 51.539)" fill="none" stroke="#4f01c4" stroke-miterlimit="10" stroke-width="1.076"/>
    <path id="Caminho_75" data-name="Caminho 75" d="M1777.439,45.8s21.609,11.887,22.46,33.84c.591,15.187.919,34.335.919,34.335" transform="translate(-1607.192 50.305)" fill="none" stroke="#4f01c4" stroke-miterlimit="10" stroke-width="1.076"/>
    <path id="Caminho_76" data-name="Caminho 76" d="M1780.721,44.1s21.609,11.887,22.461,33.84c.589,15.187.917,34.336.917,34.336" transform="translate(-1605.174 49.259)" fill="none" stroke="#4f01c4" stroke-miterlimit="10" stroke-width="1.076"/>
    <path id="Caminho_77" data-name="Caminho 77" d="M1701.974,47.815s-21.609,11.887-22.461,33.84c-.589,15.187-.917,34.336-.917,34.336" transform="translate(-1667.851 51.539)" fill="none" stroke="#4f01c4" stroke-miterlimit="10" stroke-width="1.076"/>
    <path id="Caminho_78" data-name="Caminho 78" d="M1698.606,45.8s-21.609,11.887-22.46,33.84c-.591,15.187-.919,34.335-.919,34.335" transform="translate(-1669.919 50.305)" fill="none" stroke="#4f01c4" stroke-miterlimit="10" stroke-width="1.076"/>
    <path id="Caminho_79" data-name="Caminho 79" d="M1695.313,44.1s-21.609,11.887-22.46,33.84c-.591,15.187-.917,34.336-.917,34.336" transform="translate(-1671.937 49.259)" fill="none" stroke="#4f01c4" stroke-miterlimit="10" stroke-width="1.076"/>
  </g>
</svg>
