<svg xmlns="http://www.w3.org/2000/svg" width="22" height="29" viewBox="0 0 22 29">
  <path id="Vector" d="M20.626,29A1.4,1.4,0,1,1,22,27.6,1.391,1.391,0,0,1,20.626,29Zm-6.417,0a1.4,1.4,0,1,1,1.375-1.4A1.391,1.391,0,0,1,14.209,29ZM7.791,29a1.4,1.4,0,1,1,1.375-1.4A1.391,1.391,0,0,1,7.791,29ZM1.375,29a1.4,1.4,0,0,1,0-2.806,1.4,1.4,0,0,1,0,2.806Zm19.25-6.548A1.4,1.4,0,1,1,22,21.048,1.391,1.391,0,0,1,20.626,22.452Zm-6.417,0a1.4,1.4,0,1,1,1.375-1.4A1.391,1.391,0,0,1,14.209,22.452Zm-6.417,0a1.4,1.4,0,1,1,1.375-1.4A1.391,1.391,0,0,1,7.791,22.452Zm-6.416,0a1.4,1.4,0,0,1,0-2.806,1.4,1.4,0,0,1,0,2.806ZM20.626,15.9A1.4,1.4,0,1,1,22,14.5,1.391,1.391,0,0,1,20.626,15.9Zm-6.417,0a1.4,1.4,0,1,1,1.375-1.4A1.391,1.391,0,0,1,14.209,15.9Zm-6.417,0a1.4,1.4,0,1,1,1.375-1.4A1.391,1.391,0,0,1,7.791,15.9Zm-6.416,0a1.4,1.4,0,0,1,0-2.806,1.4,1.4,0,0,1,0,2.806Zm19.25-6.548A1.4,1.4,0,1,1,22,7.952,1.391,1.391,0,0,1,20.626,9.355Zm-6.417,0a1.4,1.4,0,1,1,1.375-1.4A1.391,1.391,0,0,1,14.209,9.355Zm-6.417,0a1.4,1.4,0,1,1,1.375-1.4A1.391,1.391,0,0,1,7.791,9.355Zm-6.416,0a1.4,1.4,0,0,1,0-2.806,1.4,1.4,0,0,1,0,2.806Zm19.25-6.548A1.391,1.391,0,0,1,19.25,1.4,1.375,1.375,0,1,1,22,1.4,1.391,1.391,0,0,1,20.626,2.806Zm-6.417,0a1.391,1.391,0,0,1-1.375-1.4,1.376,1.376,0,1,1,2.75,0A1.391,1.391,0,0,1,14.209,2.806Zm-6.417,0A1.391,1.391,0,0,1,6.417,1.4a1.375,1.375,0,1,1,2.75,0A1.391,1.391,0,0,1,7.791,2.806Zm-6.416,0A1.391,1.391,0,0,1,0,1.4,1.391,1.391,0,0,1,1.375,0,1.391,1.391,0,0,1,2.75,1.4,1.391,1.391,0,0,1,1.375,2.806Z" fill="#fff"/>
</svg>
